<svg width="189" height="189" viewBox="0 0 189 189" fill="none" xmlns="http://www.w3.org/2000/svg">
	<path fill-rule="evenodd" clip-rule="evenodd" d="M94.5 189C146.691 189 189 146.691 189 94.5C189 42.3091 146.691 0 94.5 0C42.3091 0 0 42.3091 0 94.5C0 146.691 42.3091 189 94.5 189ZM94 178C139.84 178 177 140.84 177 95C177 49.1604 139.84 12 94 12C48.1604 12 11 49.1604 11 95C11 140.84 48.1604 178 94 178Z" fill="#F60000"/>
	<path d="M80.7799 44.4187C80.3562 36.5847 86.5943 30 94.4398 30V30C102.33 30 108.585 36.6569 108.093 44.532L104.287 105.509C103.955 110.844 99.5309 115 94.186 115V115C88.8087 115 84.3701 110.795 84.0797 105.426L80.7799 44.4187Z" fill="#F70000"/>
	<circle cx="94" cy="148" r="12" fill="#F70000"/>
	</svg>
	