<svg width="69" height="69" viewBox="0 0 69 69" fill="none" xmlns="http://www.w3.org/2000/svg">
    <path d="M41.3847 22.6948H28.0348C24.3483 22.6948 21.3599 25.6833 21.3599 29.3698V42.7196C21.3599 46.4061 24.3483 49.3946 28.0348 49.3946H41.3847C45.0711 49.3946 48.0596 46.4061 48.0596 42.7196V29.3698C48.0596 25.6833 45.0711 22.6948 41.3847 22.6948Z" stroke="#2155CD" stroke-width="4" stroke-linecap="round" stroke-linejoin="round"/>
    <path d="M39.9919 35.2614C40.1566 36.3724 39.9669 37.5071 39.4496 38.5041C38.9323 39.501 38.1138 40.3095 37.1105 40.8145C36.1072 41.3195 34.9703 41.4952 33.8613 41.3168C32.7524 41.1383 31.728 40.6148 30.9338 39.8206C30.1396 39.0264 29.616 38.0019 29.4376 36.893C29.2591 35.7841 29.4349 34.6471 29.9399 33.6439C30.4448 32.6406 31.2533 31.8221 32.2503 31.3048C33.2472 30.7875 34.3819 30.5977 35.493 30.7625C36.6263 30.9305 37.6755 31.4586 38.4856 32.2688C39.2957 33.0789 39.8238 34.1281 39.9919 35.2614Z" stroke="#2155CD" stroke-width="4" stroke-linecap="round" stroke-linejoin="round"/>
    <circle cx="34.3759" cy="34.3759" r="32.3759" stroke="#2155CD" stroke-width="4"/>
    </svg>
    