<svg width="30" height="36" viewBox="0 0 30 36" fill="none" xmlns="http://www.w3.org/2000/svg">
    <path d="M28.6207 14.8103C28.6207 25.5517 14.8103 34.7586 14.8103 34.7586C14.8103 34.7586 1 25.5517 1 14.8103C1 11.1476 2.45501 7.6349 5.04496 5.04496C7.6349 2.45501 11.1476 1 14.8103 1C18.4731 1 21.9858 2.45501 24.5757 5.04496C27.1657 7.6349 28.6207 11.1476 28.6207 14.8103Z" stroke="#0F3BA0" stroke-width="2" stroke-linecap="round" stroke-linejoin="round"/>
    <path d="M14.8102 19.4138C17.3526 19.4138 19.4137 17.3528 19.4137 14.8104C19.4137 12.2679 17.3526 10.2069 14.8102 10.2069C12.2678 10.2069 10.2068 12.2679 10.2068 14.8104C10.2068 17.3528 12.2678 19.4138 14.8102 19.4138Z" stroke="#0F3BA0" stroke-width="2" stroke-linecap="round" stroke-linejoin="round"/>
    </svg>
    