<svg width="710" height="730" viewBox="0 0 710 730" fill="none" xmlns="http://www.w3.org/2000/svg">
<path d="M708.5 696.5C708.5 698.5 708.5 699.5 708.5 702.5C708.5 703.5 708.5 706 708.5 708.5C708.5 709.5 708.5 709 708.5 710C708.5 709.5 708.5 704.351 708.5 707C708.5 708 708.5 708 708.5 708.5C708.5 709.5 708.5 709.675 708.5 710V711.5V713.5C708.5 714 708.5 714.5 708.5 715V716C675.079 703.518 677.616 699.789 644.756 685.532C614.467 672.428 583.558 661.869 550.698 660.656C467.959 657.284 394.084 712.36 312.348 726.499C214.213 743.389 109.754 695.441 52.7812 613.802C49.9444 609.74 47.2356 605.629 44.6549 601.468C43.8571 600.225 43.1183 598.953 42.35 597.711C40.3111 594.339 38.3903 590.997 36.44 587.565C35.5831 586.027 34.7557 584.46 33.9578 582.892C33.16 581.324 32.1848 579.461 31.3574 577.745L31.1506 577.331C30.2641 575.586 29.4367 573.87 28.6388 572.125C21.0383 555.831 14.9261 538.882 10.377 521.486C-6.14416 457.591 -2.87739 390.179 19.7443 328.185C21.7833 322.654 23.9699 317.182 26.3635 311.769C38.0062 285.088 53.9927 259.857 75.9484 240.72C120.273 202.119 182.328 192.861 235.518 168.044C261.227 155.773 285.391 140.492 307.502 122.521C353.295 86.1894 393.374 41.1973 436.514 0.499886C475 0.499886 493.5 0.499886 537.5 0.499886C583 0.499886 585 0 708.5 0C708.5 44.9988 708.5 38.5 708.5 77C708.5 116.5 708.5 166.5 708.5 242.5C708.5 286.5 708.5 357.5 708.5 435C710.173 443.863 708.5 552 708.5 560.5C708.5 624 708.5 588.5 708.5 651C708.5 685 708.5 642 708.5 675.5C708.5 685 708.5 688 708.5 696.5Z" fill="#E8F9FD"/>
</svg>
