<svg width="290" height="201" viewBox="0 0 290 201" fill="none" xmlns="http://www.w3.org/2000/svg">
    <circle cx="183" cy="72" r="72" fill="#F2FDFF"/>
    <circle cx="140.5" cy="114.5" r="86.5" fill="#43919B" fill-opacity="0.5"/>
    <g clip-path="url(#clip0_0_1)">
    <path d="M70.2409 183.248L70.5634 175.998C73.9248 174.201 77.6741 173.252 81.4856 173.233C76.2398 177.522 76.8954 185.789 73.3389 191.556C72.2159 193.347 70.7044 194.861 68.9164 195.988C67.1284 197.115 65.1098 197.825 63.0101 198.065L58.6203 200.753C58.0179 197.395 58.1507 193.946 59.0096 190.644C59.8684 187.343 61.4328 184.267 63.595 181.628C64.8227 180.159 66.2304 178.851 67.785 177.735C68.8363 180.507 70.2409 183.248 70.2409 183.248Z" fill="#F2F2F2"/>
    <path d="M212.24 58.5337H71.9743C71.2832 58.5337 70.6203 58.8081 70.1313 59.2965C69.6423 59.7848 69.3671 60.4474 69.3662 61.1385V127.347C69.367 128.039 69.642 128.702 70.1309 129.19C70.6199 129.679 71.2828 129.954 71.9743 129.955H212.24C212.931 129.954 213.593 129.678 214.081 129.19C214.57 128.701 214.844 128.038 214.845 127.347V61.1385C214.844 60.4479 214.569 59.7857 214.081 59.2974C213.593 58.8091 212.931 58.5344 212.24 58.5337V58.5337Z" fill="#3F3D56"/>
    <path d="M175.19 90.4312C174.499 90.4319 173.837 90.7065 173.349 91.1949C172.86 91.6832 172.586 92.3453 172.585 93.0359V111.738C172.586 112.429 172.86 113.092 173.348 113.58C173.837 114.069 174.499 114.345 175.19 114.346H214.845V90.4312H175.19Z" fill="#FAC213"/>
    <path opacity="0.5" d="M281.523 114.345H175.191C174.5 114.344 173.838 114.069 173.349 113.58C172.86 113.091 172.585 112.429 172.584 111.738V93.0364C172.585 92.3453 172.86 91.6827 173.349 91.194C173.838 90.7053 174.5 90.4305 175.191 90.4297H281.523C282.214 90.4305 282.876 90.7053 283.365 91.194C283.854 91.6827 284.129 92.3453 284.13 93.0364V111.738C284.129 112.429 283.854 113.091 283.365 113.58C282.876 114.069 282.214 114.344 281.523 114.345Z" fill="#FAC213"/>
    <path d="M189.571 107.813C191.907 107.813 193.801 105.919 193.801 103.583C193.801 101.246 191.907 99.3525 189.571 99.3525C187.235 99.3525 185.341 101.246 185.341 103.583C185.341 105.919 187.235 107.813 189.571 107.813Z" fill="white"/>
    <path d="M278.228 102.354H201.79C201.456 102.354 201.136 102.221 200.9 101.985C200.663 101.749 200.531 101.428 200.531 101.094C200.531 100.76 200.663 100.44 200.9 100.203C201.136 99.9672 201.456 99.8345 201.79 99.8345H278.228C278.562 99.8345 278.883 99.9672 279.119 100.203C279.355 100.44 279.488 100.76 279.488 101.094C279.488 101.428 279.355 101.749 279.119 101.985C278.883 102.221 278.562 102.354 278.228 102.354Z" fill="white"/>
    <path d="M249.196 107.331H201.79C201.456 107.331 201.135 107.199 200.899 106.962C200.663 106.726 200.53 106.406 200.53 106.072C200.53 105.738 200.663 105.417 200.899 105.181C201.135 104.945 201.456 104.812 201.79 104.812H249.196C249.53 104.812 249.851 104.945 250.087 105.181C250.323 105.417 250.456 105.738 250.456 106.072C250.456 106.406 250.323 106.726 250.087 106.962C249.851 107.199 249.53 107.331 249.196 107.331V107.331Z" fill="white"/>
    <path d="M48.9323 197.303L52.5933 197.303L54.335 183.183H48.9316L48.9323 197.303Z" fill="#FFB6B6"/>
    <path d="M47.9985 196.108L49.029 196.108L53.0521 194.472L55.2084 196.108H55.2087C56.4272 196.108 57.5959 196.592 58.4575 197.454C59.3192 198.315 59.8033 199.484 59.8034 200.702V200.852L47.9988 200.852L47.9985 196.108Z" fill="#2F2E41"/>
    <path d="M15.8525 192.544L19.1293 194.177L26.9872 182.316L22.1514 179.906L15.8525 192.544Z" fill="#FFB6B6"/>
    <path d="M15.5502 191.058L16.4725 191.517L20.803 191.848L22.003 194.274L22.0033 194.274C23.0939 194.817 23.9238 195.772 24.3106 196.927C24.6974 198.083 24.6094 199.345 24.0658 200.435L23.9992 200.569L13.4341 195.303L15.5502 191.058Z" fill="#2F2E41"/>
    <path d="M50.5545 133.172L27.2767 133.78L27.6816 145.114C27.6816 145.114 27.2767 148.151 28.0864 148.96C28.8961 149.77 29.3009 149.77 28.8961 151.187C28.4912 152.604 27.4446 166.141 27.4446 166.141C27.4446 166.141 17.8908 183.033 18.2956 183.438C18.7004 183.843 19.1053 183.438 18.7004 184.45C18.2956 185.462 17.8908 185.058 18.2956 185.462C18.6542 185.849 18.992 186.254 19.3077 186.677H25.9057C25.9057 186.677 26.2747 184.653 26.2747 184.45C26.2747 184.248 26.6795 183.033 26.6795 182.831C26.6795 182.629 38.2071 170.415 38.2071 170.415L40.6361 150.175L46.5062 170.011C46.5062 170.011 46.5062 187.418 46.911 187.823C47.3158 188.227 47.3158 188.025 47.1134 188.835C46.911 189.644 46.1013 189.442 46.7086 190.049C47.3158 190.656 47.5182 189.644 47.3158 190.656L47.1134 191.668L54.89 191.755C54.89 191.755 55.6997 190.049 55.2949 189.442C54.89 188.835 54.9143 189 55.4082 188.007C55.9021 187.013 56.1045 186.811 55.9021 186.608C55.6997 186.406 55.6997 185.329 55.6997 185.329C55.6997 185.329 52.781 145.519 52.781 144.912C52.7658 144.6 52.8233 144.288 52.9492 144.001V143.177L52.1738 140.257L50.5545 133.172Z" fill="#2F2E41"/>
    <path d="M281.068 98.0278C279.301 98.0278 277.574 97.504 276.105 96.5225C274.637 95.5411 273.492 94.1461 272.816 92.514C272.14 90.8819 271.963 89.086 272.307 87.3534C272.652 85.6208 273.503 84.0293 274.752 82.7801C276.001 81.531 277.593 80.6803 279.325 80.3357C281.058 79.9911 282.854 80.1679 284.486 80.844C286.118 81.52 287.513 82.6648 288.495 84.1337C289.476 85.6025 290 87.3294 290 89.096C290 91.4648 289.059 93.7367 287.384 95.4118C285.709 97.0868 283.437 98.0278 281.068 98.0278V98.0278Z" fill="#FAC213"/>
    <path d="M284.592 88.2148H281.949V85.5715C281.949 85.3378 281.856 85.1137 281.691 84.9485C281.526 84.7833 281.302 84.6904 281.068 84.6904C280.834 84.6904 280.61 84.7833 280.445 84.9485C280.28 85.1137 280.187 85.3378 280.187 85.5715V88.2148H277.543C277.428 88.2145 277.313 88.2372 277.206 88.2813C277.099 88.3255 277.001 88.3904 276.919 88.4722C276.837 88.5541 276.772 88.6513 276.728 88.7583C276.683 88.8653 276.661 88.98 276.661 89.0958C276.661 89.2117 276.683 89.3264 276.728 89.4334C276.772 89.5404 276.837 89.6376 276.919 89.7194C277.001 89.8013 277.099 89.8661 277.206 89.9103C277.313 89.9545 277.428 89.9771 277.543 89.9769H280.187V92.6201C280.187 92.8538 280.28 93.0779 280.445 93.2432C280.61 93.4084 280.834 93.5012 281.068 93.5012C281.302 93.5012 281.526 93.4084 281.691 93.2432C281.856 93.0779 281.949 92.8538 281.949 92.6201V89.9769H284.592C284.826 89.9769 285.05 89.8841 285.215 89.7188C285.381 89.5536 285.473 89.3295 285.473 89.0958C285.473 88.8622 285.381 88.638 285.215 88.4728C285.05 88.3076 284.826 88.2148 284.592 88.2148V88.2148Z" fill="white"/>
    <path d="M144.749 114.466H110.812C110.12 114.467 109.457 114.742 108.968 115.231C108.479 115.719 108.204 116.382 108.204 117.074V129.956H147.354V117.074C147.354 116.383 147.079 115.72 146.591 115.231C146.103 114.743 145.44 114.467 144.749 114.466V114.466Z" fill="#FAC213"/>
    <path opacity="0.5" d="M144.748 150.661H110.811C110.119 150.661 109.457 150.386 108.968 149.897C108.479 149.408 108.204 148.746 108.204 148.054V117.073C108.204 116.381 108.479 115.719 108.968 115.23C109.457 114.741 110.119 114.467 110.811 114.466H144.748C145.439 114.467 146.102 114.741 146.591 115.23C147.079 115.719 147.354 116.381 147.355 117.073V148.054C147.354 148.746 147.079 149.408 146.591 149.897C146.102 150.386 145.439 150.661 144.748 150.661Z" fill="#FAC213"/>
    <path d="M120.809 129.151C123.146 129.151 125.04 127.257 125.04 124.921C125.04 122.584 123.146 120.69 120.809 120.69C118.473 120.69 116.579 122.584 116.579 124.921C116.579 127.257 118.473 129.151 120.809 129.151Z" fill="white"/>
    <path d="M137.719 135.58H117.839C117.505 135.58 117.184 135.448 116.948 135.211C116.712 134.975 116.579 134.655 116.579 134.321C116.579 133.987 116.712 133.666 116.948 133.43C117.184 133.194 117.505 133.061 117.839 133.061H137.719C138.053 133.061 138.374 133.194 138.61 133.43C138.846 133.666 138.979 133.987 138.979 134.321C138.979 134.655 138.846 134.975 138.61 135.211C138.374 135.448 138.053 135.58 137.719 135.58Z" fill="white"/>
    <path d="M127.432 140.558H117.839C117.505 140.558 117.184 140.425 116.948 140.189C116.712 139.953 116.579 139.632 116.579 139.298C116.579 138.964 116.712 138.644 116.948 138.408C117.184 138.171 117.505 138.039 117.839 138.039H127.432C127.766 138.039 128.087 138.171 128.323 138.408C128.559 138.644 128.692 138.964 128.692 139.298C128.692 139.632 128.559 139.953 128.323 140.189C128.087 140.425 127.766 140.558 127.432 140.558V140.558Z" fill="white"/>
    <path d="M110.103 159.754C108.336 159.754 106.61 159.23 105.141 158.249C103.672 157.267 102.527 155.872 101.851 154.24C101.175 152.608 100.998 150.812 101.343 149.08C101.687 147.347 102.538 145.755 103.787 144.506C105.036 143.257 106.628 142.406 108.361 142.062C110.093 141.717 111.889 141.894 113.521 142.57C115.153 143.246 116.548 144.391 117.53 145.86C118.511 147.329 119.035 149.055 119.035 150.822C119.035 153.191 118.094 155.463 116.419 157.138C114.744 158.813 112.472 159.754 110.103 159.754V159.754Z" fill="#FAC213"/>
    <path d="M113.627 149.941H110.984V147.298C110.984 147.064 110.891 146.84 110.726 146.675C110.561 146.51 110.337 146.417 110.103 146.417C109.869 146.417 109.645 146.51 109.48 146.675C109.315 146.84 109.222 147.064 109.222 147.298V149.941H106.579C106.463 149.941 106.348 149.964 106.241 150.008C106.134 150.052 106.036 150.117 105.954 150.199C105.872 150.281 105.807 150.378 105.763 150.485C105.719 150.592 105.696 150.707 105.696 150.822C105.696 150.938 105.719 151.053 105.763 151.16C105.807 151.267 105.872 151.364 105.954 151.446C106.036 151.528 106.134 151.593 106.241 151.637C106.348 151.681 106.463 151.704 106.579 151.703H109.222V154.347C109.222 154.58 109.315 154.804 109.48 154.97C109.645 155.135 109.869 155.228 110.103 155.228C110.337 155.228 110.561 155.135 110.726 154.97C110.891 154.804 110.984 154.58 110.984 154.347V151.703H113.627C113.861 151.703 114.085 151.611 114.25 151.445C114.416 151.28 114.509 151.056 114.509 150.822C114.509 150.589 114.416 150.365 114.25 150.199C114.085 150.034 113.861 149.941 113.627 149.941Z" fill="white"/>
    <path d="M105.968 94.7697H72.0303C71.3391 94.7689 70.6765 94.494 70.1878 94.0053C69.699 93.5166 69.4241 92.854 69.4233 92.1629V61.181C69.4241 60.4898 69.6991 59.8272 70.1878 59.3386C70.6765 58.8499 71.3391 58.575 72.0303 58.5742H105.968C106.659 58.575 107.322 58.8499 107.81 59.3386C108.299 59.8272 108.574 60.4898 108.575 61.181V92.1629C108.574 92.854 108.299 93.5166 107.81 94.0053C107.322 94.494 106.659 94.7689 105.968 94.7697V94.7697Z" fill="#FAC213"/>
    <path d="M82.0296 75.8451C84.3659 75.8451 86.2599 73.9512 86.2599 71.6149C86.2599 69.2787 84.3659 67.3848 82.0296 67.3848C79.6933 67.3848 77.7993 69.2787 77.7993 71.6149C77.7993 73.9512 79.6933 75.8451 82.0296 75.8451Z" fill="#FAC213"/>
    <path d="M98.9395 80.9817H79.059C78.7249 80.9817 78.4045 80.849 78.1683 80.6128C77.932 80.3765 77.7993 80.0561 77.7993 79.7221C77.7993 79.388 77.932 79.0676 78.1683 78.8313C78.4045 78.5951 78.7249 78.4624 79.059 78.4624H98.9395C99.2736 78.4624 99.594 78.5951 99.8302 78.8313C100.066 79.0676 100.199 79.388 100.199 79.7221C100.199 80.0561 100.066 80.3765 99.8302 80.6128C99.594 80.849 99.2736 80.9817 98.9395 80.9817V80.9817Z" fill="#FAC213"/>
    <path d="M88.6524 85.9594H79.0591C78.725 85.9594 78.4045 85.8267 78.1683 85.5904C77.932 85.3542 77.7993 85.0338 77.7993 84.6997C77.7993 84.3656 77.932 84.0451 78.1683 83.8089C78.4045 83.5727 78.725 83.4399 79.0591 83.4399H88.6524C88.9865 83.4399 89.3069 83.5727 89.5432 83.8089C89.7794 84.0451 89.9122 84.3656 89.9122 84.6997C89.9122 85.0338 89.7794 85.3542 89.5432 85.5904C89.3069 85.8267 88.9865 85.9594 88.6524 85.9594V85.9594Z" fill="#FAC213"/>
    <path opacity="0.5" d="M105.968 94.7697H72.0303C71.3391 94.7689 70.6765 94.494 70.1878 94.0053C69.699 93.5166 69.4241 92.854 69.4233 92.1629V61.181C69.4241 60.4898 69.6991 59.8272 70.1878 59.3386C70.6765 58.8499 71.3391 58.575 72.0303 58.5742H105.968C106.659 58.575 107.322 58.8499 107.81 59.3386C108.299 59.8272 108.574 60.4898 108.575 61.181V92.1629C108.574 92.854 108.299 93.5166 107.81 94.0053C107.322 94.494 106.659 94.7689 105.968 94.7697V94.7697Z" fill="#FAC213"/>
    <path d="M82.0296 75.8451C84.3659 75.8451 86.2599 73.9512 86.2599 71.6149C86.2599 69.2787 84.3659 67.3848 82.0296 67.3848C79.6933 67.3848 77.7993 69.2787 77.7993 71.6149C77.7993 73.9512 79.6933 75.8451 82.0296 75.8451Z" fill="white"/>
    <path d="M98.9395 80.9817H79.059C78.7249 80.9817 78.4045 80.849 78.1683 80.6128C77.932 80.3765 77.7993 80.0561 77.7993 79.7221C77.7993 79.388 77.932 79.0676 78.1683 78.8313C78.4045 78.5951 78.7249 78.4624 79.059 78.4624H98.9395C99.2736 78.4624 99.594 78.5951 99.8302 78.8313C100.066 79.0676 100.199 79.388 100.199 79.7221C100.199 80.0561 100.066 80.3765 99.8302 80.6128C99.594 80.849 99.2736 80.9817 98.9395 80.9817V80.9817Z" fill="white"/>
    <path d="M88.6524 85.9594H79.0591C78.725 85.9594 78.4045 85.8267 78.1683 85.5904C77.932 85.3542 77.7993 85.0338 77.7993 84.6997C77.7993 84.3656 77.932 84.0451 78.1683 83.8089C78.4045 83.5727 78.725 83.4399 79.0591 83.4399H88.6524C88.9865 83.4399 89.3069 83.5727 89.5432 83.8089C89.7794 84.0451 89.9122 84.3656 89.9122 84.6997C89.9122 85.0338 89.7794 85.3542 89.5432 85.5904C89.3069 85.8267 88.9865 85.9594 88.6524 85.9594V85.9594Z" fill="white"/>
    <path d="M72.7307 65.2593C76.479 65.2593 79.5176 62.2209 79.5176 58.4727C79.5176 54.7245 76.479 51.686 72.7307 51.686C68.9824 51.686 65.9438 54.7245 65.9438 58.4727C65.9438 62.2209 68.9824 65.2593 72.7307 65.2593Z" fill="#FF6584"/>
    <path d="M91.3548 200.616C91.3549 200.666 91.3451 200.716 91.3258 200.763C91.3065 200.81 91.2782 200.852 91.2425 200.888C91.2067 200.924 91.1643 200.952 91.1175 200.971C91.0708 200.99 91.0207 201 90.9702 201H0.384591C0.282591 201 0.184768 200.96 0.112643 200.887C0.0405187 200.815 0 200.718 0 200.616C0 200.514 0.0405187 200.416 0.112643 200.344C0.184768 200.271 0.282591 200.231 0.384591 200.231H90.9702C91.0207 200.231 91.0708 200.241 91.1175 200.26C91.1643 200.279 91.2067 200.308 91.2425 200.343C91.2782 200.379 91.3065 200.421 91.3258 200.468C91.3451 200.515 91.3549 200.565 91.3548 200.616V200.616Z" fill="#CCCCCC"/>
    <path d="M71.2799 76.4487C71.5589 77.2288 71.5201 78.0873 71.172 78.839C70.8238 79.5908 70.1942 80.1756 69.4187 80.4674C69.2472 80.5315 69.0703 80.5802 68.8902 80.6131L67.0977 91.5879L62.8931 87.7058L65.2398 77.8791C65.153 77.051 65.3955 76.2221 65.9149 75.5714C66.4344 74.9207 67.1891 74.5006 68.0159 74.4019C68.7114 74.3222 69.4134 74.4814 70.0066 74.8533C70.5997 75.2253 71.0487 75.7878 71.2798 76.4487L71.2799 76.4487Z" fill="#FFB6B6"/>
    <path d="M40.2495 101.316C40.2495 101.316 43.5129 97.0048 55.3548 97.1229L62.0764 94.6808L63.6125 80.6001L68.989 81.8802L68.2209 99.2891L56.6999 105.945L41.5946 109.018L40.2495 101.316Z" fill="#3F3D56"/>
    <path d="M38.5158 92.3343C42.3975 92.3343 45.5442 89.1876 45.5442 85.3061C45.5442 81.4245 42.3975 78.2778 38.5158 78.2778C34.6341 78.2778 31.4873 81.4245 31.4873 85.3061C31.4873 89.1876 34.6341 92.3343 38.5158 92.3343Z" fill="#FFB6B6"/>
    <path d="M26.62 138.596C26.6076 138.596 26.5951 138.594 26.5831 138.591C26.4534 138.555 26.3509 138.526 26.8192 134.477L27.3246 131.276L26.8312 128.45L26.0012 127.621L27.3351 126.287L28.4544 123.107L26.5176 120.238L24.2956 108.501C23.9136 106.476 24.2104 104.381 25.1401 102.542C26.0698 100.703 27.5804 99.2214 29.4376 98.328L32.0095 97.5766L32.9452 95.8606C33.208 95.3787 33.5949 94.9759 34.0658 94.694C34.5367 94.412 35.0745 94.2611 35.6234 94.257L40.333 94.2218C40.8082 94.2182 41.2777 94.3248 41.7048 94.5331C42.1319 94.7414 42.5049 95.0458 42.7946 95.4224L44.4377 97.5582L51.2513 99.8727L50.1216 124.215C50.301 124.365 50.4473 124.551 50.5513 124.76C50.6552 124.97 50.7146 125.199 50.7255 125.433C50.7364 125.666 50.6986 125.9 50.6147 126.118C50.5307 126.337 50.4023 126.535 50.2376 126.702C50.1668 126.773 50.1105 126.831 50.0758 126.87C49.9609 127.033 50.1764 128.251 50.4426 129.285L50.7839 130.869C50.6744 130.948 50.5823 131.048 50.5134 131.164C50.4445 131.279 50.4004 131.408 50.3837 131.541C50.3671 131.675 50.3783 131.811 50.4168 131.94C50.4552 132.069 50.5199 132.188 50.6069 132.291L51.042 132.805C51.128 133.449 50.955 134.102 50.5607 134.619C50.1664 135.136 49.5832 135.476 48.9389 135.563C42.712 136.411 26.6526 138.596 26.62 138.596Z" fill="#3F3D56"/>
    <path d="M36.7178 91.99C36.6877 91.9239 36.6578 91.8576 36.6279 91.791C36.6394 91.7914 36.6508 91.793 36.6623 91.7933L36.7178 91.99Z" fill="#2F2E41"/>
    <path d="M31.2916 78.5975C31.6253 78.2827 32.0591 78.0952 32.517 78.0677C32.9715 78.0824 33.4324 78.4929 33.3383 78.9377C34.1731 77.4597 35.5018 76.3229 37.0913 75.7269C38.6808 75.1309 40.4294 75.1138 42.0302 75.6786C43.1598 76.0771 44.2676 76.8744 44.5271 78.0437C44.5523 78.3507 44.6439 78.6486 44.7954 78.9168C44.9268 79.0601 45.0972 79.162 45.2856 79.2097C45.4741 79.2575 45.6724 79.2491 45.8562 79.1855L45.8674 79.1822C45.9303 79.1607 45.9981 79.1586 46.0623 79.1762C46.1264 79.1937 46.1837 79.2301 46.227 79.2805C46.2702 79.331 46.2972 79.3933 46.3047 79.4594C46.3121 79.5254 46.2995 79.5922 46.2686 79.651L45.949 80.2471C46.3519 80.3369 46.7705 80.328 47.1693 80.2211C47.2355 80.2037 47.3055 80.2073 47.3696 80.2313C47.4338 80.2552 47.4889 80.2985 47.5275 80.355C47.5661 80.4116 47.5862 80.4787 47.5852 80.5472C47.5841 80.6156 47.5619 80.6821 47.5216 80.7374C46.9904 81.4641 46.297 82.0568 45.4964 82.4683C44.6958 82.8797 43.8103 83.0987 42.9102 83.1077C41.6332 83.0999 40.343 82.6598 39.1001 82.9534C38.6193 83.067 38.17 83.2869 37.7853 83.5967C37.4005 83.9066 37.09 84.2987 36.8765 84.7442C36.663 85.1898 36.552 85.6774 36.5516 86.1715C36.5512 86.6655 36.6614 87.1534 36.8741 87.5992C36.4923 87.1816 35.7542 87.2805 35.3637 87.69C35.1838 87.9091 35.0509 88.1629 34.9731 88.4356C34.8953 88.7082 34.8743 88.9939 34.9114 89.275C35.0155 90.136 35.2712 90.9717 35.6664 91.7436C34.1563 91.6972 32.6968 91.1883 31.4851 90.2859C30.2733 89.3835 29.3678 88.1309 28.8907 86.6974C28.4137 85.2639 28.3881 83.7185 28.8175 82.27C29.2468 80.8214 30.1104 79.5396 31.2916 78.5976L31.2916 78.5975Z" fill="#2F2E41"/>
    <path d="M29.3581 148.676C28.6861 148.191 28.2315 147.462 28.0923 146.645C27.9531 145.829 28.1405 144.99 28.614 144.31C28.719 144.16 28.8371 144.02 28.9669 143.891L24.2241 133.833L29.8885 134.648L33.524 144.075C34.0648 144.708 34.3348 145.528 34.2755 146.359C34.2163 147.189 33.8326 147.963 33.2073 148.513C32.6794 148.973 32.0108 149.239 31.3113 149.269C30.6118 149.299 29.923 149.09 29.3581 148.676H29.3581Z" fill="#FFB6B6"/>
    <path d="M27.9215 143.184L20.3744 126.223L20.2988 112.827L22.6778 105.591C23.0006 104.609 23.5169 103.702 24.1962 102.923C24.8755 102.144 25.704 101.509 26.6328 101.056C27.5616 100.603 28.5718 100.341 29.6038 100.285C30.6357 100.229 31.6684 100.38 32.6408 100.73L32.6932 100.749L32.7151 100.8C32.8031 101.005 34.7984 105.941 28.8799 116.093L27.6888 123.04L31.8682 138.964L27.9215 143.184Z" fill="#3F3D56"/>
    </g>
    <defs>
    <clipPath id="clip0_0_1">
    <rect width="290" height="180" fill="white" transform="translate(0 21)"/>
    </clipPath>
    </defs>
    </svg>
    