<svg width="229" height="188" viewBox="0 0 229 188" fill="none" xmlns="http://www.w3.org/2000/svg">
    <circle cx="157" cy="72" r="72" fill="#F2FDFF"/>
    <circle cx="112.5" cy="101.5" r="86.5" fill="#247881" fill-opacity="0.5"/>
    <g clip-path="url(#clip0_0_1)">
    <path d="M7.09912 154.287C8.20922 142.975 14.9187 131.684 25.5943 127.734C21.6494 139.45 21.9829 152.181 26.5356 163.675C28.3075 168.102 30.7399 172.841 29.3006 177.386C28.4052 180.214 26.0914 182.42 23.4776 183.83C20.8635 185.24 17.9403 185.956 15.0536 186.657L14.4945 187.144C9.61459 176.875 5.98902 165.599 7.09912 154.287Z" fill="#F0F0F0"/>
    <path d="M25.7069 127.944C19.6793 135.047 15.8856 144.118 15.2223 153.417C15.0788 155.427 15.1086 157.479 15.5994 159.444C16.0924 161.356 17.0894 163.101 18.4865 164.498C19.7631 165.827 21.2229 167.039 22.1537 168.655C23.1347 170.357 23.2219 172.319 22.6291 174.17C21.9038 176.435 20.4064 178.305 18.8785 180.083C17.1821 182.057 15.3887 184.08 14.7129 186.656C14.631 186.968 14.1507 186.823 14.2325 186.511C15.4082 182.03 19.6672 179.391 21.6252 175.331C22.5388 173.436 22.8861 171.256 21.9323 169.306C21.0982 167.601 19.5939 166.35 18.2897 165.016C16.9203 163.615 15.858 162.066 15.2822 160.179C14.6933 158.248 14.5831 156.193 14.6744 154.188C14.9154 149.642 15.8708 145.163 17.5057 140.913C19.3446 136.053 22.0028 131.543 25.3652 127.577C25.5734 127.332 25.9138 127.701 25.7069 127.944L25.7069 127.944Z" fill="white"/>
    <path d="M15.278 150.383C13.7181 150.047 12.3285 149.169 11.3572 147.905C10.3859 146.642 9.89624 145.074 9.97562 143.483C9.97945 143.419 10.0083 143.358 10.0562 143.314C10.1041 143.27 10.1672 143.246 10.2323 143.248C10.2973 143.249 10.3593 143.276 10.405 143.322C10.4507 143.368 10.4767 143.43 10.4774 143.495C10.4007 144.977 10.857 146.437 11.7639 147.612C12.6707 148.787 13.9685 149.599 15.4228 149.903C15.7388 149.969 15.5921 150.449 15.278 150.383V150.383Z" fill="white"/>
    <path d="M17.7502 163.91C20.5062 162.168 22.5033 159.454 23.3434 156.307C23.4264 155.996 23.9068 156.141 23.8239 156.452C22.9435 159.725 20.8594 162.545 17.9875 164.351C17.7136 164.523 17.4778 164.081 17.7502 163.91Z" fill="white"/>
    <path d="M19.8224 136.515C20.3989 136.771 21.0298 136.879 21.6586 136.831C22.2874 136.782 22.8943 136.579 23.4248 136.239C23.6963 136.063 23.9319 136.506 23.6621 136.68C23.0742 137.053 22.4036 137.277 21.709 137.332C21.0145 137.387 20.317 137.271 19.6775 136.995C19.6151 136.974 19.563 136.93 19.5318 136.872C19.5006 136.814 19.4928 136.746 19.5097 136.683C19.5292 136.619 19.573 136.566 19.6316 136.535C19.6901 136.503 19.7587 136.496 19.8224 136.515H19.8224Z" fill="white"/>
    <path d="M58.9531 147.018C58.7867 147.133 58.6202 147.247 58.4537 147.366C56.2241 148.914 54.1242 150.64 52.1747 152.528C52.0217 152.672 51.8687 152.819 51.7201 152.967C47.0719 157.565 43.3191 162.984 40.6526 168.95C39.5937 171.325 38.7174 173.777 38.0311 176.284C37.0835 179.747 36.3321 183.577 34.3522 186.441C34.149 186.742 33.9273 187.031 33.6884 187.304L15.1326 187.787C15.0899 187.767 15.0471 187.752 15.0042 187.731L14.2642 187.785C14.2905 187.653 14.3207 187.517 14.347 187.385C14.362 187.308 14.3811 187.232 14.396 187.155C14.4073 187.104 14.4188 187.053 14.4261 187.006C14.4298 186.989 14.4337 186.972 14.4375 186.96C14.4447 186.913 14.4564 186.87 14.4638 186.828C14.6303 186.066 14.8025 185.305 14.9802 184.543C14.9801 184.539 14.9801 184.539 14.9842 184.535C16.3537 178.734 18.2203 172.998 20.8998 167.726C20.9805 167.567 21.0609 167.404 21.15 167.246C22.371 164.876 23.784 162.61 25.3748 160.47C26.2496 159.301 27.1832 158.178 28.1719 157.103C30.7319 154.331 33.7126 151.979 37.0049 150.132C43.5685 146.45 51.2384 144.906 58.4069 146.864C58.5902 146.914 58.7696 146.964 58.9531 147.018Z" fill="#F0F0F0"/>
    <path d="M58.9178 147.254C49.8216 149.302 41.322 154.265 35.1842 161.291C33.8572 162.81 32.6435 164.466 31.8502 166.33C31.0908 168.153 30.8343 170.146 31.1072 172.101C31.3251 173.929 31.7599 175.774 31.5288 177.623C31.2851 179.573 30.1718 181.191 28.582 182.313C26.6368 183.686 24.3136 184.279 22.0215 184.78C19.4766 185.336 16.8244 185.874 14.7314 187.524C14.4778 187.724 14.1818 187.319 14.435 187.12C18.0765 184.248 23.0687 184.701 27.0805 182.636C28.9524 181.673 30.5449 180.14 30.9592 178.01C31.3216 176.148 30.8747 174.245 30.6382 172.395C30.3898 170.454 30.4755 168.579 31.154 166.726C31.848 164.83 32.9994 163.123 34.2817 161.577C37.2155 158.092 40.68 155.09 44.5481 152.68C48.9475 149.904 53.7901 147.901 58.8662 146.756C59.1804 146.685 59.2299 147.184 58.9178 147.254H58.9178Z" fill="white"/>
    <path d="M37.0583 158.902C36.0151 157.697 35.435 156.16 35.4216 154.568C35.4083 152.975 35.9625 151.429 36.9854 150.206C37.1932 149.96 37.5869 150.271 37.3788 150.518C36.4242 151.654 35.9081 153.094 35.9236 154.577C35.939 156.061 36.4851 157.489 37.4632 158.606C37.6754 158.849 37.2693 159.143 37.0583 158.902V158.902Z" fill="white"/>
    <path d="M30.8743 171.189C34.1251 171.455 37.3569 170.488 39.9252 168.48C40.1795 168.281 40.4756 168.686 40.2216 168.885C37.545 170.968 34.1798 171.968 30.7975 171.684C30.4752 171.657 30.5537 171.162 30.8743 171.189H30.8743Z" fill="white"/>
    <path d="M49.0503 150.561C49.3566 151.111 49.795 151.577 50.3262 151.916C50.8573 152.256 51.4646 152.458 52.0935 152.505C52.416 152.529 52.3372 153.023 52.0167 153C51.3222 152.945 50.6518 152.721 50.0641 152.347C49.4764 151.973 48.9893 151.462 48.6454 150.857C48.6082 150.803 48.5931 150.736 48.6031 150.671C48.6132 150.606 48.6477 150.547 48.6996 150.507C48.7534 150.468 48.8205 150.452 48.8861 150.462C48.9518 150.472 49.0108 150.508 49.0503 150.561V150.561Z" fill="white"/>
    <path d="M167.859 52.9247C167.582 52.108 164.108 49.3319 166.237 48.8653L167.983 51.1893L176.009 43.1763L176.817 43.9822L167.859 52.9247Z" fill="#FAC213"/>
    <path d="M167.859 80.1722C167.582 79.3556 164.108 76.5795 166.237 76.1129L167.983 78.4368L176.009 70.4238L176.817 71.2297L167.859 80.1722Z" fill="#FAC213"/>
    <path d="M167.859 107.809C167.582 106.993 164.108 104.217 166.237 103.75L167.983 106.074L176.009 98.061L176.817 98.867L167.859 107.809Z" fill="#FAC213"/>
    <path d="M160.468 85.4654C161.836 85.4654 162.945 84.3583 162.945 82.9927C162.945 81.6271 161.836 80.52 160.468 80.52C159.1 80.52 157.991 81.6271 157.991 82.9927C157.991 84.3583 159.1 85.4654 160.468 85.4654Z" fill="#3F3D56"/>
    <path d="M160.468 58.5133C161.836 58.5133 162.945 57.4062 162.945 56.0406C162.945 54.6749 161.836 53.5679 160.468 53.5679C159.1 53.5679 157.991 54.6749 157.991 56.0406C157.991 57.4062 159.1 58.5133 160.468 58.5133Z" fill="#3F3D56"/>
    <path d="M224 50.3535H184.122V50.8481H224V50.3535Z" fill="#3F3D56"/>
    <path d="M161.706 114.197C163.074 114.197 164.183 113.09 164.183 111.724C164.183 110.359 163.074 109.251 161.706 109.251C160.338 109.251 159.229 110.359 159.229 111.724C159.229 113.09 160.338 114.197 161.706 114.197Z" fill="#3F3D56"/>
    <path d="M224 77.6011H184.122V78.0956H224V77.6011Z" fill="#3F3D56"/>
    <path d="M224 105.238H184.122V105.732H224V105.238Z" fill="#3F3D56"/>
    <path d="M174.115 111.494H161.731V98.8828H170.152V99.3774H162.226V110.999H173.62V105.312H174.115V111.494Z" fill="#3F3D56"/>
    <path d="M174.115 83.7992H161.731V71.1885H170.152V71.683H162.226V83.3047H173.62V77.6175H174.115V83.7992Z" fill="#3F3D56"/>
    <path d="M174.115 55.6107H161.731V43H170.152V43.4945H162.226V55.1162H173.62V49.429H174.115V55.6107Z" fill="#3F3D56"/>
    <path d="M93.2561 87.9465C93.2561 87.9465 89.9463 101.898 93.9916 101.898C98.037 101.898 107.599 86.1108 107.599 86.1108L104.289 82.0723L98.3481 90.3063L98.037 86.1108L93.2561 87.9465Z" fill="#A0616A"/>
    <path d="M106.717 86.7171C108.495 86.7171 109.936 85.2779 109.936 83.5026C109.936 81.7273 108.495 80.2881 106.717 80.2881C104.938 80.2881 103.497 81.7273 103.497 83.5026C103.497 85.2779 104.938 86.7171 106.717 86.7171Z" fill="#A0616A"/>
    <path d="M90.4497 182.966L94.7355 182.966L96.7747 166.462L90.4487 166.462L90.4497 182.966Z" fill="#A0616A"/>
    <path d="M90.2985 187.43L103.479 187.43V187.263C103.479 185.905 102.938 184.602 101.976 183.642C101.014 182.681 99.7092 182.142 98.3487 182.142H98.3483L95.9408 180.318L91.4489 182.142L90.2983 182.142L90.2985 187.43Z" fill="#2F2E41"/>
    <path d="M44.3457 177.628L48.1807 179.538L57.3877 165.68L51.7276 162.86L44.3457 177.628Z" fill="#A0616A"/>
    <path d="M42.2139 181.554L54.0071 187.43L54.0815 187.281C54.689 186.065 54.7881 184.659 54.3569 183.371C53.9257 182.083 52.9996 181.018 51.7823 180.411L51.782 180.411L50.4435 177.706L45.6085 177.336L44.5791 176.823L42.2139 181.554Z" fill="#2F2E41"/>
    <path d="M141.145 187.446H0V188H141.145V187.446Z" fill="#CCCCCC"/>
    <path d="M62.7389 113.256C62.7389 113.256 61.026 133.816 60.6583 138.222C60.4061 140.984 59.7878 143.7 58.8195 146.299C58.8195 146.299 58.084 147.767 58.084 149.236L49.748 164.36C49.748 164.36 47.2008 166.229 47.5685 167.698C47.9363 169.166 46.0327 170.047 46.0327 170.047L54.8112 171.736C54.8112 171.736 54.4434 170.635 55.5467 170.268C56.65 169.901 57.5282 166.716 57.5282 166.716L69.8523 146.666L78.6785 128.309C78.6785 128.309 83.8272 144.83 84.9304 146.666C84.9304 146.666 88.9758 167.226 89.7113 169.061C90.4468 170.897 90.8146 170.897 90.4468 171.631C90.0791 172.366 90.0791 173.1 90.4468 173.467C90.8146 173.834 97.802 173.467 97.802 173.467L95.9632 147.4L92.6534 116.194L75.7364 111.054L62.7389 113.256Z" fill="#2F2E41"/>
    <path d="M79.3016 64.1742C83.5669 64.1742 87.0245 60.7223 87.0245 56.4643C87.0245 52.2062 83.5669 48.7544 79.3016 48.7544C75.0363 48.7544 71.5786 52.2062 71.5786 56.4643C71.5786 60.7223 75.0363 64.1742 79.3016 64.1742Z" fill="#A0616A"/>
    <path d="M93.3893 75.4412L84.1956 69.8805C84.1956 69.8805 83.9407 66.4274 81.3212 66.2649C80.0061 66.1834 78.0326 66.0587 75.0709 65.868C74.445 65.8277 74.0226 69.2463 73.3053 69.1999L63.6007 71.7699L65.0717 96.7352C65.0717 96.7352 62.8652 106.648 63.6007 108.484C64.3362 110.319 61.7619 111.054 62.4974 111.421C63.2329 111.788 62.4974 114.358 62.4974 114.358C62.4974 114.358 76.8401 121.701 92.6537 116.193L91.1827 111.421C91.3829 110.797 91.4204 110.132 91.2917 109.49C91.163 108.847 90.8723 108.248 90.4472 107.749C90.4472 107.749 91.9182 105.546 90.0794 103.711C90.0794 103.711 90.8149 100.407 88.9761 98.938L88.6084 93.7981L89.7116 91.2281L93.3893 75.4412Z" fill="#E6E6E6"/>
    <path d="M72.6001 60.8685L72.3842 60.3679C72.3564 60.3032 69.6252 53.8576 72.0461 49.8817C73.1667 48.0411 75.2045 47.0019 78.1025 46.7932C82.637 46.4659 85.7404 47.5397 87.3291 49.9826C87.5955 50.3966 87.7452 50.8747 87.7626 51.3664C87.7799 51.8582 87.6642 52.3455 87.4276 52.7772C87.191 53.2089 86.8422 53.569 86.4181 53.8195C85.9939 54.0701 85.5099 54.202 85.017 54.2013H84.956L84.1228 53.1213L84.0743 53.2263C83.7727 53.8778 83.08 54.2345 82.2686 54.1564C82.1306 54.1465 82.0083 54.2654 81.9101 54.5199C81.8771 54.6312 81.8146 54.7316 81.7293 54.8106C81.644 54.8895 81.5389 54.944 81.4252 54.9685C80.8257 55.085 79.9712 54.3311 79.5886 53.9554C79.5739 54.0418 79.5407 54.1241 79.4913 54.1967C79.442 54.2693 79.3776 54.3304 79.3025 54.376C78.8994 54.6082 78.2721 54.3049 78.092 54.2083C76.6575 54.5126 75.7289 54.4312 75.3311 53.9667C75.0614 55.8716 74.4826 59.3003 73.7885 59.4903C73.716 59.507 73.64 59.4999 73.5718 59.4701C73.5036 59.4403 73.4467 59.3895 73.4097 59.325C73.2426 59.1084 73.0932 59.0005 73 59.0308C72.7742 59.1025 72.6409 59.8448 72.6218 60.3239L72.6001 60.8685Z" fill="#2F2E41"/>
    <path d="M89.3435 75.8084L93.0121 75.2134C95.6548 77.7482 97.455 81.0313 98.1698 84.6197C99.2731 90.4939 99.6408 91.5953 99.6408 91.5953L90.8146 93.7981L86.0337 84.6197L89.3435 75.8084Z" fill="#E6E6E6"/>
    <path d="M73.065 83.449L70.7979 112.141L128.654 116.697L130.921 88.0052L73.065 83.449Z" fill="white"/>
    <path d="M79.2459 85.6719C77.83 84.6625 76.0324 84.5895 75.3457 84.604C75.5552 85.2569 76.2063 86.9312 77.6221 87.9411C79.0414 88.953 80.8368 89.0237 81.5225 89.0096C81.3131 88.357 80.662 86.682 79.2459 85.6719Z" fill="#FAC213"/>
    <path d="M84.8315 103.929L75.5414 103.197C75.2669 103.176 74.9909 103.208 74.729 103.293C74.4671 103.378 74.2245 103.514 74.0151 103.692C73.8057 103.871 73.6335 104.089 73.5085 104.333C73.3834 104.578 73.3079 104.845 73.2863 105.12C73.2646 105.394 73.2973 105.669 73.3823 105.931C73.4673 106.192 73.6031 106.434 73.7819 106.643C73.9607 106.852 74.179 107.024 74.4243 107.149C74.6696 107.274 74.9372 107.349 75.2117 107.371V107.371L84.5017 108.102C85.0561 108.146 85.6051 107.968 86.028 107.608C86.451 107.247 86.7131 106.734 86.7569 106.18C86.8006 105.627 86.6223 105.079 86.2612 104.657C85.9002 104.234 85.3859 103.973 84.8315 103.929V103.929Z" fill="#FAC213"/>
    <path d="M128.64 85.2161L76.554 81.1139C75.9482 81.0662 75.3389 81.1382 74.7609 81.3257C74.1829 81.5131 73.6476 81.8124 73.1855 82.2064C72.7234 82.6004 72.3435 83.0814 72.0676 83.6219C71.7917 84.1625 71.6252 84.752 71.5775 85.3568L69.5743 110.69C69.478 111.911 69.8717 113.121 70.6689 114.054C71.466 114.986 72.6012 115.564 73.8251 115.66L125.911 119.762C126.517 119.81 127.127 119.738 127.705 119.551C128.283 119.363 128.818 119.064 129.28 118.67C129.742 118.276 130.122 117.795 130.398 117.254C130.674 116.714 130.84 116.124 130.888 115.519L132.792 91.4415L132.83 90.9496L132.891 90.1841C132.938 89.5793 132.866 88.9711 132.678 88.3941C132.491 87.8171 132.191 87.2827 131.796 86.8213C131.402 86.36 130.92 85.9808 130.378 85.7054C129.837 85.4299 129.246 85.2637 128.64 85.2161V85.2161ZM127.102 107.257L126.772 111.431C126.712 112.168 126.362 112.851 125.798 113.331C125.235 113.811 124.504 114.049 123.765 113.993L116.797 113.444C116.058 113.384 115.374 113.035 114.893 112.472C114.412 111.909 114.174 111.18 114.23 110.442L114.56 106.269C114.621 105.532 114.971 104.848 115.535 104.368C116.098 103.888 116.829 103.651 117.568 103.707L124.534 104.255C125.272 104.316 125.956 104.665 126.438 105.228C126.919 105.79 127.158 106.52 127.102 107.257V107.257ZM72.8255 105.081C72.8795 104.406 73.1997 103.779 73.7158 103.339C74.2319 102.899 74.9017 102.682 75.5783 102.734L84.8681 103.466C85.2036 103.492 85.5308 103.584 85.8309 103.736C86.131 103.888 86.3981 104.098 86.617 104.353C86.8359 104.608 87.0022 104.904 87.1065 105.223C87.2108 105.543 87.251 105.88 87.2248 106.215C87.1986 106.55 87.1066 106.876 86.9539 107.176C86.8013 107.475 86.591 107.742 86.3351 107.96C86.0792 108.178 85.7828 108.344 85.4627 108.448C85.1426 108.552 84.8051 108.592 84.4696 108.565L84.4648 108.567L75.1751 107.834C74.8396 107.808 74.5126 107.716 74.2128 107.563C73.9131 107.41 73.6465 107.2 73.4282 106.944C73.21 106.688 73.0444 106.392 72.941 106.072C72.8376 105.753 72.7983 105.416 72.8255 105.081V105.081ZM74.8142 84.4384L74.7507 84.179L75.0179 84.1545C75.1224 84.1433 77.5936 83.9218 79.5172 85.2936C81.4408 86.6653 82.0307 89.0721 82.0563 89.1727L82.1174 89.4328L81.8508 89.4596C81.4723 89.4877 81.0922 89.4852 80.7142 89.4521C79.5115 89.3818 78.35 88.9902 77.3509 88.3182C75.4273 86.9464 74.8374 84.5397 74.8142 84.4384V84.4384Z" fill="#FAC213"/>
    <path d="M119.287 110.025L116.268 109.788C116.053 109.771 115.84 109.84 115.676 109.981C115.511 110.121 115.41 110.32 115.393 110.535C115.376 110.75 115.445 110.963 115.585 111.127C115.725 111.291 115.925 111.393 116.14 111.411L119.159 111.648C119.375 111.665 119.588 111.596 119.752 111.455C119.916 111.315 120.018 111.116 120.035 110.901C120.052 110.686 119.983 110.473 119.843 110.309C119.702 110.145 119.503 110.043 119.287 110.025V110.025Z" fill="#FAC213"/>
    <path d="M124.862 110.464L121.842 110.226C121.627 110.21 121.414 110.28 121.25 110.42C121.086 110.56 120.984 110.759 120.967 110.974C120.95 111.189 121.019 111.402 121.159 111.566C121.299 111.73 121.499 111.832 121.714 111.849L124.733 112.087C124.949 112.104 125.162 112.034 125.326 111.894C125.49 111.754 125.591 111.554 125.608 111.34C125.625 111.125 125.556 110.912 125.416 110.748C125.276 110.584 125.077 110.482 124.862 110.464V110.464Z" fill="#FAC213"/>
    <path d="M119.452 107.938L116.433 107.701C116.218 107.684 116.005 107.754 115.841 107.894C115.677 108.034 115.575 108.233 115.558 108.448C115.541 108.663 115.61 108.876 115.75 109.04C115.89 109.204 116.09 109.306 116.305 109.324L119.324 109.561C119.54 109.578 119.753 109.509 119.917 109.368C120.081 109.228 120.183 109.029 120.2 108.814C120.217 108.599 120.148 108.386 120.008 108.222C119.867 108.058 119.668 107.956 119.452 107.938V107.938Z" fill="#FAC213"/>
    <path d="M125.027 108.377L122.007 108.14C121.792 108.123 121.579 108.192 121.415 108.333C121.251 108.473 121.149 108.672 121.132 108.887C121.115 109.102 121.184 109.315 121.324 109.479C121.464 109.643 121.664 109.745 121.879 109.763L124.898 110C125.114 110.017 125.327 109.948 125.491 109.807C125.655 109.667 125.757 109.468 125.774 109.253C125.791 109.038 125.722 108.825 125.582 108.661C125.442 108.497 125.242 108.395 125.027 108.377V108.377Z" fill="#FAC213"/>
    <path d="M119.618 105.852L116.598 105.614C116.383 105.597 116.17 105.667 116.006 105.807C115.841 105.947 115.74 106.146 115.723 106.361C115.706 106.576 115.775 106.789 115.915 106.953C116.055 107.118 116.255 107.219 116.47 107.237L119.489 107.475C119.705 107.491 119.918 107.421 120.082 107.281C120.246 107.141 120.347 106.942 120.364 106.727C120.381 106.512 120.312 106.299 120.172 106.135C120.032 105.971 119.833 105.869 119.618 105.852V105.852Z" fill="#FAC213"/>
    <path d="M125.191 106.29L122.172 106.053C121.957 106.036 121.744 106.106 121.58 106.246C121.416 106.386 121.314 106.585 121.297 106.8C121.28 107.015 121.349 107.228 121.489 107.392C121.629 107.556 121.829 107.658 122.044 107.676L125.063 107.913C125.278 107.93 125.491 107.86 125.655 107.72C125.819 107.58 125.921 107.381 125.938 107.166C125.955 106.951 125.886 106.738 125.746 106.574C125.606 106.41 125.406 106.308 125.191 106.29V106.29Z" fill="#FAC213"/>
    <path d="M70.8035 93.3501L70.7646 93.8433L131.907 98.6382L131.946 98.145L70.8035 93.3501Z" fill="white"/>
    <path d="M132.83 90.9499L132.792 91.442L130.664 91.2753L107.992 89.4974L108.033 89.0049L130.702 90.7832L132.83 90.9499Z" fill="#3F3D56"/>
    <path d="M58.0842 85.7209C58.0842 85.7209 54.7744 99.6721 58.8197 99.6721C62.8651 99.6721 72.4269 83.8852 72.4269 83.8852L69.117 79.8467L63.1762 88.0807L62.8651 83.8852L58.0842 85.7209Z" fill="#A0616A"/>
    <path d="M71.5447 84.492C73.323 84.492 74.7646 83.0528 74.7646 81.2775C74.7646 79.5022 73.323 78.063 71.5447 78.063C69.7663 78.063 68.3247 79.5022 68.3247 81.2775C68.3247 83.0528 69.7663 84.492 71.5447 84.492Z" fill="#A0616A"/>
    <path d="M66.2795 73.9728L64.0729 71.77C64.0729 71.77 59.6598 74.34 59.292 76.9099C58.9242 79.4799 57.0854 87.5569 57.0854 87.5569L63.889 88.1076L66.0956 84.8034L66.2795 73.9728Z" fill="#E6E6E6"/>
    </g>
    <defs>
    <clipPath id="clip0_0_1">
    <rect width="224" height="145" fill="white" transform="translate(0 43)"/>
    </clipPath>
    </defs>
    </svg>
    