<svg width="201" height="201" viewBox="0 0 201 201" fill="none" xmlns="http://www.w3.org/2000/svg">
    <circle cx="129" cy="72" r="72" fill="#F2FDFF"/>
    <circle cx="86.5" cy="114.5" r="86.5" fill="#43919B" fill-opacity="0.5"/>
    <g clip-path="url(#clip0_0_1)">
    <path d="M87.4353 161.017C87.7405 161.18 88.0885 161.245 88.4321 161.204C88.7757 161.163 89.0983 161.017 89.3562 160.787C89.6141 160.556 89.7948 160.253 89.8739 159.917C89.953 159.58 89.9266 159.228 89.7983 158.907C89.8326 158.737 89.8573 158.614 89.8917 158.444C90.552 157.829 91.3813 157.425 92.2733 157.283C93.1653 157.141 94.0794 157.269 94.8984 157.649C95.7173 158.029 96.4039 158.644 96.87 159.416C97.3361 160.188 97.5605 161.081 97.5145 161.981C97.3055 167.057 97.5568 172.534 94.1755 176.626C109.608 164.044 116.645 142.609 111.932 123.331C109.619 120.116 108.54 115.845 109.578 111.974C110.879 113.237 113.416 112.898 113.028 110.712C112.82 109.848 112.605 108.987 112.397 108.123C121.286 104.662 123.606 117.848 113.077 123.217C113.931 126.883 114.399 130.627 114.473 134.389C115.662 130.997 117.64 127.934 120.247 125.454C122.77 123.187 126.107 121.854 129.211 120.333C132.988 118.478 137.18 122.156 135.693 126.083C133.178 125.762 131.399 128.761 133.681 130.372C129.673 137.088 121.989 141.356 114.182 141.424C113.392 149.086 110.975 156.493 107.091 163.15C112.078 155.583 121.73 157.761 129.358 157.439C129.864 157.375 130.378 157.46 130.837 157.683C131.295 157.905 131.679 158.256 131.941 158.693C132.204 159.13 132.333 159.633 132.313 160.141C132.293 160.65 132.126 161.142 131.831 161.557C130.827 161.498 129.82 161.539 128.825 161.679C128.357 161.748 127.922 161.96 127.579 162.286C127.236 162.612 127.003 163.035 126.911 163.498C126.819 163.962 126.873 164.442 127.065 164.873C127.257 165.305 127.579 165.666 127.985 165.908C121.294 172.029 110.925 173.345 102.787 169.439C100.381 172.463 97.6669 175.229 94.6878 177.693L82.5894 171.939C82.61 171.784 82.6372 171.627 82.6622 171.474C83.7485 172.077 84.9047 172.545 86.105 172.867C84.8143 167.958 83.3761 165.083 87.4348 161.017H87.4353Z" fill="#F2F2F2"/>
    <path d="M66.0569 149.404C65.8357 149.67 65.538 149.861 65.2043 149.952C64.8705 150.043 64.5167 150.03 64.1908 149.914C63.8649 149.797 63.5826 149.584 63.3823 149.303C63.182 149.021 63.0733 148.685 63.0709 148.339C62.9745 148.194 62.9053 148.09 62.809 147.945C61.965 147.624 61.0442 147.562 60.1645 147.766C59.2848 147.971 58.4865 148.433 57.8717 149.093C57.2569 149.754 56.8538 150.582 56.7139 151.472C56.5741 152.362 56.7039 153.274 57.0867 154.09C59.1992 158.713 61.0372 163.88 65.7157 166.397C46.6663 160.552 32.046 143.349 29.1223 123.721C30.0486 119.873 29.4329 115.512 27.0092 112.317C26.2814 113.977 23.8037 114.617 23.3362 112.447C23.2022 111.568 23.0759 110.689 22.9418 109.811C13.4015 109.951 16.2375 123.037 28.0185 124.047C28.6131 127.763 29.5954 131.406 30.9494 134.919C28.5661 132.224 25.5756 130.133 22.2241 128.816C19.0302 127.667 15.4361 127.688 11.9864 127.448C7.78672 127.151 5.29507 132.135 8.15703 135.212C10.3643 133.969 13.1458 136.076 11.6418 138.427C17.8921 143.138 26.6224 144.199 33.8787 141.324C37.5068 148.123 42.5457 154.073 48.6596 158.776C41.1798 153.645 33.0643 159.296 25.8779 161.868C25.3852 161.999 24.9414 162.271 24.6008 162.65C24.2601 163.029 24.0374 163.498 23.9597 164.001C23.8819 164.504 23.9526 165.019 24.1631 165.483C24.3736 165.946 24.7147 166.339 25.1449 166.612C26.0521 166.18 27 165.839 27.9747 165.594C28.4345 165.482 28.9177 165.514 29.3582 165.687C29.7987 165.86 30.1749 166.164 30.4352 166.559C30.6956 166.953 30.8273 167.418 30.8123 167.89C30.7973 168.362 30.6364 168.818 30.3516 169.195C38.8626 172.345 48.9627 169.661 55.0228 162.982C58.3942 164.876 61.9539 166.417 65.6445 167.577L74.6738 157.695C74.5962 157.56 74.5116 157.424 74.4307 157.292C73.6526 158.26 72.7587 159.128 71.769 159.878C71.1084 154.846 71.3533 151.642 66.0572 149.404L66.0569 149.404Z" fill="#F2F2F2"/>
    <path d="M68.381 107.647C68.7253 107.612 69.0506 107.472 69.3128 107.247C69.575 107.022 69.7615 106.721 69.8469 106.387C69.9323 106.052 69.9126 105.699 69.7904 105.376C69.6682 105.053 69.4494 104.776 69.1637 104.581C69.0969 104.42 69.0489 104.305 68.9821 104.144C69.1866 103.266 69.6492 102.469 70.3106 101.855C70.9719 101.242 71.8019 100.839 72.6942 100.699C73.5864 100.559 74.5003 100.688 75.3186 101.069C76.1369 101.451 76.8224 102.067 77.2871 102.84C79.9501 107.17 83.2193 111.577 82.699 116.855C88.479 97.8248 82.3425 76.1167 67.6571 62.7346C63.9407 61.3521 60.6584 58.4066 59.3564 54.6166C61.1425 54.941 63.0588 53.2482 61.5154 51.649C60.8599 51.0475 60.1999 50.4521 59.5445 49.8506C64.9894 42.0331 74.2848 51.6889 68.5445 62.003C71.3017 64.5705 73.7824 67.4185 75.946 70.5006C75.037 67.0233 74.9684 63.3803 75.7459 59.8713C76.5739 56.5858 78.5989 53.6231 80.3259 50.6339C82.4246 46.9923 87.9602 47.7141 88.92 51.8013C86.6534 52.9336 86.8521 56.4126 89.6467 56.481C90.0725 64.285 86.0785 72.103 79.6351 76.5025C83.2616 83.3026 85.3937 90.7959 85.8894 98.4828C85.8013 89.4267 95.0314 85.8659 101.184 81.3549C101.568 81.0205 102.042 80.805 102.547 80.7347C103.052 80.6644 103.567 80.7423 104.029 80.9589C104.49 81.1755 104.879 81.5215 105.147 81.9546C105.415 82.3877 105.55 82.8893 105.537 83.3981C104.672 83.9075 103.859 84.5015 103.11 85.1713C102.76 85.4892 102.518 85.9074 102.415 86.3684C102.313 86.8294 102.356 87.3107 102.538 87.7465C102.721 88.1822 103.034 88.5509 103.434 88.8021C103.835 89.0533 104.304 89.1747 104.777 89.1497C102.642 97.9528 94.7696 104.813 85.8317 106.098C85.5241 109.946 84.8165 113.753 83.7203 117.455L70.4614 119.409C70.3921 119.269 70.3269 119.123 70.2623 118.983C71.501 118.879 72.7223 118.624 73.8988 118.224C70.0842 114.867 67.2834 113.28 68.3806 107.647L68.381 107.647Z" fill="#F2F2F2"/>
    <path d="M81.7157 103.405C75.6795 103.405 72.4054 102.669 71.262 101.098C70.253 99.7119 70.9294 97.883 71.7127 95.7654C72.2756 94.2433 72.9135 92.5182 72.9135 90.8109C72.9135 82.5066 77.1338 78.2959 85.4569 78.2959C89.598 78.2959 94.0444 80.4907 97.351 84.1672C100.357 87.5095 101.855 91.5096 101.46 95.1418C101.136 98.1207 99.746 100.08 97.0862 101.307L96.9306 101.379L96.8864 101.214C96.6567 100.359 96.268 99.5545 95.7404 98.8429C95.6891 99.96 95.4068 101.054 94.9114 102.057L94.8831 102.115L94.8217 102.132C91.8113 102.988 88.2386 103.219 85.4624 103.326C84.1111 103.378 82.8623 103.405 81.7157 103.405Z" fill="#2F2E41"/>
    <path d="M83.3611 114.975C83.1297 114.297 82.7395 113.683 82.2228 113.185C81.7062 112.687 81.0779 112.319 80.3902 112.112C79.7025 111.905 78.9753 111.865 78.2687 111.994C77.5622 112.123 76.8967 112.419 76.3276 112.856L56.4727 124.7L50.2597 109.575C50.7846 108.807 51.0521 107.892 51.0239 106.963C50.9957 106.034 50.6733 105.137 50.1029 104.402C49.5325 103.667 48.7433 103.131 47.8487 102.871C46.954 102.611 45.9998 102.64 45.1229 102.955C44.246 103.269 43.4915 103.853 42.9675 104.622C42.4435 105.39 42.177 106.305 42.2063 107.234C42.2355 108.164 42.5589 109.06 43.1302 109.794C43.7015 110.529 44.4912 111.064 45.3861 111.323C45.7691 115.685 47.8972 135.179 55.3006 134.471C61.5236 133.875 76.9777 123.606 81.7777 120.046C82.5457 119.477 83.1127 118.679 83.3973 117.768C83.6818 116.857 83.6691 115.879 83.3611 114.975Z" fill="#FFB6B6"/>
    <path d="M98.3234 201H81.0424L78.1445 186.704L77.2045 201H61.1519C61.158 189.773 61.7442 178.555 62.9079 167.388L63.1069 166.712L63.4212 165.63L63.6202 164.951L66.942 153.57L67.2044 152.667H87.2074C88.3585 153.745 89.4202 154.915 90.3822 156.165C90.708 156.579 91.0483 157.028 91.3972 157.511C91.6394 157.854 91.8903 158.213 92.1411 158.59C94.37 161.901 96.036 165.556 97.072 169.408V169.411C97.2479 170.069 97.4036 170.744 97.5391 171.433V171.436C97.6602 172.049 97.7669 172.67 97.8505 173.306C97.914 173.769 97.9688 174.238 98.0091 174.713C98.2495 177.343 98.1652 179.992 97.7582 182.602L98.3234 201Z" fill="#2F2E41"/>
    <path d="M6.69969 70.2811C7.82196 69.8476 8.48676 68.8648 8.18454 68.0859C7.88233 67.3069 6.72756 67.0268 5.60529 67.4603C4.48302 67.8937 3.81823 68.8766 4.12045 69.6555C4.42266 70.4345 5.57742 70.7145 6.69969 70.2811Z" fill="#E6E6E6"/>
    <path d="M20.8301 68.4725C21.9523 68.0391 22.6171 67.0562 22.3149 66.2773C22.0127 65.4983 20.8579 65.2183 19.7357 65.6517C18.6134 66.0851 17.9486 67.068 18.2508 67.8469C18.553 68.6259 19.7078 68.9059 20.8301 68.4725Z" fill="#3F3D56"/>
    <path d="M5.47412 82.3089C6.59639 81.8755 7.26118 80.8926 6.95897 80.1137C6.65675 79.3348 5.50198 79.0547 4.37971 79.4881C3.25744 79.9216 2.59265 80.9044 2.89486 81.6833C3.19707 82.4623 4.35185 82.7424 5.47412 82.3089Z" fill="#FF6584"/>
    <path d="M1.38644 87.6146C1.9013 87.493 2.17667 86.7958 2.00149 86.0574C1.82632 85.319 1.26692 84.8189 0.752061 84.9405C0.2372 85.0621 -0.0381651 85.7593 0.137013 86.4977C0.312192 87.2361 0.871578 87.7362 1.38644 87.6146Z" fill="#E6E6E6"/>
    <path d="M1.30197 96.5975C1.81683 96.4759 2.09219 95.7787 1.91701 95.0403C1.74184 94.3019 1.18245 93.8018 0.667588 93.9234C0.152727 94.045 -0.122638 94.7422 0.0525406 95.4806C0.227719 96.2191 0.787105 96.7191 1.30197 96.5975Z" fill="#3F3D56"/>
    <path d="M13.7038 77.992C14.2187 77.8705 14.494 77.1733 14.3189 76.4348C14.1437 75.6964 13.5843 75.1963 13.0694 75.3179C12.5546 75.4395 12.2792 76.1367 12.4544 76.8751C12.6296 77.6136 13.189 78.1136 13.7038 77.992Z" fill="#E6E6E6"/>
    <path d="M6.26193 76.1893C6.77679 76.0677 7.05215 75.3705 6.87697 74.6321C6.7018 73.8937 6.14241 73.3936 5.62755 73.5152C5.11269 73.6368 4.83732 74.334 5.0125 75.0724C5.18768 75.8109 5.74707 76.3109 6.26193 76.1893Z" fill="#FF6584"/>
    <path d="M14.1501 67.9173C14.665 67.7958 14.9403 67.0986 14.7652 66.3601C14.59 65.6217 14.0306 65.1216 13.5157 65.2432C13.0009 65.3648 12.7255 66.062 12.9007 66.8004C13.0759 67.5389 13.6352 68.0389 14.1501 67.9173Z" fill="#3F3D56"/>
    <path d="M17.8186 130.089C18.3613 129.453 18.0583 128.306 17.1419 127.528C16.2255 126.749 15.0427 126.634 14.5001 127.27C13.9575 127.906 14.2605 129.053 15.1768 129.831C16.0932 130.609 17.276 130.725 17.8186 130.089Z" fill="#E6E6E6"/>
    <path d="M9.49637 118.552C10.039 117.916 9.73602 116.77 8.81963 115.992C7.90324 115.213 6.72047 115.098 6.17784 115.734C5.6352 116.37 5.93819 117.517 6.85458 118.295C7.77097 119.073 8.95374 119.188 9.49637 118.552Z" fill="#3F3D56"/>
    <path d="M29.0032 125.437C29.5458 124.801 29.2429 123.654 28.3265 122.876C27.4101 122.098 26.2273 121.982 25.6847 122.618C25.142 123.254 25.445 124.401 26.3614 125.179C27.2778 125.957 28.4606 126.073 29.0032 125.437Z" fill="#FF6584"/>
    <path d="M34.5596 125.564C35.127 125.059 35.3014 124.33 34.9491 123.936C34.5968 123.542 33.8512 123.633 33.2838 124.138C32.7163 124.643 32.542 125.372 32.8943 125.766C33.2466 126.16 33.9922 126.069 34.5596 125.564Z" fill="#E6E6E6"/>
    <path d="M42.5166 121.361C43.084 120.856 43.2584 120.127 42.9061 119.733C42.5538 119.339 41.8082 119.429 41.2408 119.935C40.6734 120.44 40.499 121.169 40.8513 121.563C41.2036 121.957 41.9492 121.866 42.5166 121.361Z" fill="#3F3D56"/>
    <path d="M20.2134 119.339C20.7808 118.834 20.9552 118.105 20.6029 117.711C20.2506 117.317 19.505 117.407 18.9376 117.913C18.3701 118.418 18.1958 119.147 18.5481 119.541C18.9004 119.935 19.646 119.844 20.2134 119.339Z" fill="#E6E6E6"/>
    <path d="M22.168 126.727C22.7354 126.221 22.9098 125.492 22.5575 125.099C22.2052 124.705 21.4596 124.795 20.8922 125.3C20.3247 125.806 20.1504 126.535 20.5027 126.928C20.855 127.322 21.6006 127.232 22.168 126.727Z" fill="#FF6584"/>
    <path d="M11.1216 123.745C11.689 123.239 11.8634 122.51 11.5111 122.117C11.1588 121.723 10.4132 121.813 9.84576 122.318C9.27835 122.824 9.10396 123.553 9.45627 123.946C9.80859 124.34 10.5542 124.25 11.1216 123.745Z" fill="#3F3D56"/>
    <path d="M73.7263 56.0981C74.4776 55.7295 74.656 54.5572 74.1249 53.4798C73.5938 52.4023 72.5543 51.8277 71.8031 52.1963C71.0519 52.5649 70.8734 53.7372 71.4045 54.8147C71.9356 55.8921 72.9751 56.4667 73.7263 56.0981Z" fill="#E6E6E6"/>
    <path d="M76.7698 69.9834C77.521 69.6147 77.6995 68.4425 77.1684 67.365C76.6373 66.2876 75.5978 65.713 74.8465 66.0816C74.0953 66.4502 73.9169 67.6225 74.448 68.6999C74.979 69.7774 76.0186 70.352 76.7698 69.9834Z" fill="#3F3D56"/>
    <path d="M61.6096 55.934C62.3609 55.5654 62.5393 54.3932 62.0082 53.3157C61.4771 52.2383 60.4376 51.6636 59.6864 52.0323C58.9352 52.4009 58.7567 53.5732 59.2878 54.6506C59.8189 55.728 60.8584 56.3027 61.6096 55.934Z" fill="#FF6584"/>
    <path d="M55.2412 51.5271C55.9631 51.2883 56.4133 50.6885 56.2468 50.1875C56.0803 49.6864 55.3601 49.4738 54.6382 49.7126C53.9163 49.9514 53.466 50.5512 53.6325 51.0523C53.799 51.5533 54.5193 51.7659 55.2412 51.5271Z" fill="#E6E6E6"/>
    <path d="M46.2651 52.2308C46.987 51.9919 47.4373 51.3922 47.2707 50.8911C47.1042 50.39 46.384 50.1774 45.6621 50.4162C44.9402 50.655 44.49 51.2548 44.6565 51.7559C44.823 52.257 45.5432 52.4696 46.2651 52.2308Z" fill="#3F3D56"/>
    <path d="M65.9277 62.9266C66.6496 62.6877 67.0999 62.088 66.9334 61.5869C66.7669 61.0858 66.0466 60.8732 65.3247 61.112C64.6028 61.3508 64.1526 61.9506 64.3191 62.4517C64.4856 62.9528 65.2058 63.1654 65.9277 62.9266Z" fill="#E6E6E6"/>
    <path d="M67.0756 55.3719C67.7976 55.133 68.2478 54.5333 68.0813 54.0322C67.9148 53.5311 67.1946 53.3185 66.4727 53.5573C65.7508 53.7962 65.3005 54.3959 65.467 54.897C65.6335 55.3981 66.3537 55.6107 67.0756 55.3719Z" fill="#FF6584"/>
    <path d="M76.0254 62.4871C76.7473 62.2483 77.1975 61.6485 77.031 61.1474C76.8645 60.6464 76.1443 60.4338 75.4224 60.6726C74.7005 60.9114 74.2502 61.5112 74.4167 62.0122C74.5832 62.5133 75.3034 62.7259 76.0254 62.4871Z" fill="#3F3D56"/>
    <path d="M78.7964 105.717L88.3167 105.228L92.7386 112.199C92.7386 112.199 101.059 113.587 100.482 123.369C99.9051 133.15 90.3589 141.734 90.3589 141.734L90.767 146.828L90.0583 148.848L90.1492 149.983L91.116 151.184L91.2155 152.427L90.3589 154.393L91.5238 156.275L67.0329 153.908L66.1373 150.653L67.4437 148.905L66.714 146.625L67.8111 144.432L68.3831 137.466C68.3831 137.466 62.1247 128.085 69.3092 121.019L72.1927 116.129L75.4191 112.201L78.7964 105.717Z" fill="#FAC213"/>
    <path d="M83.5292 103.748C89.1006 103.748 93.617 99.2419 93.617 93.6831C93.617 88.1244 89.1006 83.6182 83.5292 83.6182C77.9579 83.6182 73.4414 88.1244 73.4414 93.6831C73.4414 99.2419 77.9579 103.748 83.5292 103.748Z" fill="#FFB6B6"/>
    <path d="M82.1786 93.0731C81.3093 93.0731 80.4405 93.0487 79.5721 92.9998L79.417 92.9911L79.4374 92.8374C79.5653 91.8767 79.4933 90.9 79.2259 89.9683C78.7718 91.0291 78.0961 91.9812 77.2441 92.761L77.1959 92.8049L77.1311 92.7979C74.7728 92.5405 72.436 92.1153 70.1384 91.5255L70.0504 91.503L70.0328 91.4142C69.8613 90.5735 69.7724 89.718 69.7676 88.86C69.7676 86.1798 70.7415 83.924 72.51 82.5081C74.4349 80.967 77.1942 80.493 80.2823 81.1728H90.157C91.2426 81.174 92.2834 81.6048 93.051 82.3707C93.8187 83.1366 94.2505 84.175 94.2517 85.2582V91.4972L94.144 91.5253C90.2382 92.5495 86.2169 93.0696 82.1786 93.0731Z" fill="#2F2E41"/>
    <path d="M13.3451 81.8776C12.903 82.0389 12.5432 82.3686 12.3444 82.7943C12.1457 83.22 12.1243 83.707 12.285 84.1484L22.9377 113.312C23.0993 113.753 23.4298 114.112 23.8564 114.311C24.2831 114.509 24.7712 114.53 25.2136 114.37L66.5585 99.3362C67.0006 99.1749 67.3604 98.8452 67.5592 98.4195C67.7579 97.9938 67.7793 97.5068 67.6186 97.0654L56.9659 67.9016C56.8042 67.4605 56.4738 67.1014 56.0472 66.9031C55.6205 66.7048 55.1324 66.6835 54.69 66.8438L13.3451 81.8776Z" fill="#CCCCCC"/>
    <path d="M51.1709 103.324L25.8635 112.526C25.3874 112.699 24.8621 112.676 24.4028 112.462C23.9436 112.249 23.588 111.862 23.414 111.388L13.7521 84.9363C13.5792 84.4612 13.6022 83.9371 13.8161 83.4789C14.03 83.0207 14.4173 82.6659 14.8931 82.4923L53.9017 68.308C54.3779 68.1355 54.9032 68.1584 55.3624 68.3718C55.8216 68.5853 56.1773 68.9717 56.3512 69.4464L61.0198 82.2275C62.5125 86.3284 62.3138 90.8526 60.4674 94.8075C58.6211 98.7625 55.2777 101.825 51.1709 103.324Z" fill="white"/>
    <path d="M32.9609 84.2146L26.947 86.4014C26.8716 86.4288 26.7915 86.4411 26.7113 86.4377C26.6311 86.4342 26.5524 86.415 26.4796 86.3812C26.4069 86.3474 26.3415 86.2996 26.2872 86.2406C26.233 86.1816 26.1909 86.1124 26.1634 86.0372C26.1359 85.962 26.1236 85.882 26.127 85.802C26.1305 85.722 26.1497 85.6435 26.1836 85.5709C26.2175 85.4983 26.2654 85.433 26.3246 85.3789C26.3837 85.3248 26.453 85.2828 26.5284 85.2554L32.5423 83.0686C32.6946 83.0132 32.8627 83.0205 33.0097 83.0888C33.1566 83.1571 33.2704 83.2808 33.3259 83.4328C33.3814 83.5847 33.3741 83.7525 33.3057 83.8991C33.2372 84.0457 33.1132 84.1592 32.9609 84.2146H32.9609Z" fill="#FAC213"/>
    <path d="M47.2982 81.6565L27.8032 88.7453C27.7277 88.7728 27.6476 88.7852 27.5673 88.7819C27.4871 88.7785 27.4083 88.7593 27.3354 88.7255C27.2626 88.6917 27.1971 88.6439 27.1428 88.5849C27.0885 88.5258 27.0464 88.4567 27.0189 88.3814C26.9914 88.3061 26.979 88.2261 26.9825 88.146C26.986 88.0659 27.0053 87.9873 27.0393 87.9147C27.0732 87.842 27.1212 87.7768 27.1805 87.7227C27.2397 87.6686 27.3091 87.6266 27.3846 87.5993L46.8796 80.5105C46.9551 80.4831 47.0351 80.4707 47.1153 80.4742C47.1955 80.4777 47.2743 80.4968 47.347 80.5307C47.4198 80.5645 47.4852 80.6123 47.5394 80.6713C47.5937 80.7303 47.6358 80.7994 47.6632 80.8747C47.6907 80.9499 47.7031 81.0298 47.6996 81.1099C47.6961 81.1899 47.6769 81.2684 47.643 81.341C47.6091 81.4136 47.5612 81.4788 47.5021 81.533C47.4429 81.5871 47.3737 81.6291 47.2982 81.6565Z" fill="#FAC213"/>
    <path d="M48.2804 84.3467L28.7854 91.4355C28.71 91.4629 28.6299 91.4752 28.5497 91.4718C28.4695 91.4683 28.3908 91.4491 28.318 91.4153C28.2452 91.3815 28.1799 91.3337 28.1256 91.2747C28.0714 91.2156 28.0293 91.1465 28.0018 91.0713C27.9743 90.996 27.9619 90.9161 27.9654 90.8361C27.9689 90.7561 27.9881 90.6775 28.022 90.6049C28.0559 90.5323 28.1038 90.4671 28.163 90.413C28.2221 90.3588 28.2914 90.3169 28.3668 90.2894L47.8618 83.2007C48.0141 83.1455 48.1821 83.1529 48.3289 83.2213C48.4757 83.2896 48.5893 83.4133 48.6447 83.5651C48.7002 83.7169 48.693 83.8846 48.6247 84.0311C48.5564 84.1777 48.4326 84.2911 48.2804 84.3467Z" fill="#FAC213"/>
    <path d="M49.2631 87.0364L29.768 94.1252C29.6926 94.1527 29.6124 94.1651 29.5322 94.1617C29.4519 94.1584 29.3731 94.1392 29.3003 94.1054C29.2274 94.0716 29.162 94.0238 29.1077 93.9648C29.0533 93.9057 29.0112 93.8365 28.9837 93.7612C28.9562 93.6859 28.9439 93.606 28.9474 93.5259C28.9509 93.4458 28.9701 93.3672 29.0041 93.2946C29.0381 93.2219 29.086 93.1567 29.1453 93.1026C29.2046 93.0485 29.2739 93.0065 29.3494 92.9792L48.8445 85.8904C48.9199 85.863 49 85.8506 49.0802 85.8541C49.1604 85.8575 49.2391 85.8767 49.3119 85.9105C49.3846 85.9444 49.45 85.9922 49.5043 86.0512C49.5585 86.1102 49.6006 86.1793 49.6281 86.2546C49.6556 86.3298 49.6679 86.4097 49.6645 86.4897C49.661 86.5697 49.6418 86.6483 49.6079 86.7209C49.574 86.7935 49.5261 86.8587 49.4669 86.9129C49.4078 86.967 49.3385 87.009 49.2631 87.0364Z" fill="#FAC213"/>
    <path d="M50.2458 89.7268L30.7507 96.8156C30.5984 96.871 30.4303 96.8637 30.2833 96.7954C30.1364 96.7271 30.0226 96.6034 29.9671 96.4514C29.9116 96.2994 29.9189 96.1317 29.9873 95.9851C30.0558 95.8385 30.1798 95.725 30.3321 95.6696L49.8272 88.5808C49.9026 88.5534 49.9827 88.5411 50.0629 88.5445C50.1431 88.548 50.2218 88.5672 50.2946 88.601C50.3673 88.6348 50.4327 88.6826 50.487 88.7416C50.5412 88.8006 50.5833 88.8697 50.6108 88.945C50.6383 89.0202 50.6506 89.1001 50.6472 89.1802C50.6437 89.2602 50.6245 89.3387 50.5906 89.4113C50.5567 89.4839 50.5088 89.5492 50.4496 89.6033C50.3905 89.6574 50.3212 89.6994 50.2458 89.7268H50.2458Z" fill="#FAC213"/>
    <path d="M112.104 97.198L101.43 122.682C100.975 123.761 100.113 124.617 99.0299 125.067C97.9472 125.517 96.7306 125.524 95.6427 125.087C95.08 124.86 94.5693 124.522 94.1418 124.093C93.7143 123.663 93.3789 123.151 93.1562 122.588C92.9335 122.025 92.828 121.422 92.8463 120.817C92.8645 120.212 93.0061 119.617 93.2623 119.068L105.163 92.9354L111.724 76.7519C111.157 76.1877 110.778 75.4632 110.638 74.6766C110.498 73.89 110.604 73.0796 110.942 72.3553C111.28 71.6311 111.833 71.0283 112.527 70.6287C113.22 70.229 114.02 70.0521 114.817 70.1218C115.615 70.1915 116.372 70.5045 116.985 71.0182C117.598 71.532 118.038 72.2216 118.244 72.9934C118.451 73.7652 118.414 74.5818 118.14 75.3321C117.865 76.0825 117.365 76.7303 116.709 77.1875L112.104 97.198Z" fill="#FFB6B6"/>
    </g>
    <defs>
    <clipPath id="clip0_0_1">
    <rect width="136" height="154" fill="white" transform="translate(0 47)"/>
    </clipPath>
    </defs>
    </svg>
    