<svg width="212" height="209" viewBox="0 0 212 209" fill="none" xmlns="http://www.w3.org/2000/svg">
    <circle cx="140" cy="72" r="72" fill="#F2FDFF"/>
    <circle cx="95.5" cy="101.5" r="86.5" fill="#247881" fill-opacity="0.5"/>
    <g clip-path="url(#clip0_0_1)">
    <path d="M140.185 117.936C136.051 122.56 135.319 128.762 134.656 135.088C134.162 139.766 133.707 144.514 131.94 148.744C130.447 152.258 128.071 155.33 125.04 157.663C124.768 157.874 124.492 158.078 124.21 158.276H109.135C109.112 158.073 109.094 157.867 109.075 157.663C108.427 149.964 110.179 142.254 114.094 135.585C115.661 132.973 117.551 130.568 119.721 128.427C122.073 132.518 124.975 136.472 124.975 136.472L123.664 125.006C128.511 121.345 134.182 118.918 140.185 117.936V117.936Z" fill="#F2F2F2"/>
    <path d="M165 131.445C154.962 135.448 152.005 148.303 143.83 155.356C142.821 156.223 141.733 156.996 140.581 157.663C140.208 157.879 139.83 158.086 139.445 158.276H117.745C117.796 158.073 117.846 157.867 117.9 157.663C120.213 148.721 125.948 140.663 133.748 135.649C134.048 135.456 134.351 135.268 134.656 135.088C136.969 133.706 139.428 132.584 141.988 131.742C142.262 136.446 143.09 141.277 143.09 141.277L147.048 130.432C153.026 129.309 159.188 129.657 165 131.445V131.445Z" fill="#F2F2F2"/>
    <path d="M164.969 157.97C164.969 158.01 164.961 158.05 164.946 158.087C164.93 158.125 164.908 158.158 164.879 158.187C164.85 158.216 164.816 158.238 164.779 158.253C164.742 158.269 164.702 158.277 164.661 158.277H0.307861C0.226211 158.277 0.147905 158.244 0.0901697 158.187C0.0324347 158.129 0 158.051 0 157.97C0 157.888 0.0324347 157.81 0.0901697 157.753C0.147905 157.695 0.226211 157.663 0.307861 157.663H164.661C164.702 157.663 164.742 157.671 164.779 157.686C164.816 157.702 164.85 157.724 164.879 157.753C164.908 157.781 164.93 157.815 164.946 157.852C164.961 157.89 164.969 157.93 164.969 157.97V157.97Z" fill="#CCCCCC"/>
    <path d="M103.33 160.257H74.6097C73.2827 160.258 71.9686 159.998 70.7424 159.492C69.5162 158.987 68.402 158.246 67.4634 157.311C66.5249 156.376 65.7803 155.266 65.2724 154.045C64.7644 152.823 64.5029 151.514 64.5029 150.192C64.5029 148.87 64.7644 147.561 65.2724 146.339C65.7803 145.118 66.5249 144.008 67.4634 143.073C68.402 142.138 69.5162 141.397 70.7424 140.892C71.9686 140.386 73.2827 140.126 74.6097 140.127H103.33C104.657 140.126 105.971 140.386 107.197 140.892C108.424 141.397 109.538 142.138 110.476 143.073C111.415 144.008 112.159 145.118 112.667 146.339C113.175 147.561 113.437 148.87 113.437 150.192C113.437 151.514 113.175 152.823 112.667 154.045C112.159 155.266 111.415 156.376 110.476 157.311C109.538 158.246 108.424 158.987 107.197 159.492C105.971 159.998 104.657 160.258 103.33 160.257V160.257Z" fill="#2F2E41"/>
    <path d="M76.8247 196.956L80.7361 199.74L93.3749 186.032L87.6019 181.923L76.8247 196.956Z" fill="#FFB6B6"/>
    <path d="M76.7393 194.973L77.8403 195.757L83.3872 197.075L84.4423 200.456L84.4426 200.456C85.7444 201.383 86.6235 202.787 86.8864 204.359C87.1493 205.932 86.7745 207.544 85.8446 208.841L85.7306 209L73.1187 200.023L76.7393 194.973Z" fill="#2F2E41"/>
    <path d="M99.0299 156.356L95.282 150.866C94.8227 144.907 99.4259 139.659 105.423 139.541C108.762 139.476 112.026 141.072 113.767 146.469C118.244 160.348 88.2521 192.461 88.2521 192.461L81.9892 189.281L81.3936 185.428L84.5611 183.104L84.2904 179.797L87.3481 178.032L99.0299 156.356Z" fill="#2F2E41"/>
    <path d="M89.2392 89.9746L93.8717 93.4894L99.4586 95.2C99.4586 95.2 101.768 127.571 103.849 129.644C105.931 131.718 104.054 131.774 104.472 134.468C104.89 137.161 105.906 142.683 105.906 142.683C91.8587 150.092 79.7481 150.291 70.0203 141.621C69.8958 141.085 69.9591 140.522 70.1995 140.026C70.4399 139.531 70.8431 139.132 71.3423 138.896C73.1528 137.939 69.6733 133.471 71.1529 132.724C72.6325 131.977 70.5514 125.497 70.5514 125.497L71.9166 111.977L70.838 109.816L73.4702 96.5922L78.0374 94.9302L79.8618 90.5504L89.2392 89.9746Z" fill="#FAC213"/>
    <path d="M84.4968 88.0186C89.5576 88.0186 93.6601 83.9309 93.6601 78.8884C93.6601 73.846 89.5576 69.7583 84.4968 69.7583C79.436 69.7583 75.3335 73.846 75.3335 78.8884C75.3335 83.9309 79.436 88.0186 84.4968 88.0186Z" fill="#FFB6B6"/>
    <path d="M54.9832 61.5245C55.3688 61.9656 55.6526 62.4856 55.8147 63.0478C55.9768 63.61 56.0132 64.2008 55.9213 64.7786C55.8294 65.3563 55.6115 65.907 55.283 66.3918C54.9544 66.8766 54.5232 67.2837 54.0196 67.5844L56.9387 81.5031L50.0435 78.783L48.3286 65.9826C47.8776 65.1062 47.7649 64.0955 48.0119 63.1419C48.2588 62.1882 48.8483 61.358 49.6685 60.8085C50.4888 60.259 51.4829 60.0283 52.4624 60.1603C53.4419 60.2923 54.3388 60.7777 54.9832 61.5245L54.9832 61.5245Z" fill="#FFB6B6"/>
    <path d="M48.3965 70.8257L51.1848 96.4106L51.2836 96.4589C51.365 96.4987 54.8976 98.2251 59.2339 100.281C59.9654 100.628 59.8605 102.13 60.625 102.49C61.1517 102.737 62.5424 101.839 63.0745 102.087C67.8142 104.296 72.6069 106.443 74.5169 107.025C77.0955 107.839 79.876 107.75 82.3967 106.772L82.4575 106.745L82.4893 106.686C83.1333 105.484 83.347 104.099 83.0951 102.76C82.8432 101.42 82.1407 100.206 81.1035 99.3182C76.073 95.0566 70.1172 92.0183 63.7063 90.4431L60.0585 89.5514L55.3867 71.3258L48.3965 70.8257Z" fill="#FAC213"/>
    <path d="M77.033 71.0446C77.7865 68.8602 81.5378 67.3451 87.6193 67.1345C93.7008 66.9238 95.2431 74.0646 95.2431 74.0646C99.3029 77.346 90.908 86.1312 90.5019 85.8148L90.6845 84.1642C90.9869 81.4302 92.2718 79.297 90.6377 76.4478L89.0686 76.4657L86.0925 77.0359C85.907 77.0715 85.7149 77.0453 85.5458 76.9613C85.3768 76.8773 85.2401 76.7403 85.1569 76.5713C85.0738 76.4023 85.0487 76.2107 85.0855 76.0261C85.1224 75.8415 85.2192 75.6741 85.361 75.5497L85.3882 75.5258L85.3206 75.4215C84.2722 75.9008 83.1919 76.3452 82.0457 76.4123C80.7562 76.4878 79.3464 75.9765 78.7288 74.8461C78.5639 74.5354 78.4631 74.1949 78.4325 73.8447C76.6936 74.5369 75.8984 76.6729 75.8984 76.6729C75.8984 76.6729 76.2794 73.229 77.033 71.0446Z" fill="#2F2E41"/>
    <path d="M72.1997 52.5061C71.68 50.6128 70.6119 48.914 69.1289 47.6218C67.646 46.3296 65.8138 45.5013 63.8613 45.2404C63.818 45.234 63.777 45.2425 63.7339 45.2396C63.6783 45.2218 63.6215 45.208 63.5639 45.1985C54.4561 43.9644 43.9426 48.5315 40.1467 57.5845C38.2674 54.9746 35.271 53.2885 32.0663 53.4561C27.9779 53.67 24.3699 56.7903 23.2646 60.8943C23.2036 61.141 23.2202 61.4004 23.3122 61.6374C23.4042 61.8744 23.5671 62.0774 23.7788 62.2191C24.493 62.7554 24.9808 63.1313 25.8595 63.3264C27.5136 63.6938 29.1735 64.0304 30.8393 64.3361C34.0898 64.9325 37.3573 65.4147 40.6418 65.7827C47.3063 66.5317 54.0165 66.7976 60.7196 66.5783C62.9519 66.5054 65.1045 66.4278 67.1497 65.3948C68.6536 64.6097 69.9252 63.4462 70.8383 62.0199C72.624 59.3034 73.0957 55.6524 72.1997 52.5061Z" fill="#3F3D56"/>
    <path d="M71.1957 52.9857C70.7032 51.3063 69.7197 49.8112 68.3706 48.6912C66.9681 47.5511 65.2736 46.8243 63.4785 46.593H63.3699L63.269 46.5749C63.2368 46.5649 63.2039 46.5571 63.1707 46.5517C60.1672 46.1961 57.1234 46.4131 54.2013 47.191C48.5848 48.6629 43.2658 52.1479 40.7823 57.7698L40.4278 58.5767L39.8975 57.873C38.1512 55.5711 35.5331 54.2281 32.8296 54.2281C32.6951 54.2281 32.5606 54.2307 32.4235 54.2384C28.6671 54.424 25.3194 57.1151 24.2794 60.7832C24.2534 60.913 24.2688 61.0478 24.3236 61.1684C24.3783 61.2891 24.4696 61.3896 24.5847 61.4559L24.6261 61.4869C25.2909 61.9586 25.6919 62.2447 26.4293 62.402C28.0358 62.7422 29.6708 63.0567 31.2878 63.3377C34.4233 63.8841 37.6416 64.3352 40.8495 64.6781C46.5233 65.285 52.2287 65.5492 57.9345 65.4694C58.7701 65.4591 59.604 65.4411 60.4361 65.4153C62.5782 65.3508 64.6039 65.2864 66.5235 64.3662C67.8989 63.6871 69.0738 62.6639 69.9332 61.3967C70.7466 60.1713 71.2811 58.7834 71.4992 57.3304C71.7173 55.8775 71.6137 54.3945 71.1957 52.9857V52.9857Z" fill="white"/>
    <path d="M57.9345 65.4693C52.2287 65.5491 46.5233 65.2849 40.8495 64.678C37.6416 64.3351 34.4233 63.884 31.2878 63.3376C29.6708 63.0566 28.0358 62.7421 26.4293 62.4019C25.692 62.2446 25.291 61.9585 24.6261 61.4868L24.5847 61.4559C24.4696 61.3896 24.3783 61.289 24.3236 61.1683C24.2688 61.0477 24.2534 60.9129 24.2794 60.7831C25.3194 57.115 28.6671 54.4239 32.4235 54.2383C32.5606 54.2306 32.6951 54.228 32.8296 54.228C35.5331 54.228 38.1512 55.571 39.8975 57.8729L40.4278 58.5766L40.7823 57.7698C43.2658 52.1478 48.5848 48.6628 54.2013 47.1909C55.3345 48.2117 56.064 49.7763 55.6501 51.2276C55.1508 52.9881 53.1743 54.0862 52.8431 55.8855C52.5404 57.5275 53.7201 59.0535 54.9335 60.2031C56.1468 61.3502 57.5516 62.5024 57.9034 64.1315C57.9976 64.5716 58.0081 65.0254 57.9345 65.4693V65.4693Z" fill="#FAC213"/>
    <path d="M62.811 60.4662C65.3828 60.4662 67.4677 58.3889 67.4677 55.8264C67.4677 53.2639 65.3828 51.1865 62.811 51.1865C60.2392 51.1865 58.1543 53.2639 58.1543 55.8264C58.1543 58.3889 60.2392 60.4662 62.811 60.4662Z" fill="#FAC213"/>
    <path d="M64.7631 55.3312L63.0168 53.5913C62.9898 53.5644 62.9577 53.543 62.9224 53.5284C62.8871 53.5139 62.8493 53.5063 62.811 53.5063C62.7728 53.5063 62.735 53.5139 62.6997 53.5284C62.6644 53.543 62.6323 53.5644 62.6053 53.5913L60.859 55.3312C60.8045 55.3856 60.7739 55.4594 60.7739 55.5362C60.774 55.6131 60.8046 55.6868 60.8592 55.7411C60.9137 55.7955 60.9877 55.826 61.0648 55.8261C61.142 55.8261 61.216 55.7956 61.2706 55.7413L62.52 54.4964V57.8562C62.52 57.9331 62.5507 58.0069 62.6052 58.0613C62.6598 58.1156 62.7339 58.1462 62.811 58.1462C62.8882 58.1462 62.9623 58.1156 63.0168 58.0613C63.0714 58.0069 63.1021 57.9331 63.1021 57.8562V54.4964L64.3515 55.7413C64.3785 55.7683 64.4106 55.7897 64.4459 55.8043C64.4813 55.8189 64.5191 55.8264 64.5574 55.8264C64.5956 55.8264 64.6335 55.8189 64.6688 55.8044C64.7041 55.7898 64.7362 55.7684 64.7632 55.7415C64.7903 55.7145 64.8117 55.6826 64.8264 55.6474C64.841 55.6122 64.8485 55.5744 64.8485 55.5363C64.8485 55.4982 64.8409 55.4605 64.8263 55.4253C64.8116 55.3901 64.7901 55.3582 64.7631 55.3312Z" fill="white"/>
    <path d="M101.781 193.072L98.1127 196.167L84.3857 183.541L89.7999 178.973L101.781 193.072Z" fill="#FFB6B6"/>
    <path d="M105.728 195.825L93.8992 205.805L93.7725 205.656C92.7387 204.439 92.2322 202.863 92.3644 201.275C92.4967 199.686 93.2569 198.215 94.4778 197.184L94.4781 197.184L95.2506 193.728L100.67 191.96L101.703 191.089L105.728 195.825Z" fill="#2F2E41"/>
    <path d="M79.1099 158.161L82.1421 151.609C82.1081 145.633 77.0874 140.78 71.1014 141.154C67.7677 141.363 64.6462 143.22 63.3564 148.742C60.04 162.941 92.5808 192.488 92.5808 192.488L98.5601 188.806L98.8357 184.916L95.487 182.86L95.484 179.543L92.291 178.033L79.1099 158.161Z" fill="#2F2E41"/>
    <path d="M76.752 145.539V122.779C76.7525 122.319 76.9364 121.877 77.2633 121.551C77.5902 121.226 78.0334 121.043 78.4958 121.042H95.7467C96.2091 121.043 96.6523 121.226 96.9792 121.551C97.3061 121.877 97.49 122.319 97.4905 122.779V145.539C97.49 146 97.3061 146.441 96.9792 146.767C96.6523 147.093 96.2091 147.276 95.7467 147.277H78.4958C78.0334 147.276 77.5902 147.093 77.2633 146.767C76.9364 146.441 76.7525 146 76.752 145.539Z" fill="#E6E6E6"/>
    <path d="M78.0752 138.664V124.032C78.0757 123.601 78.2479 123.187 78.5541 122.882C78.8602 122.577 79.2753 122.406 79.7083 122.405H94.5341C94.9671 122.406 95.3822 122.577 95.6884 122.882C95.9946 123.187 96.1668 123.601 96.1673 124.032V144.285C96.1668 144.717 95.9946 145.13 95.6884 145.436C95.3822 145.741 94.9671 145.912 94.5341 145.913H85.3498C83.4212 145.91 81.5721 145.146 80.2083 143.787C78.8445 142.428 78.0774 140.586 78.0752 138.664V138.664Z" fill="white"/>
    <path d="M80.4756 128.115C80.476 127.694 80.6443 127.29 80.9435 126.992C81.2427 126.694 81.6484 126.526 82.0715 126.525H92.3561C92.7793 126.525 93.1852 126.693 93.4845 126.991C93.7838 127.289 93.9519 127.694 93.9519 128.115C93.9519 128.537 93.7838 128.942 93.4845 129.24C93.1852 129.538 92.7793 129.706 92.3561 129.706H82.0715C81.6484 129.705 81.2427 129.537 80.9435 129.239C80.6443 128.941 80.476 128.537 80.4756 128.115V128.115Z" fill="#E6E6E6"/>
    <path d="M80.4756 133.062C80.476 132.641 80.6443 132.237 80.9435 131.938C81.2427 131.64 81.6484 131.473 82.0715 131.472H92.3561C92.7793 131.472 93.1852 131.64 93.4845 131.938C93.7838 132.236 93.9519 132.641 93.9519 133.062C93.9519 133.484 93.7838 133.888 93.4845 134.187C93.1852 134.485 92.7793 134.652 92.3561 134.652H82.0715C81.6484 134.652 81.2427 134.484 80.9435 134.186C80.6443 133.888 80.476 133.484 80.4756 133.062V133.062Z" fill="#E6E6E6"/>
    <path d="M80.4756 138.009C80.476 137.587 80.6443 137.183 80.9435 136.885C81.2427 136.587 81.6484 136.419 82.0715 136.419H92.3561C92.7793 136.419 93.1852 136.586 93.4845 136.885C93.7838 137.183 93.9519 137.587 93.9519 138.009C93.9519 138.431 93.7838 138.835 93.4845 139.133C93.1852 139.432 92.7793 139.599 92.3561 139.599H82.0715C81.6484 139.599 81.2427 139.431 80.9435 139.133C80.6443 138.835 80.476 138.431 80.4756 138.009V138.009Z" fill="#E6E6E6"/>
    <path d="M92.1412 147.509C92.1204 146.924 92.2286 146.342 92.458 145.804C92.6874 145.265 93.0325 144.783 93.469 144.392C93.9055 144.001 94.4228 143.71 94.9844 143.54C95.546 143.369 96.1383 143.323 96.7196 143.406L103.248 130.762L106.886 137.201L100.128 148.221C99.9247 149.185 99.3735 150.04 98.579 150.626C97.7844 151.212 96.8018 151.487 95.8174 151.399C94.8329 151.312 93.9149 150.867 93.2373 150.15C92.5598 149.433 92.1698 148.493 92.1412 147.509H92.1412Z" fill="#FFB6B6"/>
    <path d="M103.136 144.415L117.139 122.791L117.093 122.691C117.04 122.577 113.869 115.753 110.797 109.503C110.324 108.541 109.853 107.592 109.396 106.683C109.199 106.291 109.005 105.907 108.813 105.531C107.523 102.996 106.395 100.901 105.722 99.9057C104.234 97.6555 102.017 95.9803 99.4414 95.1582L99.3766 95.1416L99.3148 95.1673C98.0548 95.6971 97.0135 96.6388 96.3628 97.8374C95.712 99.0359 95.4906 100.42 95.735 101.76C96.9497 108.227 99.6562 114.324 103.641 119.57L105.911 122.552L98.0221 139.641L103.136 144.415Z" fill="#FAC213"/>
    </g>
    <defs>
    <clipPath id="clip0_0_1">
    <rect width="165" height="164" fill="white" transform="translate(0 45)"/>
    </clipPath>
    </defs>
    </svg>
    