<svg width="228" height="204" viewBox="0 0 228 204" fill="none" xmlns="http://www.w3.org/2000/svg">
    <circle cx="156" cy="79" r="72" fill="#F2FDFF"/>
    <circle cx="111.5" cy="108.5" r="86.5" fill="#247881" fill-opacity="0.5"/>
    <path d="M50.9556 195.761C50.7327 195.771 50.512 195.712 50.3235 195.593C50.135 195.473 49.9877 195.298 49.9016 195.092C49.8156 194.885 49.7949 194.658 49.8423 194.439C49.8898 194.22 50.0031 194.022 50.1669 193.87C50.1944 193.761 50.214 193.682 50.2415 193.573C50.0282 193.03 49.6579 192.563 49.1781 192.232C48.6984 191.901 48.131 191.721 47.5486 191.716C46.9663 191.71 46.3956 191.879 45.9097 192.201C45.4238 192.523 45.0448 192.982 44.8213 193.521C43.5316 196.548 41.8625 199.68 42.6926 203.014C37.2094 191.364 39.0741 176.874 47.1774 166.911C49.4173 165.675 51.2327 163.477 51.7054 160.925C50.5969 161.302 49.2147 160.398 50.0482 159.228C50.4095 158.78 50.7743 158.336 51.1355 157.889C46.9246 153.393 41.9074 160.459 46.5424 166.526C45.0261 168.432 43.7128 170.491 42.6237 172.671C42.8752 170.357 42.5751 168.016 41.7479 165.84C40.9096 163.813 39.3384 162.106 37.9547 160.353C36.2723 158.218 32.8097 159.203 32.5833 161.913C34.136 162.424 34.3377 164.673 32.5617 164.98C33.0268 170.021 36.3123 174.654 40.8374 176.865C39.1663 181.565 38.5138 186.569 38.9233 191.541C38.1246 185.73 31.9013 184.319 27.5515 182.009C27.2746 181.831 26.9521 181.738 26.6232 181.741C26.2943 181.743 25.9733 181.842 25.6993 182.024C25.4254 182.207 25.2103 182.465 25.0803 182.768C24.9503 183.071 24.9111 183.405 24.9674 183.73C25.5677 183.975 26.1424 184.278 26.6828 184.637C26.936 184.808 27.1304 185.053 27.2393 185.339C27.3482 185.624 27.3662 185.937 27.2909 186.233C27.2157 186.53 27.0508 186.796 26.8189 186.994C26.587 187.193 26.2995 187.315 25.9956 187.344C28.1882 192.784 33.8569 196.436 39.679 196.416C40.2385 198.853 41.0492 201.226 42.0979 203.495H50.7391C50.7701 203.399 50.7979 203.299 50.8258 203.203C50.0259 203.253 49.223 203.205 48.4347 203.06C50.5509 200.549 52.1874 199.267 50.9559 195.761L50.9556 195.761Z" fill="#F2F2F2"/>
    <path d="M127.993 195.761C128.216 195.771 128.436 195.712 128.625 195.593C128.814 195.473 128.961 195.298 129.047 195.092C129.133 194.885 129.154 194.658 129.106 194.439C129.059 194.22 128.945 194.022 128.782 193.87C128.754 193.761 128.734 193.682 128.707 193.573C128.92 193.03 129.291 192.563 129.77 192.232C130.25 191.901 130.818 191.721 131.4 191.716C131.982 191.71 132.553 191.879 133.039 192.201C133.525 192.523 133.904 192.982 134.127 193.521C135.417 196.548 137.086 199.68 136.256 203.014C141.739 191.364 139.874 176.874 131.771 166.911C129.531 165.675 127.716 163.477 127.243 160.925C128.352 161.302 129.734 160.398 128.9 159.228C128.539 158.78 128.174 158.336 127.813 157.889C132.024 153.393 137.041 160.459 132.406 166.526C133.922 168.432 135.236 170.491 136.325 172.671C136.073 170.357 136.373 168.016 137.201 165.84C138.039 163.813 139.61 162.106 140.994 160.353C142.676 158.218 146.139 159.203 146.365 161.913C144.813 162.424 144.611 164.673 146.387 164.98C145.922 170.021 142.636 174.654 138.111 176.865C139.782 181.565 140.435 186.569 140.025 191.541C140.824 185.73 147.047 184.319 151.397 182.009C151.674 181.831 151.996 181.738 152.325 181.741C152.654 181.743 152.975 181.842 153.249 182.024C153.523 182.207 153.738 182.465 153.868 182.768C153.998 183.071 154.037 183.405 153.981 183.73C153.381 183.975 152.806 184.278 152.266 184.637C152.013 184.808 151.818 185.053 151.709 185.339C151.6 185.624 151.582 185.937 151.658 186.233C151.733 186.53 151.898 186.796 152.13 186.994C152.362 187.193 152.649 187.315 152.953 187.344C150.76 192.784 145.092 196.436 139.27 196.416C138.71 198.853 137.899 201.226 136.851 203.495H128.209C128.178 203.399 128.151 203.299 128.123 203.203C128.923 203.253 129.726 203.205 130.514 203.06C128.398 200.549 126.761 199.267 127.993 195.761L127.993 195.761Z" fill="#F2F2F2"/>
    <path d="M131.197 197.047L127.476 197.895L122.439 183.91L127.931 182.658L131.197 197.047Z" fill="#FFB6B6"/>
    <path d="M132.212 200.908L120.768 203.518L120.735 203.373C120.466 202.189 120.678 200.946 121.323 199.919C121.968 198.891 122.994 198.162 124.175 197.892L124.176 197.892L125.905 195.826L130.166 196.526L131.165 196.298L132.212 200.908Z" fill="#2F2E41"/>
    <path d="M191.228 128.879L193.274 132.108L181.821 141.556L178.801 136.79L191.228 128.879Z" fill="#FFB6B6"/>
    <path d="M194.517 126.625L200.809 136.556L200.683 136.636C199.661 137.287 198.422 137.504 197.24 137.24C196.057 136.975 195.028 136.251 194.378 135.226L194.378 135.225L191.856 134.285L191.085 130.027L190.536 129.16L194.517 126.625Z" fill="#2F2E41"/>
    <path d="M72.6051 94.3501L71.686 89.0097L85.6596 82.6843L88.6773 77.3284C88.5799 76.8584 88.6139 76.3706 88.7757 75.9188C88.9374 75.4669 89.2206 75.0687 89.594 74.7681C89.9673 74.4675 90.4163 74.2762 90.8913 74.2154C91.3663 74.1545 91.8488 74.2264 92.2856 74.4232C92.7224 74.62 93.0964 74.9339 93.3664 75.3304C93.6363 75.7269 93.7917 76.1905 93.8153 76.6699C93.839 77.1494 93.7299 77.626 93.5003 78.0473C93.2706 78.4685 92.9293 78.8179 92.514 79.0569L87.5498 86.7505L72.6051 94.3501Z" fill="#A0616A"/>
    <path d="M68.3574 89.9845L74.6501 86.7622L76.3159 93.0322L71.945 96.2802L68.3574 89.9845Z" fill="#FAC213"/>
    <path d="M54.2367 196.561L58.0415 196.561L59.8515 181.849L54.2358 181.849L54.2367 196.561Z" fill="#A0616A"/>
    <path d="M59.3076 196.905V194.319L58.3073 194.38L54.2356 194.622L53.2932 194.68L52.5728 203.34L52.5342 203.804H55.2358L55.3227 203.343L55.715 201.247L56.7282 203.343L56.9501 203.804H64.1127C64.5389 203.801 64.9468 203.63 65.2479 203.328C65.549 203.025 65.7189 202.616 65.7208 202.189C66.0231 200.774 60.0666 197.714 59.3076 196.905Z" fill="#2F2E41"/>
    <path d="M9.07201 138.176L8.18506 141.886L22.0345 147.08L23.3434 141.606L9.07201 138.176Z" fill="#A0616A"/>
    <path d="M7.8581 143.04L10.3664 143.643L10.5402 142.653L11.255 138.628L11.4185 137.695L3.18572 134.974L2.74434 134.828L2.11442 137.462L2.54142 137.654L4.48287 138.525L2.21371 139.024L1.71472 139.133L0.0446962 146.115C-0.052058 146.531 0.0188436 146.969 0.242019 147.333C0.465194 147.697 0.822614 147.958 1.23666 148.059C2.53919 148.684 6.8961 143.591 7.8581 143.04Z" fill="#2F2E41"/>
    <path d="M60.1197 101.348L55.2222 99.0527L45.4558 110.901L39.5069 112.409C39.0803 112.191 38.6018 112.095 38.1244 112.133C37.647 112.17 37.1893 112.339 36.8017 112.621C36.4141 112.903 36.1118 113.287 35.9281 113.73C35.7445 114.174 35.6866 114.659 35.761 115.134C35.8354 115.608 36.0391 116.052 36.3496 116.418C36.66 116.783 37.0653 117.055 37.5204 117.204C37.9756 117.353 38.463 117.374 38.9289 117.262C39.3947 117.151 39.8209 116.913 40.1602 116.574L48.8712 113.799L60.1197 101.348Z" fill="#A0616A"/>
    <path d="M129.552 57.488C128.514 57.488 127.499 57.1794 126.636 56.6013C125.773 56.0231 125.1 55.2014 124.703 54.2399C124.305 53.2785 124.202 52.2206 124.404 51.1999C124.607 50.1793 125.106 49.2418 125.841 48.5059C126.575 47.7701 127.51 47.269 128.528 47.0659C129.546 46.8629 130.601 46.9671 131.561 47.3654C132.52 47.7636 133.339 48.438 133.916 49.3033C134.493 50.1685 134.801 51.1858 134.801 52.2264C134.799 53.6214 134.246 54.9588 133.262 55.9452C132.278 56.9316 130.944 57.4865 129.552 57.488ZM129.552 47.5687C128.633 47.5687 127.735 47.8418 126.971 48.3536C126.206 48.8654 125.611 49.5929 125.259 50.444C124.908 51.2951 124.816 52.2316 124.995 53.1351C125.174 54.0386 125.617 54.8686 126.266 55.52C126.916 56.1714 127.744 56.615 128.646 56.7947C129.547 56.9744 130.481 56.8822 131.33 56.5296C132.179 56.1771 132.905 55.5801 133.415 54.8141C133.926 54.0482 134.198 53.1476 134.198 52.2264C134.197 50.9915 133.707 49.8076 132.836 48.9344C131.965 48.0612 130.784 47.5701 129.552 47.5687Z" fill="#E6E6E6"/>
    <path d="M129.182 54.2084C129.171 54.2084 129.16 54.2081 129.15 54.2075C129.057 54.203 128.966 54.1784 128.883 54.1352C128.8 54.0921 128.728 54.0316 128.67 53.9577L127.843 52.8921C127.791 52.8249 127.753 52.748 127.73 52.6658C127.708 52.5836 127.701 52.4978 127.712 52.4132C127.723 52.3287 127.75 52.247 127.792 52.1729C127.834 52.0988 127.89 52.0338 127.957 51.9815L127.987 51.9583C128.054 51.9059 128.131 51.8673 128.213 51.8446C128.295 51.822 128.38 51.8158 128.465 51.8264C128.549 51.837 128.63 51.8641 128.704 51.9063C128.778 51.9484 128.843 52.0048 128.895 52.0721C128.937 52.1258 128.99 52.1699 129.05 52.2013C129.111 52.2327 129.177 52.2507 129.245 52.254C129.313 52.2573 129.381 52.2459 129.444 52.2205C129.507 52.1951 129.564 52.1564 129.61 52.107L131.289 50.3303C131.407 50.2055 131.57 50.1328 131.742 50.1282C131.913 50.1235 132.08 50.1872 132.204 50.3054L132.232 50.3317C132.294 50.3903 132.343 50.4605 132.378 50.5383C132.413 50.6162 132.432 50.7001 132.434 50.7852C132.436 50.8704 132.422 50.9553 132.391 51.0348C132.361 51.1144 132.315 51.1872 132.257 51.2491L129.651 54.0057C129.591 54.0697 129.518 54.1207 129.437 54.1556C129.357 54.1904 129.27 54.2084 129.182 54.2084Z" fill="#E6E6E6"/>
    <path d="M103.35 121.191C102.312 121.191 101.297 120.882 100.434 120.304C99.5706 119.726 98.8979 118.904 98.5006 117.943C98.1033 116.981 97.9994 115.923 98.2019 114.903C98.4045 113.882 98.9044 112.944 99.6384 112.209C100.372 111.473 101.308 110.972 102.326 110.769C103.344 110.566 104.399 110.67 105.358 111.068C106.318 111.466 107.137 112.141 107.714 113.006C108.291 113.871 108.599 114.888 108.599 115.929C108.597 117.324 108.044 118.661 107.06 119.648C106.076 120.634 104.741 121.189 103.35 121.191ZM103.35 111.271C102.431 111.271 101.533 111.544 100.768 112.056C100.004 112.568 99.4088 113.296 99.0571 114.147C98.7054 114.998 98.6134 115.934 98.7927 116.838C98.972 117.741 99.4145 118.571 100.064 119.223C100.714 119.874 101.542 120.318 102.443 120.497C103.345 120.677 104.279 120.585 105.128 120.232C105.977 119.88 106.703 119.283 107.213 118.517C107.724 117.751 107.996 116.85 107.996 115.929C107.995 114.694 107.505 113.51 106.634 112.637C105.763 111.764 104.582 111.273 103.35 111.271Z" fill="#E6E6E6"/>
    <path d="M102.979 117.911C102.969 117.911 102.958 117.911 102.948 117.91C102.855 117.906 102.763 117.881 102.681 117.838C102.598 117.795 102.525 117.734 102.468 117.66L101.641 116.595C101.589 116.528 101.551 116.451 101.528 116.368C101.506 116.286 101.499 116.2 101.51 116.116C101.52 116.031 101.547 115.95 101.589 115.876C101.632 115.801 101.688 115.736 101.755 115.684L101.785 115.661C101.852 115.609 101.928 115.57 102.01 115.547C102.092 115.525 102.178 115.518 102.262 115.529C102.347 115.54 102.428 115.567 102.502 115.609C102.576 115.651 102.641 115.707 102.693 115.775C102.735 115.828 102.788 115.873 102.848 115.904C102.908 115.935 102.975 115.953 103.043 115.957C103.111 115.96 103.178 115.949 103.241 115.923C103.305 115.898 103.361 115.859 103.408 115.81L105.087 114.033C105.205 113.908 105.368 113.835 105.539 113.831C105.711 113.826 105.877 113.89 106.002 114.008L106.03 114.034C106.091 114.093 106.141 114.163 106.176 114.241C106.21 114.319 106.229 114.403 106.232 114.488C106.234 114.573 106.219 114.658 106.189 114.737C106.159 114.817 106.113 114.89 106.054 114.952L103.449 117.708C103.389 117.772 103.316 117.823 103.235 117.858C103.154 117.893 103.067 117.911 102.979 117.911Z" fill="#E6E6E6"/>
    <path d="M45.8259 50.2419C44.7878 50.2419 43.773 49.9333 42.9099 49.3552C42.0467 48.777 41.374 47.9553 40.9767 46.9939C40.5794 46.0324 40.4755 44.9745 40.678 43.9539C40.8805 42.9332 41.3804 41.9957 42.1145 41.2598C42.8485 40.524 43.7838 40.0229 44.8019 39.8199C45.8201 39.6168 46.8754 39.721 47.8345 40.1193C48.7936 40.5175 49.6133 41.1919 50.1901 42.0572C50.7668 42.9224 51.0747 43.9397 51.0747 44.9803C51.0731 46.3753 50.5196 47.7127 49.5356 48.6991C48.5516 49.6855 47.2175 50.2404 45.8259 50.2419ZM45.8259 40.3226C44.9069 40.3226 44.0086 40.5957 43.2445 41.1076C42.4804 41.6194 41.8849 42.3468 41.5332 43.1979C41.1815 44.049 41.0895 44.9855 41.2688 45.889C41.4481 46.7925 41.8906 47.6225 42.5404 48.2739C43.1902 48.9253 44.0181 49.3689 44.9194 49.5486C45.8207 49.7283 46.755 49.6361 47.604 49.2835C48.453 48.931 49.1787 48.334 49.6893 47.568C50.1998 46.8021 50.4723 45.9016 50.4723 44.9803C50.4709 43.7454 49.9809 42.5615 49.1099 41.6883C48.2388 40.8152 47.0578 40.324 45.8259 40.3226Z" fill="#E6E6E6"/>
    <path d="M45.4555 46.9628C45.445 46.9628 45.4344 46.9624 45.4238 46.9619C45.3307 46.9574 45.2396 46.9328 45.1568 46.8896C45.074 46.8465 45.0015 46.786 44.9442 46.7121L44.1174 45.6465C44.0652 45.5793 44.0267 45.5024 44.0042 45.4202C43.9816 45.338 43.9754 45.2522 43.9859 45.1676C43.9965 45.0831 44.0235 45.0014 44.0656 44.9273C44.1076 44.8532 44.1638 44.7882 44.2309 44.7358L44.2606 44.7126C44.3277 44.6603 44.4045 44.6217 44.4865 44.599C44.5684 44.5764 44.6541 44.5702 44.7385 44.5808C44.8229 44.5914 44.9043 44.6185 44.9783 44.6606C45.0522 44.7028 45.1171 44.7591 45.1693 44.8265C45.211 44.8802 45.2639 44.9243 45.3242 44.9557C45.3845 44.9871 45.4509 45.005 45.5188 45.0084C45.5867 45.0117 45.6545 45.0003 45.7175 44.9749C45.7806 44.9495 45.8375 44.9108 45.8843 44.8614L47.563 43.0847C47.6812 42.9599 47.8439 42.8872 48.0155 42.8826C48.1871 42.8779 48.3535 42.9416 48.4783 43.0598L48.5058 43.0861C48.5675 43.1447 48.6171 43.2149 48.6518 43.2927C48.6864 43.3705 48.7055 43.4544 48.7077 43.5396C48.71 43.6248 48.6956 43.7096 48.6652 43.7892C48.6347 43.8688 48.589 43.9416 48.5305 44.0035L45.9252 46.7601C45.8648 46.8241 45.792 46.8751 45.7112 46.91C45.6304 46.9448 45.5434 46.9628 45.4555 46.9628Z" fill="#E6E6E6"/>
    <path d="M87.8473 140.753C75.6761 140.753 61.6883 127.214 49.3126 133.647C11.8423 153.124 17.0003 120.532 6.23535 108.411L6.58877 107.7C18.4666 118.377 33.2965 127.063 49.4753 132.82C64.0959 138.024 78.8261 140.435 92.0681 139.798L92.0911 140.652C90.6926 140.72 89.278 140.754 87.8473 140.753Z" fill="#F2F2F2"/>
    <path d="M71.1515 49.2118C72.5566 49.2118 73.6956 47.6807 73.6956 45.7919C73.6956 43.9032 72.5566 42.3721 71.1515 42.3721C69.7465 42.3721 68.6074 43.9032 68.6074 45.7919C68.6074 47.6807 69.7465 49.2118 71.1515 49.2118Z" fill="#E6E6E6"/>
    <path d="M100.536 102.562C99.373 103.339 98.1825 101.49 99.368 100.748C100.531 99.9711 101.722 101.82 100.536 102.562Z" fill="#E6E6E6"/>
    <path d="M93.8412 40.3139C95.6709 40.3139 97.1541 38.827 97.1541 36.9929C97.1541 35.1587 95.6709 33.6719 93.8412 33.6719C92.0116 33.6719 90.5283 35.1587 90.5283 36.9929C90.5283 38.827 92.0116 40.3139 93.8412 40.3139Z" fill="#FF6584"/>
    <path opacity="0.3" d="M105.428 55.1916L124.28 0L103.58 54.5309C103.477 54.6603 103.407 54.8124 103.375 54.9744C103.343 55.1364 103.35 55.3038 103.396 55.4626C103.441 55.6214 103.523 55.767 103.636 55.8875C103.749 56.0079 103.889 56.0997 104.044 56.1552C104.199 56.2107 104.365 56.2282 104.529 56.2065C104.692 56.1847 104.848 56.1242 104.983 56.03C105.118 55.9358 105.229 55.8106 105.307 55.6648C105.384 55.519 105.426 55.3568 105.428 55.1916H105.428Z" fill="#F0F0F0"/>
    <path d="M86.4005 122.431C88.1806 122.431 89.6237 120.984 89.6237 119.2C89.6237 117.415 88.1806 115.969 86.4005 115.969C84.6203 115.969 83.1772 117.415 83.1772 119.2C83.1772 120.984 84.6203 122.431 86.4005 122.431Z" fill="#F2F2F2"/>
    <path d="M55.1823 120.433C55.1823 120.433 47.1469 125.678 49.2716 129.163C49.3449 129.283 39.6733 142.088 39.6733 142.088L21.4157 140.926L20.7725 147.052L37.0267 151.771C37.0267 151.771 41.0031 154.7 44.075 151.473C47.1469 148.247 57.379 138.366 57.379 138.366L57.8726 158.315L52.7361 185.958L60.4054 185.471L67.8701 157.738L70.6255 126.323L55.1823 120.433Z" fill="#2F2E41"/>
    <path d="M60.9063 88.9529L57.5273 91.52L53.6758 99.7601L57.3793 104.802C57.3793 104.802 60.4946 110.214 55.5081 115.456C50.5217 120.697 46.6926 126.295 50.6838 126.095C54.675 125.895 70.8397 134.137 70.9461 127.385C71.0525 120.633 71.2677 115.456 71.2677 115.456L75.5057 104.68C75.5057 104.68 78.0307 98.2523 76.2579 96.3281C74.4852 94.4039 72.1116 91.9451 72.1116 91.9451L67.7952 87.6182H63.8978L60.9063 88.9529Z" fill="#FAC213"/>
    <path d="M67.2137 73.12C74.7944 77.4443 68.571 88.8538 60.8491 84.7909C53.2687 80.4669 59.492 69.0574 67.2137 73.12Z" fill="#A0616A"/>
    <path d="M71.2674 75.5181C70.7363 76.2106 69.6265 75.8859 67.4533 76.38C67.4581 75.6416 67.373 74.9054 67.1999 74.1876C67.0382 75.0763 66.6838 75.9186 66.1618 76.655C64.2748 76.8648 66.5881 82.6116 65.6219 86.8368C64.377 77.9229 61.7586 80.2583 63.0814 82.0263C63.9282 83.1582 63.3636 86.5538 60.8231 84.856C56.6314 86.853 50.6612 76.9329 57.2781 72.2805C57.1598 69.7658 59.9511 69.3685 61.67 70.1417C65.8414 67.0266 70.6072 71.0181 71.2674 75.5181Z" fill="#2F2E41"/>
    <path d="M51.8171 69.0138C50.1294 79.4159 41.0833 67.1007 36.8298 77.3375C35.4925 81.0446 37.787 83.6966 39.2384 86.7736C39.5696 89.3025 36.2879 90.5854 35.9442 92.9132C35.8485 98.2498 44.4372 97.9233 46.8382 94.5563C49.3053 91.0317 46.3592 86.3029 47.8421 82.5197C49.9263 77.2673 58.4023 77.2283 59.1407 71.1175C57.7107 69.0761 53.8653 66.738 51.8171 69.0138Z" fill="#2F2E41"/>
    <path d="M58.6541 70.0302C58.5989 70.0535 58.5437 70.0768 58.4943 70.103H58.4914C58.4449 70.1263 58.3984 70.1496 58.3519 70.1758C58.3461 70.1787 58.3432 70.1816 58.3374 70.1846C58.2764 70.1263 58.2153 70.068 58.1514 70.0098C58.1349 70.1046 58.1388 70.202 58.163 70.2952L58.1718 70.3302C58.2299 70.3914 58.2909 70.4496 58.3548 70.5108C58.413 70.4671 58.4682 70.4205 58.5263 70.3768C58.5612 70.3477 58.596 70.3185 58.6338 70.2894C58.6396 70.2137 58.6483 70.1263 58.657 70.0301L58.6541 70.0302ZM60.4035 66.7908C59.1075 66.4937 58.689 68.192 58.564 69.0106C58.0933 66.0392 56.1347 66.9744 56.8118 69.0018C57.0276 69.6021 57.3672 70.15 57.8085 70.6098C57.8695 70.6797 57.9364 70.7497 58.0061 70.8196C57.9276 71.2274 58.3229 71.1225 58.8575 70.7468C59.2524 70.4653 59.6175 70.1441 59.9473 69.7884C61.0138 68.6668 61.8449 67.1666 60.4035 66.7908ZM60.4442 68.4629C60.0443 68.9798 59.5957 69.4568 59.1046 69.8874C58.9505 70.0272 58.7936 70.1612 58.6338 70.2894C58.6309 70.3156 58.6309 70.3389 58.628 70.3593C58.6168 70.3876 58.6032 70.4149 58.5873 70.4409C58.4246 70.7351 58.2415 70.5749 58.1717 70.3302C58.1659 70.3215 58.1572 70.3127 58.1514 70.304C57.9192 70.0635 57.7172 69.7954 57.5499 69.5058C56.3497 67.42 58.2822 66.0014 58.1863 69.8961C58.1686 69.9319 58.1568 69.9702 58.1514 70.0098C58.1349 70.1046 58.1388 70.202 58.163 70.2952L58.1718 70.3302C58.2299 70.3914 58.2909 70.4496 58.3548 70.5108C58.413 70.4671 58.4682 70.4205 58.5263 70.3768C58.5612 70.3477 58.596 70.3185 58.6338 70.2894C58.6396 70.2137 58.6483 70.1263 58.657 70.0302V70.0272C58.7326 69.2465 58.9389 67.8424 59.3196 67.4608C60.1565 66.817 61.2404 67.5133 60.4442 68.4629ZM58.6541 70.0302C58.5989 70.0535 58.5437 70.0768 58.4943 70.103H58.4914C58.4449 70.1263 58.3984 70.1496 58.3519 70.1758C58.3461 70.1787 58.3432 70.1816 58.3374 70.1846C58.2764 70.1263 58.2153 70.068 58.1514 70.0098C58.1349 70.1046 58.1388 70.202 58.163 70.2952L58.1718 70.3302C58.2299 70.3914 58.2909 70.4496 58.3548 70.5108C58.413 70.4671 58.4682 70.4205 58.5263 70.3768C58.5612 70.3477 58.596 70.3185 58.6338 70.2894C58.6396 70.2137 58.6483 70.1263 58.657 70.0301L58.6541 70.0302Z" fill="#2F2E41"/>
    <path d="M128.72 127.38L125.92 134.7L112.787 160.67L124.327 190.881L130.283 189.305L125.374 160.67L139.458 143.515L156.184 154.887C156.184 154.887 163.602 160.693 166.424 155.189C169.246 149.686 187.506 137.98 187.506 137.98L182.988 133.15L161.961 143.014L147.448 122.537L128.72 127.38Z" fill="#2F2E41"/>
    <path d="M142.847 92.8562L138.238 87.8925L130.332 86.8022L120.646 93.6003L120.743 101.125L125.532 118.856C125.532 118.856 123.708 131.594 128.802 131.467C133.897 131.339 136.674 128.793 138.749 129.311C140.824 129.829 149.645 132.035 150.204 129.725C150.763 127.414 153.734 129.068 153.604 126.883C153.473 124.697 145.56 108.941 145.56 108.941L147.527 93.184L142.847 92.8562Z" fill="#FAC213"/>
    <path d="M172.028 70.0075C172.069 70.4191 172.02 70.8348 171.883 71.2253C171.747 71.6158 171.527 71.9715 171.239 72.2675C170.95 72.5635 170.601 72.7925 170.215 72.9383C169.828 73.0842 169.415 73.1435 169.003 73.1119L158.405 93.3176L155.56 88.9388L166.393 69.869C166.491 69.1796 166.839 68.5504 167.37 68.1007C167.9 67.651 168.577 67.412 169.272 67.4291C169.966 67.4461 170.63 67.718 171.138 68.1933C171.646 68.6685 171.963 69.314 172.028 70.0075Z" fill="#FFB6B6"/>
    <path d="M138.663 96.6128C138.663 96.6128 138.243 100.207 142.279 101.097C146.315 101.987 157.498 95.5812 159.331 94.6028C159.905 94.2965 160.684 92.7949 161.483 90.8766C161.842 90.0154 162.205 89.0702 162.555 88.1115C162.758 87.5567 163.729 87.4053 163.92 86.8551C164.11 86.3079 163.52 85.3619 163.692 84.8462C164.509 82.3984 165.087 80.4564 165.087 80.4564L162.412 75.4189C158.671 77.4018 156.752 81.7694 155.34 86.8013L138.663 96.6128Z" fill="#FAC213"/>
    <path d="M91.5233 74.6472C91.5861 75.0561 91.7376 75.4462 91.9671 75.79C92.1966 76.1339 92.4985 76.4231 92.8516 76.6373C93.2047 76.8515 93.6003 76.9855 94.0106 77.0299C94.4209 77.0743 94.836 77.0279 95.2265 76.8941L110.532 93.798L112.194 88.8447L96.9447 73.0994C96.677 72.4567 96.1833 71.9347 95.5573 71.6325C94.9313 71.3302 94.2165 71.2686 93.5482 71.4594C92.8799 71.6502 92.3047 72.0801 91.9315 72.6676C91.5583 73.2551 91.413 73.9595 91.5233 74.6472Z" fill="#FFB6B6"/>
    <path d="M130.469 92.0361C130.469 92.0361 131.773 95.4104 128.087 97.2845C124.401 99.1586 111.975 95.7624 109.956 95.2751C109.324 95.1225 108.195 93.8641 106.942 92.2074C106.38 91.4636 105.792 90.6396 105.214 89.7993C104.879 89.313 103.902 89.4099 103.579 88.9251C103.259 88.443 103.593 87.3792 103.298 86.923C101.897 84.758 100.852 83.0229 100.852 83.0229L102.184 77.4746C106.302 78.4557 109.25 82.203 111.873 86.7206L130.469 92.0361Z" fill="#FAC213"/>
    <path d="M134.443 85.5395C138.597 85.5395 141.965 82.1635 141.965 77.999C141.965 73.8345 138.597 70.4585 134.443 70.4585C130.289 70.4585 126.921 73.8345 126.921 77.999C126.921 82.1635 130.289 85.5395 134.443 85.5395Z" fill="#FFB6B6"/>
    <path d="M143.029 73.6815C142.238 72.4544 140.753 71.6366 139.314 71.8664C139.18 70.9455 138.796 70.0791 138.205 69.3616C137.614 68.6441 136.838 68.1028 135.961 67.7969C135.084 67.4909 134.141 67.432 133.233 67.6264C132.325 67.8209 131.488 68.2613 130.812 68.8997C130.59 68.7429 130.331 68.6463 130.061 68.6192C129.791 68.5921 129.518 68.6354 129.269 68.7449C128.774 68.9707 128.343 69.3175 128.016 69.7536C127.19 70.7861 126.659 72.0239 126.479 73.3351C126.299 74.6462 126.477 75.9818 126.994 77.1996C126.818 76.5585 127.459 75.9554 128.107 75.8115C128.754 75.6676 129.434 75.8037 130.09 75.71C130.932 75.59 131.688 75.1006 132.531 74.9904C133.246 74.9438 133.963 75.0362 134.643 75.2624C135.323 75.4886 136.039 75.585 136.754 75.5466C137.464 75.4621 138.377 78.1575 138.365 80.0559C138.363 80.4156 138.437 80.8775 138.788 80.9539C139.219 81.0479 139.47 80.4503 139.881 80.2875C140.07 80.233 140.273 80.2544 140.447 80.3472C140.621 80.44 140.753 80.5968 140.814 80.7847C140.866 80.9758 140.871 81.1764 140.83 81.3701C140.789 81.5637 140.702 81.7446 140.577 81.8979C140.324 82.2016 140.024 82.4625 139.689 82.6704L139.858 82.8115C140.019 82.9818 140.233 83.0907 140.465 83.1196C140.697 83.1485 140.932 83.0956 141.13 82.9699C141.518 82.7064 141.832 82.3476 142.043 81.9277C142.836 80.6976 143.404 79.3351 143.718 77.9045C143.983 76.4678 143.82 74.9086 143.029 73.6815Z" fill="#2F2E41"/>
    <path d="M198.678 103.422C188.975 110.788 169.67 108.461 163.679 121.079C145.54 159.284 130.022 130.181 114.14 127.034L113.994 126.254C129.893 127.575 146.946 125.524 163.311 120.322C178.1 115.621 191.294 108.627 201.467 100.105L202 100.772C200.926 101.673 199.818 102.556 198.678 103.422Z" fill="#F2F2F2"/>
    <path d="M157.656 203.485C157.425 204.171 25.4896 204.171 25.2402 203.487C25.471 202.799 157.407 202.799 157.656 203.485Z" fill="#CCCCCC"/>
    </svg>
    