<svg width="243" height="188" viewBox="0 0 243 188" fill="none" xmlns="http://www.w3.org/2000/svg">
    <circle cx="171" cy="72" r="72" fill="#F2FDFF"/>
    <circle cx="126.5" cy="101.5" r="86.5" fill="#247881" fill-opacity="0.5"/>
    <g clip-path="url(#clip0_0_1)">
    <path d="M175.605 176.865L175.611 179.057V179.521H171.388V178.826L171.386 170.253L171.38 161.948V160.423L171.377 154.241L171.375 154.141L170.64 133.326V133.309L169.892 112.091V112.088L169.873 111.512L166.228 113.45L161.734 115.841L159.599 116.977L156.552 118.596L151.414 121.331H151.411L124.764 135.501L124.709 179.057V179.521H120.632L120.616 179.057L119.262 137.156L79.9623 121.447L75.8034 119.784L74.0265 95.1962C73.5809 89.0334 76.8761 83.3835 82.0912 80.6316C83.3785 79.9532 84.7813 79.4514 86.2721 79.1619L92.2738 77.9955L107.253 75.0809L112.1 74.1406L118.434 72.908L120.932 72.4227L125.039 71.6231L125.41 71.5514L126.568 71.3253L126.98 71.2453L127.652 71.1157L128.125 71.954C128.127 71.954 128.127 71.9567 128.127 71.9595L130.911 76.9118L131.412 77.8052L131.414 77.808L133.827 82.0957C133.827 82.0957 133.829 82.0985 133.829 82.1012L136.178 86.2815L140.788 87.1997L143.06 87.6519L157.143 90.4562L159 90.8285H159.003L163.701 91.7632L164.944 92.0114L170.75 93.1667L170.794 93.175L173.372 93.6879L177.712 94.5537L175.542 154.241L175.583 168.792V168.794L175.605 176.865H175.605Z" fill="#3F3D56"/>
    <path d="M103.551 61.8425C102.935 60.6789 101.164 58.1889 99.1227 55.3929C98.7432 54.8717 98.3553 54.3423 97.9648 53.8074C97.2689 52.8616 96.562 51.8993 95.8771 50.9617C95.4397 50.3441 94.5843 50.1979 93.9682 50.6336L89.8643 53.5454C89.2482 53.9811 89.0997 54.8387 89.537 55.4563L90.772 57.2073L91.0966 57.6678L91.5752 58.3461L92.1501 59.1595V59.1623L92.3123 59.3884L92.8844 60.2018L93.2008 60.6485L95.9706 64.5751L97.2139 66.3371C97.6484 66.9547 98.5039 67.1009 99.12 66.6652L102.69 64.1311L103.194 63.7754L103.224 63.7534C103.84 63.3177 103.988 62.4602 103.551 61.8425Z" fill="#3F3D56"/>
    <path d="M99.1174 55.332L98.0475 53.8182C98.0282 53.7906 97.9925 53.7851 97.9677 53.8044L97.965 53.8072C97.9402 53.8237 97.9347 53.8568 97.954 53.8844L99.0239 55.401C99.0404 55.4258 99.0762 55.4313 99.1037 55.4147C99.1119 55.4092 99.1175 55.401 99.123 55.3927C99.1312 55.3734 99.1312 55.3513 99.1175 55.332H99.1174Z" fill="#3F3D56"/>
    <path d="M95.7699 51.0368L103.446 61.9178C103.825 62.4552 103.718 63.1905 103.214 63.5986L103.214 63.5988C103.207 63.6048 103.199 63.6108 103.191 63.6167C103.178 63.6273 103.164 63.6375 103.15 63.6475C103.15 63.6475 103.095 63.6806 102.995 63.7408C102.894 63.8017 102.747 63.89 102.563 63.9995C102.508 64.0325 102.45 64.067 102.388 64.1034C102.266 64.176 102.132 64.2557 101.987 64.3405C101.929 64.3745 101.87 64.4094 101.809 64.4452C101.497 64.6278 101.148 64.8312 100.778 65.0433C100.715 65.0794 100.652 65.1155 100.588 65.1518C100.572 65.1612 97.4083 66.3885 97.3187 66.2616L89.6429 55.3805C89.2481 54.8209 89.3805 54.0466 89.9388 53.6509L90.5422 53.2231C90.6385 53.1548 90.7692 53.1752 90.8454 53.2657C90.8507 53.2716 90.8559 53.2775 90.8616 53.283C90.9474 53.3675 91.0836 53.3722 91.1819 53.3025L93.3027 51.799C93.4009 51.7293 93.4419 51.599 93.3911 51.4897C93.3877 51.4825 93.384 51.4756 93.3802 51.4687C93.3204 51.3665 93.3448 51.2362 93.4412 51.1679L94.0445 50.7401C94.6028 50.3443 95.3751 50.4771 95.7699 51.0368H95.7699Z" fill="#FAC213"/>
    <path d="M91.0939 57.6128L90.8244 57.2323C90.8134 57.2157 90.7941 57.2047 90.7721 57.2075C90.7639 57.2075 90.7528 57.213 90.7446 57.2185C90.7198 57.2378 90.7116 57.2736 90.7309 57.2985L90.9977 57.679C91.0169 57.7038 91.0527 57.7121 91.0802 57.6928C91.0884 57.6872 91.0939 57.679 91.0967 57.6679C91.1049 57.6514 91.1049 57.6293 91.0939 57.6128L91.0939 57.6128Z" fill="#3F3D56"/>
    <path d="M92.1445 59.1045L91.6274 58.3683C91.6136 58.3517 91.5944 58.3435 91.5751 58.3462C91.5641 58.3462 91.5531 58.349 91.5476 58.3545C91.5201 58.3738 91.5146 58.4096 91.5339 58.4372L92.051 59.1707C92.0702 59.1955 92.106 59.2038 92.1307 59.1845C92.139 59.179 92.1445 59.1707 92.15 59.1624V59.1597C92.1582 59.1431 92.1582 59.1211 92.1445 59.1045V59.1045Z" fill="#3F3D56"/>
    <path d="M92.8789 60.1465L92.3618 59.4103C92.348 59.3937 92.3288 59.3855 92.3123 59.3882C92.3012 59.3882 92.2902 59.391 92.282 59.3965C92.2545 59.4158 92.249 59.4517 92.2682 59.4792L92.7853 60.2127C92.8046 60.2375 92.8404 60.2458 92.8651 60.2265C92.8734 60.221 92.8816 60.2127 92.8844 60.2017C92.8926 60.1851 92.8926 60.1631 92.8789 60.1465V60.1465Z" fill="#3F3D56"/>
    <path d="M90.5928 53.436L89.7895 54.0055C89.7569 54.0286 89.7492 54.0739 89.7722 54.1066C89.7953 54.1393 89.8404 54.147 89.8731 54.1239L90.6763 53.5545C90.7089 53.5313 90.7167 53.4861 90.6936 53.4534C90.6705 53.4207 90.6254 53.4129 90.5928 53.436Z" fill="#E6E6E6"/>
    <path d="M93.7241 51.3678C93.7881 51.3678 93.8399 51.3159 93.8399 51.2518C93.8399 51.1877 93.7881 51.1357 93.7241 51.1357C93.6602 51.1357 93.6084 51.1877 93.6084 51.2518C93.6084 51.3159 93.6602 51.3678 93.7241 51.3678Z" fill="#E6E6E6"/>
    <path d="M93.9839 51.1832C94.0478 51.1832 94.0996 51.1313 94.0996 51.0672C94.0996 51.0031 94.0478 50.9512 93.9839 50.9512C93.92 50.9512 93.8682 51.0031 93.8682 51.0672C93.8682 51.1313 93.92 51.1832 93.9839 51.1832Z" fill="#E6E6E6"/>
    <path d="M94.2437 50.9991C94.3076 50.9991 94.3594 50.9472 94.3594 50.8831C94.3594 50.819 94.3076 50.7671 94.2437 50.7671C94.1797 50.7671 94.1279 50.819 94.1279 50.8831C94.1279 50.9472 94.1797 50.9991 94.2437 50.9991Z" fill="#E6E6E6"/>
    <path d="M125.038 57.7422H109.085V72.908H125.038V57.7422Z" fill="#2F2E41"/>
    <path d="M97.8112 62.6645C97.3113 63.4784 96.6695 64.1116 96.0068 64.5053L91.7331 72.5603L87.9692 70.4095L92.7097 62.4701C92.7621 61.6997 93.0372 60.8401 93.5371 60.0262C94.6791 58.1668 96.5617 57.2502 97.742 57.9787C98.9223 58.7073 98.9533 60.8052 97.8112 62.6645Z" fill="#A0616A"/>
    <path d="M170.341 170.462L173.772 169.773L172.224 153.971L167.16 154.988L170.341 170.462Z" fill="#A0616A"/>
    <path d="M183.654 174.959C183.783 175.537 183.479 176.098 182.975 176.212L176.2 177.74C176.2 177.74 174.93 175.204 171.952 174.661L172.627 178.546L169.132 179.335L168.168 173.06C168.168 173.06 166.491 169.965 168.054 167.837C169.616 165.709 168.096 166.299 168.096 166.299L168.001 162.302L173.422 161.733L174.809 167.728L178.71 173.109L182.887 174.123C183.259 174.213 183.56 174.542 183.654 174.959H183.654Z" fill="#2F2E41"/>
    <path d="M111.148 89.5902L111.423 91.5204C111.423 91.5204 117.199 97.8625 118.574 100.62L135.259 92.3476L132.327 85.4541L111.148 89.5902Z" fill="#A0616A"/>
    <path d="M132.053 91.7961C132.053 91.7961 116.463 96.208 117.794 100.62C119.125 105.032 119.947 106.844 119.947 106.844C119.947 106.844 116.924 113.58 126.276 116.613C135.628 119.646 155.707 121.852 155.707 121.852L167.672 161.421L173.311 159.904L168.734 114.338L146.355 106.41L147.731 98.1382L143.055 100.068L135.259 91.4194L132.053 91.7961V91.7961Z" fill="#E6E6E6"/>
    <path d="M155.348 130.372L158.677 131.454L165.038 116.912L160.125 115.316L155.348 130.372Z" fill="#A0616A"/>
    <path d="M164.765 140.823C164.596 141.391 164.057 141.731 163.562 141.583L156.907 139.594C156.907 139.594 157.037 136.759 154.705 134.825L153.397 138.545L149.964 137.518L152.186 131.573C152.186 131.573 152.233 128.051 154.634 126.961C157.035 125.872 155.422 125.641 155.422 125.641L157.29 122.108L162.295 124.271L160.579 130.179L161.356 136.785L164.504 139.718C164.785 139.979 164.887 140.413 164.765 140.823L164.765 140.823V140.823Z" fill="#2F2E41"/>
    <path d="M141.704 100.62L147.73 98.1382L161.758 89.0388C161.758 89.0388 172.486 80.4365 173.311 92.0448C174.136 103.653 166.434 121.576 166.434 121.576L156.532 118.819L157.538 106.531L144.567 110.409L141.704 100.62Z" fill="#E6E6E6"/>
    <path d="M126.508 69.9692L134.115 90.5554L144.43 101.999L154.607 95.3809L142.848 92.3477L143.16 85.4542L126.508 69.9692Z" fill="#2F2E41"/>
    <path d="M81.8328 178.928V179.521H77.7366L77.7261 178.928L76.3091 103.159H81.6148L81.6254 105.285L81.8328 178.928Z" fill="#3F3D56"/>
    <path d="M167.073 96.6341C166.218 96.2125 165.528 95.6321 165.074 95.0082L156.669 91.5083L158.448 87.5479L166.782 91.5245C167.552 91.5036 168.432 91.6965 169.287 92.118C171.242 93.0811 172.331 94.8728 171.72 96.1199C171.108 97.3669 169.028 97.5971 167.073 96.6341V96.6341Z" fill="#A0616A"/>
    <path d="M122.7 68.9096L124.644 68.064C124.644 68.064 132.327 70.258 133.015 71.514C133.702 72.77 137.553 78.0091 137.553 78.0091L164.784 89.5903L162.308 94.5536L143.054 89.5903L132.602 78.5606L122.7 68.9096V68.9096Z" fill="#2F2E41"/>
    <path d="M119.675 67.2551L110.598 66.7036L105.922 69.1853L111.148 92.3476C111.148 92.3476 126.538 85.7298 133.284 87.7978C133.284 87.7978 135.723 81.4607 131.412 77.8047L124.351 68.3581L119.675 67.2551V67.2551Z" fill="#FAC213"/>
    <path d="M110.048 68.0823L109.96 67.1879L100.971 70.5639C100.971 70.5639 97.6701 73.0456 96.5699 74.1486C95.4696 75.2515 92.169 77.4575 92.169 77.4575L94.9195 67.5308L90.5186 65.6006C90.5186 65.6006 77.3159 82.9723 83.6422 84.351C89.9685 85.7297 100.971 83.248 100.971 83.248L101.521 113.855L124.488 114.545L114.999 82.6966L110.048 68.0823V68.0823Z" fill="#2F2E41"/>
    <path d="M116.893 65.4687C121.189 65.4687 124.671 61.9775 124.671 57.6709C124.671 53.3643 121.189 49.873 116.893 49.873C112.597 49.873 109.114 53.3643 109.114 57.6709C109.114 61.9775 112.597 65.4687 116.893 65.4687Z" fill="#A0616A"/>
    <path d="M113.211 45.0581C108.24 45.8295 108.477 47.6814 106.885 48.6427C104.08 50.3364 102.974 55.2273 104.455 58.4548C104.851 59.3171 105.685 60.4935 105.28 61.7637C104.969 62.7387 104.073 63.3139 103.905 63.4181C102.527 64.2707 103.427 63.2564 102.805 63.9696C102.117 64.7568 103.182 65.8688 102.53 67.2785C101.951 68.5283 100.759 68.4228 100.604 69.2087C100.337 70.562 103.398 73.283 106.655 73.0691C109.556 72.8786 111.71 70.4206 112.432 68.1057C112.915 66.5551 113.123 63.8878 111.881 62.5909C111.707 62.409 111.231 61.9685 110.781 61.2122C110.425 60.6137 109.956 59.8258 110.231 59.282C110.524 58.7026 111.353 59.0076 111.881 58.4548C112.598 57.7051 111.747 56.4385 111.881 55.1459C112.11 52.957 115.203 50.3245 118.483 50.734C122.203 51.1986 123.568 55.2542 123.709 55.6974C124.001 56.6159 123.996 57.5046 123.984 59.282C123.967 61.8327 123.957 63.4314 123.159 65.0726C122.011 67.4331 120.549 67.1781 120.133 68.9329C119.485 71.669 122.535 74.4169 122.884 74.7235C125.47 76.9965 129.377 77.6799 130.035 76.6537C130.629 75.7289 128.023 74.2904 128.11 71.4146C128.185 68.9225 130.197 68.1628 129.76 66.4513C129.28 64.5673 126.717 64.9971 125.634 62.8666C124.624 60.8781 126.486 59.7748 126.184 55.6974C126.121 54.8348 125.85 52.3594 124.259 49.9068C123.558 48.8263 122.845 47.7274 121.508 47.1494C120.012 46.5023 115.841 44.6501 113.211 45.0581Z" fill="#2F2E41"/>
    <path d="M109.91 51.9519C110.112 53.6594 112.67 54.4962 113.761 54.7093C114.223 54.7996 115.785 55.1046 117.337 54.4335C117.911 54.1855 118.119 53.9612 118.712 53.8821C119.515 53.775 119.919 54.081 121.188 54.4335C122.598 54.8256 123.304 55.0216 123.663 54.7093C124.251 54.1987 123.8 52.5285 123.113 51.4004C121.844 49.3145 119.521 48.6685 118.437 48.3672C117.199 48.023 114.687 47.3245 112.386 48.643C112.078 48.8193 109.705 50.217 109.91 51.9519V51.9519Z" fill="#2F2E41"/>
    <path d="M170.066 96.6876C166.396 98.4036 164.937 96.1626 164.937 96.1626L164.938 95.4946L164.949 86.9027C167.506 85.2299 171.82 87.6595 171.82 87.6595L170.16 96.2043L170.066 96.6876V96.6876Z" fill="#3F3D56"/>
    <path d="M171.254 86.0886C171.254 86.0886 167.459 84.4597 165.409 85.6866C165.409 85.6866 163.271 87.8581 164.945 88.4895L171.535 89.1296C171.535 89.1296 173.034 88.1223 172.38 87.2934C171.726 86.4646 171.254 86.0886 171.254 86.0886V86.0886Z" fill="#FAC213"/>
    <path d="M35.5225 154.269L38.6869 180L62.9477 179.648L63.2467 154.269H35.5225Z" fill="#F2F2F2"/>
    <path d="M55.6725 149.99C54.9461 150.036 54.5446 149.131 55.0942 148.604L55.1488 148.386C55.1417 148.369 55.1345 148.351 55.1272 148.334C54.3909 146.574 53.0725 148.235 51.1725 148.353C48.3782 148.527 48.42 150.646 49.5024 153.123C49.7963 153.796 47.3018 148.369 47.3018 144.727C47.3018 143.812 47.3518 142.896 47.454 141.984C47.538 141.237 47.6538 140.495 47.8037 139.759C48.6145 135.784 50.3699 131.998 52.9021 128.836C54.1193 128.169 55.1344 127.126 55.7476 125.876C55.9679 125.426 57.8605 125.045 57.9422 124.551C57.8037 124.569 55.6999 122.35 55.8044 122.22C55.6113 121.926 55.2658 121.78 55.0549 121.494C54.0063 120.069 52.5616 120.318 51.8074 122.254C50.1963 123.069 50.1807 124.421 51.1693 125.722C51.7982 126.549 51.8847 127.668 52.4365 128.554C52.3797 128.627 52.3207 128.697 52.2639 128.77C52.2421 128.798 52.2203 128.826 52.1986 128.854C51.3079 130.01 49.5293 129.714 49.0332 128.341C48.997 128.241 48.69 133.665 48.921 128.051C49.1521 122.436 47.1377 125.294 46.1179 123.999C44.8998 122.453 42.4219 123.156 42.2073 125.114C42.2052 125.133 42.2032 125.152 42.2012 125.171C42.352 125.256 42.4998 125.347 42.6441 125.442C43.4666 125.988 43.1821 127.266 42.2074 127.417L42.1853 127.42C42.2399 127.964 42.333 128.504 42.4692 129.034C41.168 134.079 43.9763 135.917 47.987 136L48.196 136.299C47.8162 137.394 47.5107 138.516 47.2814 139.652C47.0657 140.706 46.9158 141.772 46.8318 142.842L46.8283 142.888C46.7587 143.798 45.6098 144.185 45.0324 143.479C44.8854 143.299 44.7351 143.142 44.5835 143.017C42.8446 141.585 40.3878 141.058 38.5119 139.907C37.6088 139.353 36.4516 140.069 36.6093 141.118L36.6169 141.168C36.8963 141.282 37.1688 141.414 37.4322 141.562C37.5831 141.648 37.731 141.738 37.8754 141.834C38.6981 142.38 38.4133 143.658 37.4384 143.808L37.4163 143.812C37.4004 143.814 37.3868 143.816 37.3709 143.818L37.3853 143.853C38.0125 145.332 39.5116 146.29 41.1124 146.202C42.9968 146.099 45.3373 147.678 47.4018 150.471L47.404 150.471C47.8128 152.256 48.4101 154 49.1777 155.661H55.5137C55.5364 155.591 55.5568 155.518 55.5773 155.447C54.9914 155.484 54.4009 155.45 53.8241 155.343C54.2942 154.764 54.7642 154.182 55.2343 153.603C55.2457 153.592 55.2548 153.581 55.2639 153.569C55.5023 153.273 55.743 152.98 55.9815 152.684L55.9816 152.683C55.9965 151.775 55.8879 150.869 55.6726 149.99L55.6725 149.99Z" fill="#F2F2F2"/>
    <path d="M205 179.577C205 179.74 204.868 179.873 204.705 179.873H0V179.281H204.705C204.868 179.281 205 179.413 205 179.577Z" fill="#E6E6E6"/>
    </g>
    <defs>
    <clipPath id="clip0_0_1">
    <rect width="205" height="135" fill="white" transform="translate(0 45)"/>
    </clipPath>
    </defs>
    </svg>
    