<svg width="478" height="505" viewBox="0 0 478 505" fill="none" xmlns="http://www.w3.org/2000/svg">
    <circle cx="316" cy="162" r="162" fill="#F2FDFF"/>
    <circle cx="162" cy="343" r="162" fill="#F2FDFF"/>
    <circle cx="229" cy="249" r="205" fill="#247881" fill-opacity="0.5"/>
    <path d="M426.234 234.439H322.63C317.013 234.439 312.443 228.1 312.443 220.308V114.019C312.443 106.227 317.013 99.8867 322.63 99.8867H448.813C454.43 99.8867 459 106.227 459 114.019V188.984C459 214.048 444.301 234.439 426.234 234.439Z" fill="#F2F2F2"/>
    <path d="M238.579 465.462H246.841L254.87 403.41H236.157L238.579 465.462Z" fill="#A0616A"/>
    <path d="M235.883 459.812L249.083 459.025V464.673L261.632 473.327C262.252 473.754 262.719 474.368 262.964 475.079C263.21 475.79 263.221 476.561 262.997 477.279C262.773 477.997 262.325 478.625 261.718 479.071C261.111 479.517 260.378 479.757 259.625 479.757H243.91L241.201 474.171L240.144 479.757H234.219L235.883 459.812Z" fill="#2F2E41"/>
    <path d="M115.898 445.783L123.436 449.161L156.204 395.829L139.132 388.179L115.898 445.783Z" fill="#A0616A"/>
    <path d="M115.754 439.525L128.119 444.204L125.804 449.356L133.705 462.382C134.095 463.025 134.269 463.777 134.202 464.526C134.134 465.275 133.829 465.983 133.33 466.546C132.831 467.11 132.165 467.499 131.428 467.658C130.692 467.816 129.924 467.736 129.237 467.428L114.9 461.003L114.719 454.8L111.464 459.463L106.058 457.041L115.754 439.525Z" fill="#2F2E41"/>
    <path d="M175.343 268.017L213.56 262.843C213.56 262.843 262.691 376.305 260.634 434.327L229.456 438.167C229.456 438.167 229.694 414.375 231.423 412.555C233.153 410.735 235.286 413.05 233.153 407.844C231.019 402.639 229.307 401.323 231.87 398.785C234.433 396.247 204.113 351.855 204.113 351.855C204.113 351.855 156.404 411.775 153.844 413.48C151.284 415.184 148.374 415.56 150.042 419.846C151.71 424.132 148.722 432.345 148.722 432.345C148.722 432.345 129.92 429.497 122.239 410.749C122.239 410.749 153.299 354.248 156.118 353.31C158.937 352.372 160.218 357.059 158.937 352.372C157.657 347.685 155.097 349.389 157.657 347.685C159.382 346.586 161.248 345.726 163.205 345.128L173.139 318.902C165.48 301.36 165.97 284.381 175.343 268.017Z" fill="#2F2E41"/>
    <path d="M174.976 237.993L176.379 250.985L175.553 268.021L213.343 263.538L216.894 237.993L212.37 238.037L174.976 237.993Z" fill="#FFB6B6"/>
    <path d="M207.12 196.029L192.898 184.818L185.432 184.384L174.355 191.471L171.642 205.289L165.227 220.85L174.636 262.843C174.636 262.843 175.519 265.856 173.206 266.218C170.894 266.58 171.171 271.022 171.171 271.022C171.171 271.022 171.642 274.871 169.396 275.21C167.151 275.549 161.163 275.549 166.402 282.276C171.642 289.003 214.079 263.508 214.079 263.508L219.104 232.023C219.104 232.023 230.778 216.366 218.206 207.4L207.12 196.029Z" fill="#FAC213"/>
    <path d="M145.034 291.373C144.407 290.592 143.96 289.684 143.723 288.711C143.486 287.739 143.465 286.727 143.662 285.746C143.86 284.765 144.27 283.839 144.864 283.033C145.459 282.227 146.223 281.562 147.102 281.083L164.992 221.134L176.178 226.757L156.696 284.218C157.404 285.747 157.525 287.483 157.037 289.095C156.549 290.708 155.485 292.086 154.048 292.968C152.61 293.85 150.899 294.175 149.237 293.881C147.576 293.587 146.081 292.695 145.034 291.373H145.034Z" fill="#A0616A"/>
    <path d="M176.924 190.916C176.924 190.916 173.726 189.219 171.539 196.562C169.788 202.441 155.58 237.458 155.399 245.971C154.229 246.218 153.176 246.847 152.404 247.758C151.632 248.67 151.185 249.811 151.135 251.004L168.702 253.355C171.772 250.769 172.577 247.277 171.389 246.241L175.203 235.839L191.116 202.742L179.257 192.102L176.924 190.916Z" fill="#FAC213"/>
    <path d="M270.79 271.668C271.017 270.693 271.027 269.681 270.82 268.702C270.612 267.723 270.192 266.801 269.59 266.002C268.987 265.202 268.216 264.544 267.331 264.075C266.446 263.605 265.469 263.335 264.469 263.283L223.431 216.482L214.726 226.855L257.176 270.252C257.2 271.937 257.843 273.554 258.981 274.797C260.12 276.04 261.675 276.824 263.353 276.998C265.031 277.173 266.715 276.726 268.086 275.744C269.457 274.762 270.419 273.311 270.79 271.668V271.668Z" fill="#A0616A"/>
    <path d="M198.532 194.86C198.532 194.86 200.68 191.949 205.832 197.626C209.957 202.17 237.932 227.608 241.782 235.206C242.944 234.924 244.166 235.036 245.257 235.524C246.348 236.013 247.245 236.849 247.807 237.903L232.985 247.608C229.098 246.602 226.859 243.802 227.481 242.354L219.537 234.622L190.856 211.651L196.941 196.937L198.532 194.86Z" fill="#FAC213"/>
    <path d="M205.812 185.377C207.459 183.015 193.23 177.431 190.475 178.493C184.824 180.683 178.147 185.362 172.952 186.027C173.051 183.969 172.868 181.906 172.406 179.898C171.844 181.939 171.29 183.987 170.729 186.035C165.826 185.339 157.659 177.132 159.666 158.2C160.496 150.404 166.223 142.114 184.936 139.042C202.212 136.217 206.426 149.021 208.043 157.385C211.726 176.378 209.907 185.085 205.812 185.377Z" fill="#2F2E41"/>
    <path d="M189.73 178.521C198.279 178.521 205.21 171.6 205.21 163.063C205.21 154.526 198.279 147.605 189.73 147.605C181.18 147.605 174.25 154.526 174.25 163.063C174.25 171.6 181.18 178.521 189.73 178.521Z" fill="#A0616A"/>
    <path d="M210.566 157.547L203.15 158.678C199.88 156.633 198.635 153.598 198.479 150.031L199.225 159.278L195.681 159.818C193.367 158.277 192.334 156.608 192.956 154.774L193.391 160.168C183.944 163.567 174.787 166.073 167.056 164.187C166.657 161.584 166.776 158.929 167.406 156.372C168.035 153.815 169.163 151.408 170.724 149.286C172.285 147.164 174.25 145.371 176.505 144.007C178.761 142.644 181.263 141.738 183.869 141.34L187.686 140.757C190.292 140.36 192.952 140.478 195.512 141.107C198.072 141.735 200.484 142.861 202.608 144.42C204.733 145.979 206.529 147.941 207.894 150.193C209.26 152.446 210.167 154.944 210.566 157.547V157.547Z" fill="#2F2E41"/>
    <path d="M74.5028 465.479C74.0723 465.499 73.6462 465.386 73.2822 465.156C72.9181 464.926 72.6337 464.589 72.4675 464.192C72.3013 463.796 72.2613 463.357 72.3529 462.937C72.4445 462.516 72.6634 462.134 72.9798 461.842L73.1237 461.271C73.1048 461.225 73.0857 461.179 73.0665 461.133C72.6329 460.111 71.9063 459.239 70.978 458.627C70.0497 458.015 68.9611 457.691 67.8489 457.695C66.7367 457.699 65.6505 458.031 64.7267 458.65C63.803 459.269 63.0829 460.146 62.6569 461.172C60.9544 465.267 58.7868 469.368 58.253 473.697C58.018 475.611 58.1171 477.551 58.5461 479.431C54.5473 470.721 52.4708 461.253 52.4575 451.671C52.4566 449.267 52.5904 446.864 52.8582 444.475C53.0795 442.516 53.3865 440.571 53.7793 438.64C55.9226 428.162 60.5243 418.342 67.2065 409.985C70.4407 408.223 73.0562 405.513 74.7007 402.221C75.2964 401.037 75.7175 399.774 75.9507 398.47C75.5859 398.518 74.5751 392.969 74.8502 392.629C74.3418 391.859 73.4318 391.476 72.8765 390.724C70.1149 386.985 66.31 387.638 64.3237 392.719C60.0805 394.857 60.0395 398.404 62.6431 401.814C64.2995 403.985 64.5271 406.921 65.9805 409.244C65.8309 409.435 65.6754 409.62 65.5259 409.811C62.7926 413.321 60.4103 417.09 58.4132 421.063C58.8988 416.612 58.3192 412.108 56.7219 407.924C55.103 404.025 52.0688 400.74 49.3968 397.369C46.1872 393.32 39.6058 395.087 39.0403 400.22C39.0348 400.27 39.0295 400.319 39.0243 400.369C39.4211 400.593 39.8097 400.83 40.1898 401.081C40.6673 401.4 41.0373 401.855 41.2514 402.387C41.4654 402.919 41.5135 403.504 41.3892 404.063C41.265 404.623 40.9743 405.133 40.5552 405.525C40.1361 405.917 39.6081 406.173 39.0405 406.261L38.9824 406.27C39.1238 407.698 39.3737 409.114 39.73 410.504C36.3021 423.742 43.7027 428.563 54.2697 428.78C54.503 428.899 54.7303 429.018 54.9635 429.132C52.957 434.81 51.6985 440.724 51.2194 446.726C50.9482 450.267 50.9643 453.825 51.2673 457.363L51.2493 457.238C50.4837 453.303 48.3817 449.753 45.2983 447.186C40.7186 443.43 34.2484 442.046 29.3077 439.027C28.7826 438.69 28.1721 438.51 27.5481 438.509C26.9242 438.507 26.3128 438.684 25.7861 439.018C25.2593 439.352 24.8393 439.83 24.5754 440.394C24.3116 440.959 24.2149 441.587 24.2969 442.205C24.3035 442.249 24.3102 442.293 24.3171 442.337C25.0536 442.636 25.7707 442.981 26.4643 443.37C26.8611 443.594 27.2496 443.831 27.6298 444.082C28.1073 444.4 28.4773 444.856 28.6913 445.388C28.9053 445.92 28.9534 446.504 28.8292 447.064C28.7049 447.624 28.4142 448.134 27.9951 448.526C27.5761 448.918 27.0481 449.174 26.4805 449.262L26.4223 449.271C26.3805 449.277 26.3446 449.283 26.3028 449.289C27.5612 452.289 29.3274 455.051 31.5241 457.453C33.6675 469.008 42.8733 470.105 52.7206 466.74H52.7266C53.8071 471.428 55.3725 475.991 57.3978 480.357H74.0846C74.1445 480.171 74.1983 479.98 74.2521 479.795C72.7076 479.892 71.1569 479.8 69.6348 479.521C70.8729 478.004 72.1109 476.475 73.349 474.958C73.3766 474.929 73.4026 474.899 73.4268 474.868C74.0548 474.092 74.6887 473.321 75.3167 472.545L75.3171 472.544C75.3505 470.164 75.077 467.79 74.5033 465.48L74.5028 465.479Z" fill="#F2F2F2"/>
    <path d="M24.8911 481.77L456.606 482C456.842 482 457.069 481.906 457.236 481.739C457.403 481.572 457.497 481.346 457.497 481.11C457.497 480.874 457.403 480.648 457.236 480.481C457.069 480.314 456.842 480.22 456.606 480.22L24.8911 479.99C24.6552 479.991 24.4291 480.085 24.2626 480.252C24.096 480.419 24.0024 480.645 24.0024 480.88C24.0024 481.116 24.096 481.342 24.2626 481.509C24.4291 481.675 24.6552 481.769 24.8911 481.77V481.77Z" fill="#CACACA"/>
    <path d="M411.015 274.615H271.088C268.387 274.612 265.798 273.539 263.888 271.632C261.979 269.725 260.904 267.14 260.901 264.443V134.594C260.904 131.897 261.979 129.312 263.888 127.405C265.798 125.498 268.387 124.425 271.088 124.422H411.015C413.716 124.425 416.305 125.498 418.215 127.405C420.124 129.312 421.199 131.897 421.202 134.594V264.443C421.199 267.14 420.124 269.725 418.215 271.632C416.305 273.539 413.716 274.612 411.015 274.615V274.615Z" fill="#E6E6E6"/>
    <path d="M381.564 267.754H277.961C275.26 267.751 272.671 266.678 270.761 264.771C268.851 262.864 267.777 260.279 267.774 257.582V141.461C267.777 138.764 268.851 136.178 270.761 134.271C272.671 132.364 275.26 131.292 277.961 131.289H404.144C406.844 131.292 409.434 132.364 411.343 134.271C413.253 136.178 414.327 138.764 414.33 141.461V235.035C414.321 243.71 410.865 252.026 404.723 258.16C398.58 264.294 390.251 267.744 381.564 267.754Z" fill="white"/>
    <path d="M326.504 170.033C326.505 172.991 325.627 175.882 323.982 178.341C322.338 180.801 319.999 182.718 317.263 183.85C314.528 184.983 311.517 185.28 308.612 184.703C305.707 184.127 303.038 182.704 300.944 180.613C298.849 178.522 297.422 175.858 296.844 172.958C296.265 170.058 296.561 167.051 297.694 164.319C298.826 161.586 300.745 159.25 303.207 157.607C305.669 155.963 308.564 155.085 311.526 155.084C313.493 155.082 315.441 155.467 317.259 156.217C319.077 156.967 320.729 158.068 322.12 159.457C323.511 160.845 324.615 162.494 325.367 164.309C326.119 166.124 326.506 168.069 326.504 170.033V170.033Z" fill="#FAC213"/>
    <path d="M336.788 197.008H300.405C298.309 197.008 296.61 198.705 296.61 200.798V202.609C296.61 204.701 298.309 206.398 300.405 206.398H336.788C338.884 206.398 340.583 204.701 340.583 202.609V200.798C340.583 198.705 338.884 197.008 336.788 197.008Z" fill="#3F3D56"/>
    <path d="M381.576 215.788H300.529C298.433 215.788 296.734 217.484 296.734 219.577V221.388C296.734 223.481 298.433 225.177 300.529 225.177H381.576C383.672 225.177 385.371 223.481 385.371 221.388V219.577C385.371 217.484 383.672 215.788 381.576 215.788Z" fill="#3F3D56"/>
    <path d="M381.576 234.566H300.529C298.433 234.566 296.734 236.263 296.734 238.356V240.167C296.734 242.259 298.433 243.956 300.529 243.956H381.576C383.672 243.956 385.371 242.259 385.371 240.167V238.356C385.371 236.263 383.672 234.566 381.576 234.566Z" fill="#3F3D56"/>
    <path d="M311.86 172.201C314.754 172.201 317.1 169.858 317.1 166.968C317.1 164.079 314.754 161.736 311.86 161.736C308.966 161.736 306.62 164.079 306.62 166.968C306.62 169.858 308.966 172.201 311.86 172.201Z" fill="white"/>
    <path d="M317.477 174.07H306.249C305.554 174.071 304.888 174.346 304.397 174.837C303.906 175.327 303.63 175.992 303.629 176.686C303.789 178.927 304.139 181.15 304.677 183.331C306.929 184.489 309.438 185.058 311.97 184.984C314.502 184.909 316.974 184.194 319.153 182.905C319.634 180.86 319.949 178.781 320.097 176.686C320.096 175.992 319.82 175.327 319.328 174.837C318.837 174.346 318.171 174.071 317.477 174.07V174.07Z" fill="white"/>
    <path d="M397.45 156.559C395.493 156.559 393.58 155.98 391.953 154.894C390.326 153.808 389.058 152.265 388.309 150.46C387.56 148.655 387.364 146.668 387.746 144.752C388.128 142.835 389.07 141.075 390.454 139.693C391.837 138.311 393.6 137.37 395.52 136.989C397.439 136.608 399.428 136.804 401.236 137.551C403.044 138.299 404.589 139.566 405.676 141.19C406.764 142.815 407.344 144.725 407.344 146.679C407.344 149.299 406.301 151.812 404.446 153.665C402.59 155.518 400.074 156.559 397.45 156.559V156.559Z" fill="#E6E6E6"/>
    <path d="M400.9 148.747L398.83 146.679L400.9 144.612C401.083 144.429 401.186 144.181 401.186 143.923C401.186 143.664 401.083 143.416 400.9 143.234C400.717 143.051 400.469 142.948 400.21 142.948C399.951 142.948 399.703 143.051 399.52 143.234L397.449 145.301L395.379 143.234C395.196 143.051 394.948 142.948 394.689 142.948C394.43 142.948 394.182 143.051 393.999 143.234C393.816 143.416 393.713 143.664 393.713 143.923C393.713 144.181 393.816 144.429 393.999 144.612L396.069 146.679L393.999 148.747C393.816 148.93 393.713 149.178 393.713 149.436C393.713 149.694 393.816 149.942 393.999 150.125C394.182 150.308 394.43 150.411 394.689 150.411C394.948 150.411 395.196 150.308 395.379 150.125L397.449 148.058L399.52 150.125C399.61 150.216 399.718 150.287 399.836 150.336C399.955 150.385 400.082 150.411 400.21 150.411C400.338 150.411 400.465 150.385 400.583 150.336C400.702 150.287 400.809 150.216 400.9 150.125C400.991 150.035 401.063 149.927 401.112 149.809C401.161 149.691 401.186 149.564 401.186 149.436C401.186 149.308 401.161 149.181 401.112 149.063C401.063 148.945 400.991 148.837 400.9 148.747V148.747Z" fill="white"/>
    </svg>
    