<svg width="564" height="458" viewBox="0 0 564 458" fill="none" xmlns="http://www.w3.org/2000/svg">
    <g clip-path="url(#clip0_0_1)">
    <path opacity="0.18" d="M264.494 33.084C255.279 33.2327 246.098 34.265 237.08 36.1668C203.246 43.6918 175.284 66.8413 149.944 90.4672C128.752 110.225 107.896 131.595 96.866 158.402C86.3262 184.116 85.6534 213.235 73.4457 238.276C65.723 254.153 53.8236 267.521 44.363 282.445C28.3991 307.669 20.2139 341.076 34.3838 367.42C42.4569 382.4 56.5987 393.064 70.7126 402.565C106.859 426.891 146.748 447.224 189.846 453.572C206.301 455.996 222.98 456.374 239.602 457.173C253.941 457.888 268.447 458.953 282.547 456.276C317.824 449.578 344.538 421.048 377.237 406.222C400.489 395.67 426.292 392.307 450.988 385.973C475.684 379.639 500.94 369.354 516.47 349.063C530.331 330.944 534.214 307.921 536.624 285.822C538.951 264.537 525.916 244.61 517.941 225.034C500.702 182.729 482.692 139.919 451.226 105.923C419.046 71.3491 376.856 47.7031 330.565 38.2968C313.253 35.0026 295.683 33.2534 278.062 33.07C273.549 32.9859 269.021 32.9578 264.494 33.084Z" fill="#43919B"/>
    <path d="M239.421 211.217C239.31 210.505 238.982 209.844 238.479 209.327C237.977 208.81 237.326 208.462 236.617 208.331C235.912 208.212 235.19 208.25 234.501 208.444C233.813 208.638 233.176 208.982 232.637 209.452C231.948 210.018 231.457 210.788 231.235 211.652C231.083 212.553 231.136 213.478 231.39 214.356C231.628 215.607 232.103 216.801 232.791 217.874C234.193 219.863 237.5 220.564 238.51 217.874C238.626 217.005 238.659 216.128 238.608 215.253C238.762 213.88 239.561 212.633 239.421 211.217Z" fill="#FCA89E"/>
    <path d="M191.486 94.2367L229.875 290.965C230.764 295.523 229.806 300.248 227.212 304.1C224.618 307.952 220.6 310.617 216.042 311.508L130.868 328.114C126.313 329.012 121.587 328.066 117.729 325.483C113.871 322.9 111.197 318.892 110.293 314.339L71.9036 117.568C71.0142 113.012 71.9702 108.29 74.5614 104.438C77.1526 100.586 81.1671 97.9198 85.7231 97.0253L170.883 80.4059C173.139 79.9568 175.462 79.9565 177.719 80.405C179.976 80.8535 182.122 81.742 184.035 83.0199C185.948 84.2977 187.591 85.9397 188.869 87.8523C190.148 89.7649 191.037 91.9105 191.486 94.1667V94.2367Z" fill="#43919B"/>
    <path d="M169.715 83.6552L88.1255 99.5705C78.9478 101.361 72.9594 110.251 74.75 119.426L112.153 311.097C113.944 320.273 122.836 326.261 132.013 324.47L213.602 308.555C222.78 306.765 228.768 297.875 226.978 288.699L189.574 97.028C187.784 87.8521 178.892 81.8649 169.715 83.6552Z" fill="#473F47"/>
    <path d="M186.721 99.7579L222.937 285.36C223.715 289.576 222.786 293.929 220.355 297.46C217.924 300.992 214.189 303.414 209.973 304.193L133.531 319.103C130.729 319.664 127.83 319.481 125.121 318.571C122.425 317.699 120.01 316.124 118.126 314.008C116.241 311.892 114.955 309.312 114.399 306.534L78.1966 120.918C77.4235 116.698 78.3578 112.344 80.7941 108.812C83.2303 105.281 86.9692 102.861 91.1892 102.084L104.098 99.5337L104.588 101.888C104.912 103.38 105.67 104.744 106.768 105.806C107.865 106.869 109.253 107.582 110.755 107.857C111.76 108.054 112.792 108.054 113.797 107.857L149.284 100.935C151.307 100.537 153.093 99.3613 154.256 97.6603C155.42 95.9594 155.87 93.8695 155.507 91.8406L155.045 89.6125L167.659 87.1743C171.77 86.361 176.036 87.1479 179.587 89.3743C181.424 90.5243 183.005 92.0394 184.232 93.8256C185.459 95.6118 186.306 97.6309 186.721 99.7579Z" fill="white"/>
    <path opacity="0.18" d="M150.855 222.119C165.415 222.119 177.218 210.318 177.218 195.761C177.218 181.203 165.415 169.402 150.855 169.402C136.295 169.402 124.491 181.203 124.491 195.761C124.491 210.318 136.295 222.119 150.855 222.119Z" fill="#43919B"/>
    <path d="M153.069 215.183L152.158 210.475C149.642 210.981 147.033 210.768 144.632 209.858L145.109 206.523C147.339 207.389 149.769 207.603 152.116 207.139C155.452 206.495 157.288 204.127 156.756 201.534C156.223 198.942 154.121 197.751 150.392 197.036C145.263 196.125 141.899 194.57 141.114 190.534C140.329 186.498 142.516 183.191 146.636 181.622L145.725 176.927L148.612 176.367L149.495 180.879C151.623 180.478 153.817 180.622 155.873 181.3L155.354 184.649C153.37 183.951 151.233 183.806 149.173 184.228C145.599 184.929 144.674 187.367 145.052 189.217C145.529 191.641 147.505 192.51 151.864 193.421C157.064 194.402 159.951 196.335 160.792 200.427C161.507 204.099 159.643 208.05 155.018 209.802L155.957 214.622L153.069 215.183Z" fill="#43919B"/>
    <path d="M494.563 117.849L462.691 320.406C461.95 325.1 459.375 329.307 455.533 332.102C451.69 334.898 446.895 336.054 442.2 335.316L354.518 321.514C352.193 321.153 349.962 320.338 347.952 319.116C345.942 317.893 344.193 316.287 342.804 314.388C341.416 312.49 340.415 310.336 339.858 308.051C339.302 305.765 339.202 303.393 339.563 301.069L371.449 98.4828C372.183 93.791 374.752 89.583 378.589 86.7844C382.427 83.9857 387.219 82.8255 391.912 83.5589L479.594 97.3477C484.283 98.0728 488.493 100.628 491.299 104.454C494.106 108.279 495.28 113.061 494.563 117.751V117.849Z" fill="#43919B"/>
    <path d="M373.512 101.28L342.462 298.622C340.975 308.071 347.431 316.937 356.883 318.423L440.883 331.635C450.334 333.121 459.201 326.666 460.688 317.217L491.738 119.874C493.225 110.425 486.769 101.56 477.317 100.073L393.317 86.8616C383.866 85.3751 374.999 91.8303 373.512 101.28Z" fill="#473F47"/>
    <path d="M488.059 121.478L457.981 312.531C457.254 316.856 454.839 320.715 451.268 323.261C447.696 325.807 443.26 326.832 438.934 326.11L360.235 313.722C357.357 313.279 354.643 312.096 352.359 310.289C350.066 308.51 348.291 306.151 347.217 303.455C346.142 300.76 345.808 297.827 346.248 294.959L376.326 103.906C377.056 99.5781 379.476 95.7177 383.054 93.1739C386.631 90.63 391.072 89.6111 395.401 90.3413L408.73 92.4292L408.352 94.8254C408.146 96.3757 408.403 97.952 409.088 99.3575C409.774 100.763 410.858 101.936 412.206 102.729C413.112 103.251 414.104 103.607 415.135 103.78L451.702 109.525C453.787 109.85 455.916 109.343 457.63 108.114C459.345 106.885 460.508 105.031 460.869 102.953L461.219 100.683L474.127 102.715C478.362 103.369 482.187 105.614 484.822 108.993C486.188 110.741 487.181 112.751 487.738 114.899C488.295 117.047 488.404 119.286 488.059 121.478Z" fill="white"/>
    <path d="M323.234 189.637H316.226C315.668 189.637 315.134 189.416 314.739 189.022C314.345 188.627 314.124 188.093 314.124 187.535C314.124 186.978 314.345 186.443 314.739 186.049C315.134 185.655 315.668 185.433 316.226 185.433H323.234C323.792 185.433 324.326 185.655 324.721 186.049C325.115 186.443 325.336 186.978 325.336 187.535C325.336 188.093 325.115 188.627 324.721 189.022C324.326 189.416 323.792 189.637 323.234 189.637ZM309.218 189.637H302.21C301.653 189.637 301.118 189.416 300.724 189.022C300.329 188.627 300.108 188.093 300.108 187.535C300.108 186.978 300.329 186.443 300.724 186.049C301.118 185.655 301.653 185.433 302.21 185.433H309.218C309.776 185.433 310.31 185.655 310.705 186.049C311.099 186.443 311.321 186.978 311.321 187.535C311.321 188.093 311.099 188.627 310.705 189.022C310.31 189.416 309.776 189.637 309.218 189.637ZM295.202 189.637H288.195C287.637 189.637 287.102 189.416 286.708 189.022C286.314 188.627 286.092 188.093 286.092 187.535C286.092 186.978 286.314 186.443 286.708 186.049C287.102 185.655 287.637 185.433 288.195 185.433H295.202C295.76 185.433 296.295 185.655 296.689 186.049C297.083 186.443 297.305 186.978 297.305 187.535C297.305 188.093 297.083 188.627 296.689 189.022C296.295 189.416 295.76 189.637 295.202 189.637ZM281.187 189.637H274.179C273.621 189.637 273.086 189.416 272.692 189.022C272.298 188.627 272.076 188.093 272.076 187.535C272.076 186.978 272.298 186.443 272.692 186.049C273.086 185.655 273.621 185.433 274.179 185.433H281.187C281.744 185.433 282.279 185.655 282.673 186.049C283.068 186.443 283.289 186.978 283.289 187.535C283.289 188.093 283.068 188.627 282.673 189.022C282.279 189.416 281.744 189.637 281.187 189.637ZM267.171 189.637H260.163C259.605 189.637 259.071 189.416 258.676 189.022C258.282 188.627 258.061 188.093 258.061 187.535C258.061 186.978 258.282 186.443 258.676 186.049C259.071 185.655 259.605 185.433 260.163 185.433H267.171C267.728 185.433 268.263 185.655 268.657 186.049C269.052 186.443 269.273 186.978 269.273 187.535C269.273 188.093 269.052 188.627 268.657 189.022C268.263 189.416 267.728 189.637 267.171 189.637ZM253.155 189.637H246.147C245.59 189.637 245.055 189.416 244.661 189.022C244.266 188.627 244.045 188.093 244.045 187.535C244.045 186.978 244.266 186.443 244.661 186.049C245.055 185.655 245.59 185.433 246.147 185.433H253.155C253.713 185.433 254.247 185.655 254.642 186.049C255.036 186.443 255.258 186.978 255.258 187.535C255.258 188.093 255.036 188.627 254.642 189.022C254.247 189.416 253.713 189.637 253.155 189.637Z" fill="#43919B"/>
    <path d="M240.009 197.919C239.492 197.936 238.989 197.75 238.607 197.4L229.133 189.119C228.925 188.934 228.756 188.709 228.636 188.459C228.516 188.208 228.447 187.936 228.432 187.659C228.418 187.381 228.459 187.103 228.553 186.842C228.646 186.58 228.791 186.339 228.978 186.134C229.026 186.079 229.078 186.028 229.133 185.98L238.607 177.306C239.027 177.005 239.543 176.869 240.056 176.924C240.569 176.979 241.044 177.221 241.391 177.604C241.737 177.987 241.931 178.483 241.934 179C241.938 179.516 241.751 180.015 241.41 180.403L233.674 187.493L241.368 194.234C241.785 194.596 242.042 195.108 242.084 195.659C242.126 196.21 241.949 196.755 241.593 197.176C241.399 197.409 241.157 197.596 240.884 197.724C240.61 197.852 240.311 197.919 240.009 197.919Z" fill="#43919B"/>
    <path d="M329.878 197.919C329.578 197.921 329.281 197.859 329.007 197.735C328.734 197.612 328.49 197.431 328.294 197.204C327.929 196.783 327.744 196.235 327.781 195.679C327.818 195.122 328.073 194.603 328.49 194.234L336.199 187.493L328.462 180.403C328.121 180.015 327.935 179.516 327.938 179C327.942 178.483 328.135 177.987 328.482 177.604C328.828 177.221 329.303 176.979 329.817 176.924C330.33 176.869 330.846 177.005 331.265 177.306L340.74 185.98C340.956 186.18 341.129 186.423 341.247 186.693C341.365 186.963 341.426 187.255 341.427 187.549C341.421 187.846 341.355 188.138 341.232 188.408C341.109 188.678 340.932 188.92 340.712 189.119L331.237 197.4C330.86 197.73 330.378 197.913 329.878 197.919Z" fill="#43919B"/>
    <path d="M318.931 339.38C318.931 350.344 314.575 360.858 306.821 368.611C299.067 376.363 288.55 380.718 277.585 380.718C266.619 380.718 256.102 376.363 248.348 368.611C240.594 360.858 236.238 350.344 236.238 339.38C236.219 338.323 236.257 337.266 236.35 336.213C237.184 325.57 242.104 315.663 250.081 308.566C258.058 301.47 268.472 297.735 279.142 298.145C289.811 298.554 299.909 303.076 307.318 310.763C314.727 318.449 318.874 328.705 318.889 339.38H318.931Z" fill="#43919B"/>
    <path opacity="0.14" d="M260.234 358.143C258.832 364.113 260.542 370.489 259.309 376.43C249.764 371.706 242.402 363.493 238.748 353.491C238.554 351.437 238.605 349.367 238.902 347.325C239.35 345.148 239.35 342.902 238.902 340.725C238.312 339.085 237.445 337.559 236.337 336.213C236.799 330.173 238.586 324.308 241.57 319.036C244.554 313.764 248.663 309.213 253.604 305.707C253.66 305.984 253.66 306.27 253.604 306.548L251.838 314.409C252.189 316.731 252.189 319.093 251.838 321.415C251.644 322.573 251.2 323.674 250.537 324.642C249.874 325.61 249.007 326.421 247.998 327.021C247.24 327.342 246.5 327.707 245.784 328.114C245.101 328.674 244.53 329.359 244.102 330.131C242.964 331.73 242.111 333.512 241.579 335.4C241.326 336.347 241.314 337.341 241.545 338.293C241.775 339.245 242.239 340.125 242.896 340.851L254.417 338.609C254.996 338.396 255.619 338.331 256.229 338.422C256.838 338.513 257.416 338.755 257.907 339.128C258.902 340.207 258.286 341.93 258.496 343.402C258.776 345.251 260.43 346.597 261.201 348.32C262.616 351.445 260.991 354.892 260.234 358.143Z" fill="#020202"/>
    <path opacity="0.4" d="M244.928 318.136C245.468 319.281 246.318 320.252 247.381 320.939C252.218 324.568 258.058 326.614 264.102 326.796C262.116 327.123 260.264 328.007 258.762 329.347C257.36 330.748 257.066 333.551 258.678 334.672C259.247 335.05 259.893 335.299 260.57 335.4C263.649 335.999 266.834 335.742 269.778 334.658C271.473 333.791 273.311 333.24 275.202 333.032C276.728 333.156 278.214 333.58 279.575 334.279C281.514 335.29 283.711 335.695 285.882 335.442C288.013 335.008 289.947 332.962 289.498 330.846C289.386 330.342 289.162 329.795 289.414 329.361C289.614 329.097 289.887 328.897 290.199 328.786L309.821 320.098C311.069 319.538 312.484 318.697 312.624 317.394C312.764 316.09 311.391 314.899 310.115 314.241C303.374 310.723 295.511 310.275 287.915 309.897L274.431 309.238C267.898 308.738 261.335 308.785 254.809 309.378C252.553 309.644 248.558 309.672 246.834 311.354C246.016 312.261 245.417 313.345 245.087 314.522C244.756 315.698 244.702 316.935 244.928 318.136Z" fill="#020202"/>
    <path opacity="0.14" d="M318.931 339.38C318.937 345.628 317.524 351.796 314.797 357.418C312.07 363.04 308.102 367.969 303.192 371.834C302.638 371.462 302.162 370.986 301.79 370.433C301.48 369.976 301.262 369.462 301.151 368.92C301.039 368.379 301.035 367.821 301.139 367.279C301.243 366.736 301.453 366.219 301.757 365.757C302.062 365.296 302.454 364.899 302.911 364.589C302.211 364.954 299.478 364.057 298.707 363.931L294.502 363.272C292.456 362.95 288.896 363.09 287.704 361.03C287.573 360.744 287.413 360.472 287.228 360.217C286.975 359.962 286.675 359.757 286.345 359.615C285.069 358.998 283.542 358.283 283.261 356.896C283.051 355.873 283.556 354.71 283.037 353.813C282.869 353.519 282.617 353.309 282.448 353.029C282.27 352.608 282.203 352.148 282.254 351.694C282.306 351.239 282.474 350.806 282.743 350.436C284.537 347.297 288.251 345.784 291.811 345.181C295.371 344.579 299.071 344.663 302.533 343.654C304.66 342.832 306.843 342.163 309.064 341.65C310.312 341.482 311.868 341.356 312.316 340.249C312.582 339.59 312.316 338.847 312.582 338.147C312.694 337.867 312.877 337.614 312.989 337.334C313.059 337.121 313.086 336.895 313.069 336.671C313.052 336.447 312.991 336.229 312.89 336.029C312.788 335.828 312.648 335.65 312.477 335.503C312.307 335.357 312.109 335.246 311.896 335.176L311.587 335.106C311.882 334.335 312.12 333.34 311.503 332.794C311.29 332.633 311.04 332.527 310.776 332.485C310.512 332.444 310.242 332.468 309.989 332.556C308.585 333.161 307.3 334.011 306.191 335.064C304.153 336.387 301.716 336.957 299.302 336.672C296.888 336.388 294.65 335.269 292.974 333.508C292.41 333.019 292.009 332.369 291.825 331.645C291.776 331.03 291.918 330.414 292.231 329.882C292.545 329.351 293.015 328.929 293.577 328.674C294.703 328.182 295.923 327.943 297.151 327.973C296.693 324.975 296.226 321.976 295.749 318.977C288.868 320.813 286.079 314.269 285.097 308.832C284.116 303.395 287.985 301.461 292.96 301.096C300.616 304.158 307.18 309.44 311.808 316.263C316.436 323.085 318.917 331.136 318.931 339.38Z" fill="#020202"/>
    <path d="M265.335 258.595H291.839C292.746 258.582 293.647 258.748 294.49 259.083C295.334 259.418 296.103 259.917 296.753 260.549C297.404 261.181 297.924 261.936 298.283 262.769C298.642 263.602 298.834 264.498 298.846 265.405V265.602C298.846 265.602 293.801 286.215 293.801 293.137C293.801 296.935 294.992 308.257 294.992 308.257H262.209C262.209 308.257 263.723 296.416 263.695 292.45C263.695 285.696 258.285 265.588 258.285 265.588C258.272 264.679 258.438 263.777 258.774 262.933C259.111 262.089 259.61 261.32 260.244 260.669C260.878 260.018 261.634 259.499 262.469 259.14C263.304 258.782 264.202 258.592 265.111 258.581L265.335 258.595Z" fill="#43919B"/>
    <path d="M264.06 301.713C265.377 301.713 266.681 301.489 267.984 301.377C269.68 301.223 271.376 301.251 273.086 301.265L300.164 301.601C301.181 301.546 302.199 301.684 303.164 302.007C303.642 302.173 304.067 302.465 304.392 302.852C304.718 303.24 304.933 303.708 305.014 304.207C305.14 305.511 304.047 306.576 303.01 307.374C298.231 311.052 292.625 313.505 286.681 314.521C277.543 316.076 268.167 314.143 259.224 311.718C257.78 311.424 256.411 310.837 255.202 309.995C254.124 308.917 253.139 307.75 252.259 306.506C251.403 305.723 250.671 304.816 250.086 303.815C247.633 298.028 261.958 301.727 264.06 301.713Z" fill="#473F47"/>
    <path d="M282.673 262.463C282.574 263.244 282.175 263.956 281.56 264.448C280.946 264.94 280.163 265.172 279.379 265.097C276.128 264.943 275.903 262.463 275.903 262.463V249.557H282.673V262.463Z" fill="#FCA89E"/>
    <path d="M275.903 255.933C275.903 255.933 280.108 262.547 282.673 259.366V254.209L275.903 255.933Z" fill="url(#paint0_linear_0_1)"/>
    <path d="M273.044 252.654C274.74 257.908 283.177 258.063 286.008 253.887C287.508 251.356 287.985 248.349 287.34 245.479C286.891 242.634 286.022 239.871 284.761 237.281C283.892 235.656 283.009 234.212 281.047 233.974C278.798 233.808 276.55 234.295 274.571 235.376C272.69 236.388 271.208 238.008 270.367 239.972C269.563 241.937 269.459 244.119 270.072 246.152C270.413 247.167 270.84 248.151 271.348 249.094C272.003 250.236 272.57 251.426 273.044 252.654Z" fill="#FCA89E"/>
    <path d="M275.581 325.143C274.645 325.876 273.6 326.457 272.483 326.866C270.115 327.861 265.475 329.669 266.106 331.771C267.059 334.574 270.311 334.321 272.567 333.663C276 332.485 279.269 330.875 282.294 328.87L275.581 325.143Z" fill="#473F47"/>
    <path d="M281.327 318.01C289.386 312.125 293.591 307.781 302.645 302.274C304.789 300.97 306.275 300.578 310.003 302.049C313.185 303.297 312.806 308.762 311.111 311.046C305.897 317.884 285.882 327.329 281.79 328.758C280.038 329.375 273.857 324.176 276.365 321.682C277.931 320.342 279.589 319.115 281.327 318.01Z" fill="#473F47"/>
    <path d="M277.599 329.347C278.835 330.954 280.245 332.42 281.803 333.719C284.607 335.821 286.415 336.521 288.629 335.498C291.853 333.999 288.895 330.846 286.401 328.338C284.497 326.351 282.366 324.597 280.051 323.111L277.599 329.347Z" fill="#473F47"/>
    <path d="M278.02 321.612L281.454 324.414C282.165 325.005 282.771 325.71 283.248 326.502C284.369 328.59 280.445 332.85 277.992 330.342C275.539 327.833 273.227 325.157 273.227 325.157L278.02 321.612Z" fill="#FCA89E"/>
    <path d="M267.76 326.096C258.397 321.387 252.651 319.678 246.638 311.2C245.895 310.115 245.376 308.894 245.109 307.607C244.842 306.32 244.833 304.993 245.082 303.703C245.811 301.531 248.978 300.228 252.721 301.125C255.86 301.867 276.898 318.347 280.177 321.457C281.579 322.859 277.29 329.487 273.744 328.338C271.685 327.775 269.682 327.024 267.76 326.096Z" fill="#473F47"/>
    <path d="M287.032 236.735C286.665 237.605 286.131 238.395 285.462 239.061C284.086 240.39 282.325 241.249 280.43 241.513C277.626 241.749 274.803 241.655 272.021 241.233C271.956 241.68 271.768 242.1 271.479 242.446C271.189 242.793 270.809 243.052 270.381 243.195C270.802 245.134 271.364 247.04 272.063 248.898C272.736 250.734 273.717 252.415 274.459 254.209C272.161 252.626 270.409 249.921 268.741 247.735C267.844 246.699 267.129 245.52 266.625 244.246C266.369 243.609 266.27 242.921 266.336 242.238C266.402 241.555 266.631 240.898 267.003 240.322C267.383 239.936 267.692 239.485 267.914 238.991C267.998 238.565 267.998 238.127 267.914 237.702C267.885 236.682 268.084 235.669 268.497 234.736C268.909 233.802 269.524 232.973 270.297 232.307C271.856 230.979 273.696 230.021 275.679 229.504C277.374 228.916 279.181 228.719 280.963 228.93C282.412 229.294 283.744 230.024 284.831 231.05C285.918 232.075 286.724 233.362 287.172 234.787C287.315 235.436 287.267 236.113 287.032 236.735Z" fill="#473F47"/>
    <path d="M271.222 249.193C270.923 249.243 270.637 249.354 270.382 249.518C270.127 249.681 269.907 249.895 269.736 250.145C269.642 250.341 269.587 250.552 269.575 250.769C269.563 250.985 269.594 251.202 269.666 251.407C269.817 251.814 270.035 252.192 270.311 252.528C270.454 252.727 270.63 252.902 270.829 253.046C271.175 253.241 271.568 253.338 271.965 253.326H272.876C273.034 253.326 273.189 253.282 273.324 253.2C273.466 253.088 273.573 252.937 273.633 252.766C273.842 252.124 273.842 251.432 273.633 250.79C273.494 250.187 273.199 249.632 272.778 249.178C272.385 248.814 271.74 249.052 271.222 249.193Z" fill="#FCA89E"/>
    <path d="M311.055 242.55H305.35C304.39 242.55 303.612 243.328 303.612 244.288V258.497C303.612 259.457 304.39 260.235 305.35 260.235H311.055C312.015 260.235 312.793 259.457 312.793 258.497V244.288C312.793 243.328 312.015 242.55 311.055 242.55Z" fill="#473F47"/>
    <path d="M268.237 259.716L247.676 240L239.168 217.635L232.314 218.952L240.43 245.003L263.415 276.462L268.237 259.716Z" fill="#43919B"/>
    <path opacity="0.18" d="M419.102 224.277C433.662 224.277 445.466 212.476 445.466 197.919C445.466 183.362 433.662 171.561 419.102 171.561C404.542 171.561 392.738 183.362 392.738 197.919C392.738 212.476 404.542 224.277 419.102 224.277Z" fill="#43919B"/>
    <path d="M414.673 216.963L415.388 212.212C412.849 211.844 410.465 210.771 408.506 209.115L410.076 206.131C411.899 207.707 414.137 208.729 416.523 209.073C419.873 209.578 422.395 207.966 422.788 205.29C423.18 202.613 421.569 200.848 418.289 198.928C413.762 196.349 411.113 193.757 411.73 189.679C412.346 185.602 415.486 183.233 419.915 183.149L420.629 178.413L423.545 178.861L422.858 183.401C424.996 183.736 427.016 184.604 428.731 185.924L427.119 188.909C425.486 187.588 423.523 186.74 421.442 186.456C417.826 185.91 416.144 187.858 415.836 189.763C415.472 192.202 417.041 193.687 420.868 195.971C425.423 198.634 427.497 201.422 426.909 205.612C426.348 209.311 423.278 212.422 418.331 212.52L417.602 217.383L414.673 216.963Z" fill="#43919B"/>
    <path d="M205.095 244.548L120.584 261.509L125.425 285.621L209.936 268.66L205.095 244.548Z" fill="#43919B"/>
    <path d="M373.602 239.947L372.865 245.009L410.091 250.425L410.828 245.364L373.602 239.947Z" fill="#43919B"/>
    <path d="M415.026 245.992L414.289 251.053L445.732 255.628L446.468 250.567L415.026 245.992Z" fill="#43919B"/>
    <path d="M372.089 250.375L371.353 255.436L399.494 259.531L400.231 254.469L372.089 250.375Z" fill="#43919B"/>
    <path d="M403.567 254.956L402.83 260.017L422.511 262.881L423.248 257.819L403.567 254.956Z" fill="#43919B"/>
    <path d="M428.619 258.609L427.882 263.67L444.234 266.049L444.971 260.988L428.619 258.609Z" fill="#43919B"/>
    <path d="M370.581 260.835L369.845 265.896L409.484 271.664L410.221 266.602L370.581 260.835Z" fill="#43919B"/>
    <path d="M415.61 265.602L414.894 270.667L444.05 274.789L444.767 269.725L415.61 265.602Z" fill="#43919B"/>
    <path d="M369.054 271.255L368.317 276.316L441.189 286.919L441.925 281.858L369.054 271.255Z" fill="#43919B"/>
    <path d="M309.905 250.608C310.021 249.898 310.352 249.24 310.853 248.724C311.354 248.208 312.002 247.858 312.708 247.721C313.411 247.601 314.132 247.64 314.818 247.834C315.504 248.027 316.139 248.372 316.675 248.842C317.358 249.413 317.848 250.181 318.076 251.042C318.231 251.944 318.173 252.87 317.908 253.747C317.667 254.997 317.192 256.191 316.507 257.264C315.105 259.254 311.797 259.954 310.774 257.264C310.658 256.396 310.625 255.518 310.676 254.643C310.62 253.27 309.765 252.023 309.905 250.608Z" fill="#FCA89E"/>
    <path d="M292.288 258.679C292.484 257.516 293.535 257.796 295.652 258.889C300.801 261.738 305.58 265.211 309.878 269.231C310.172 264.565 310.256 259.87 310.13 255.218C313.34 255.008 315.19 255.75 318.217 256.857C318.498 263.57 317.852 270.29 316.297 276.826C315.708 279.096 314.895 281.689 312.625 282.431C309.822 283.37 307.313 280.918 304.86 279.376C302.632 277.975 298.987 277.891 297.207 275.985C295.806 274.584 295.652 271.781 295.133 269.988C294.264 266.961 293.101 263.892 292.484 260.809C292.307 260.114 292.241 259.395 292.288 258.679Z" fill="#43919B"/>
    </g>
    <path d="M345.26 37.7987C340.798 121.201 284.827 143 284.827 143C222.688 106.08 223 33.9822 223 33.9822C262.623 23.3418 285.274 1.56311 285.981 0.837158C300.728 22.3047 345.26 37.7987 345.26 37.7987Z" fill="url(#paint1_linear_0_1)"/>
    <path d="M338.151 42.2601C334.199 116.487 284.744 135.892 284.744 135.892C229.836 103.03 230.107 38.8671 230.107 38.8671C265.111 29.3793 285.12 9.96386 285.745 9.36694C298.779 28.4787 338.151 42.2601 338.151 42.2601Z" fill="#43919B"/>
    <path d="M285.551 9.36694L284.513 135.892C229.838 103.033 230.107 38.8751 230.107 38.8751C264.962 29.3881 284.886 9.97428 285.509 9.37742L285.551 9.36694Z" fill="url(#paint2_linear_0_1)"/>
    <path d="M284.841 73.34C289.945 73.34 294.082 68.8847 294.082 63.3887C294.082 57.8926 289.945 53.4373 284.841 53.4373C279.738 53.4373 275.601 57.8926 275.601 63.3887C275.601 68.8847 279.738 73.34 284.841 73.34Z" fill="#473F47"/>
    <path d="M278.444 87.5564H289.817L286.591 71.9185H282.444L278.444 87.5564Z" fill="#473F47"/>
    <path opacity="0.18" d="M232.951 60.5454H245.641V50.594H255.697" stroke="white" stroke-width="1.22794" stroke-miterlimit="10"/>
    <path opacity="0.18" d="M235.795 69.0752H251.533V88.978H261.384" stroke="white" stroke-width="1.22794" stroke-miterlimit="10"/>
    <path opacity="0.18" d="M336.731 53.4372H316.453V42.0642H298.347" stroke="white" stroke-width="1.22794" stroke-miterlimit="10"/>
    <path opacity="0.18" d="M333.887 73.3403H313.876V93.2431H299.768" stroke="white" stroke-width="1.22794" stroke-miterlimit="10"/>
    <path opacity="0.18" d="M255.698 108.881H272.528V101.773H282.709" stroke="white" stroke-width="1.22794" stroke-miterlimit="10"/>
    <defs>
    <linearGradient id="paint0_linear_0_1" x1="280.767" y1="245.101" x2="276.928" y2="277.611" gradientUnits="userSpaceOnUse">
    <stop offset="0.01"/>
    <stop offset="0.08" stop-opacity="0.69"/>
    <stop offset="0.21" stop-opacity="0.32"/>
    <stop offset="1" stop-opacity="0"/>
    </linearGradient>
    <linearGradient id="paint1_linear_0_1" x1="434.657" y1="-5.95571" x2="293.037" y2="68.4376" gradientUnits="userSpaceOnUse">
    <stop/>
    <stop offset="1" stop-color="#43919B"/>
    </linearGradient>
    <linearGradient id="paint2_linear_0_1" x1="64.6284" y1="117.4" x2="304.647" y2="69.4664" gradientUnits="userSpaceOnUse">
    <stop/>
    <stop offset="1" stop-opacity="0"/>
    </linearGradient>
    <clipPath id="clip0_0_1">
    <rect width="564" height="425" fill="white" transform="translate(0 33)"/>
    </clipPath>
    </defs>
    </svg>
    