<svg width="69" height="69" viewBox="0 0 69 69" fill="none" xmlns="http://www.w3.org/2000/svg">
    <path d="M41.3847 22.6948H28.0348C24.3483 22.6948 21.3599 25.6833 21.3599 29.3698V42.7196C21.3599 46.4061 24.3483 49.3946 28.0348 49.3946H41.3847C45.0711 49.3946 48.0596 46.4061 48.0596 42.7196V29.3698C48.0596 25.6833 45.0711 22.6948 41.3847 22.6948Z" stroke="#43919B" stroke-width="4" stroke-linecap="round" stroke-linejoin="round"/>
    <path d="M39.9918 35.2613C40.1565 36.3723 39.9667 37.507 39.4494 38.504C38.9321 39.5009 38.1136 40.3094 37.1104 40.8144C36.1071 41.3193 34.9701 41.4951 33.8612 41.3167C32.7523 41.1382 31.7279 40.6147 30.9337 39.8205C30.1395 39.0262 29.6159 38.0018 29.4375 36.8929C29.259 35.784 29.4348 34.647 29.9398 33.6438C30.4447 32.6405 31.2532 31.822 32.2502 31.3047C33.2471 30.7874 34.3818 30.5976 35.4929 30.7624C36.6262 30.9304 37.6754 31.4585 38.4855 32.2686C39.2956 33.0788 39.8237 34.128 39.9918 35.2613Z" stroke="#43919B" stroke-width="4" stroke-linecap="round" stroke-linejoin="round"/>
    <circle cx="34.3759" cy="34.3759" r="32.3759" stroke="#43919B" stroke-width="4"/>
    </svg>
    