<svg width="31" height="38" viewBox="0 0 31 38" fill="none" xmlns="http://www.w3.org/2000/svg">
    <path d="M15.2 0C9.89062 0 5.6 4.29062 5.6 9.6V13.6H2.4C1.08438 13.6 0 14.6844 0 16V35.2C0 36.5156 1.08438 37.6 2.4 37.6H28C29.3156 37.6 30.4 36.5156 30.4 35.2V16C30.4 14.6844 29.3156 13.6 28 13.6H24.8V9.6C24.8 4.29062 20.5094 0 15.2 0ZM15.2 1.6C19.6531 1.6 23.2 5.14687 23.2 9.6V13.6H7.2V9.6C7.2 5.14687 10.7469 1.6 15.2 1.6ZM2.4 15.2H28C28.4438 15.2 28.8 15.5562 28.8 16V35.2C28.8 35.6437 28.4438 36 28 36H2.4C1.95625 36 1.6 35.6437 1.6 35.2V16C1.6 15.5562 1.95625 15.2 2.4 15.2ZM15.2 21.6C13.8406 21.6 12.8 22.6406 12.8 24C12.8 24.7187 13.1188 25.35 13.6 25.75V28C13.6 28.8812 14.3188 29.6 15.2 29.6C16.0813 29.6 16.8 28.8812 16.8 28V25.75C17.2812 25.35 17.6 24.7187 17.6 24C17.6 22.6406 16.5594 21.6 15.2 21.6Z" fill="#FCFCFC"/>
    </svg>
    