<svg width="86" height="86" viewBox="0 0 86 86" fill="none" xmlns="http://www.w3.org/2000/svg">
    <path d="M43 86C66.7482 86 86 66.7482 86 43C86 19.2518 66.7482 0 43 0C19.2517 0 0 19.2518 0 43C0 66.7482 19.2517 86 43 86Z" fill="#43919B"/>
    <path d="M43.5 76C62.0015 76 77 61.0015 77 42.5C77 23.9985 62.0015 9 43.5 9C24.9985 9 10 23.9985 10 42.5C10 61.0015 24.9985 76 43.5 76Z" fill="white"/>
    <path d="M43.5 73C60.3447 73 74 59.3447 74 42.5C74 25.6553 60.3447 12 43.5 12C26.6553 12 13 25.6553 13 42.5C13 59.3447 26.6553 73 43.5 73Z" fill="#43919B"/>
    <path d="M43.3219 48.0382C42.8363 48.0432 42.3654 47.8672 41.9964 47.5426C41.7796 47.3468 41.6064 47.1053 41.4886 46.8344C41.3707 46.5636 41.311 46.2698 41.3136 45.9731V25.673C41.3136 25.1253 41.5252 24.6001 41.9018 24.2128C42.2784 23.8255 42.7893 23.6079 43.3219 23.6079C43.8546 23.6079 44.3654 23.8255 44.742 24.2128C45.1187 24.6001 45.3303 25.1253 45.3303 25.673V43.5982L59.2282 41.5331C59.7608 41.4537 60.3024 41.5951 60.7336 41.9262C61.1649 42.2574 61.4505 42.7511 61.5278 43.2988C61.605 43.8465 61.4675 44.4033 61.1454 44.8468C60.8234 45.2902 60.3433 45.5839 59.8106 45.6634L43.6031 48.0589L43.3219 48.0382Z" fill="white"/>
    </svg>
    