<svg width="86" height="86" viewBox="0 0 86 86" fill="none" xmlns="http://www.w3.org/2000/svg">
    <path d="M43 86C66.7482 86 86 66.7482 86 43C86 19.2518 66.7482 0 43 0C19.2518 0 0 19.2518 0 43C0 66.7482 19.2518 86 43 86Z" fill="#43919B"/>
    <path d="M53.7164 42.6311C51.7627 41.5762 49.757 40.6205 47.707 39.7677C47.5039 39.7086 47.3277 39.5805 47.2089 39.4056C47.09 39.2306 47.0358 39.0197 47.0557 38.8091C47.0557 35.2821 47.0557 31.7551 47.0557 28.2281C47.0721 28.0753 47.0967 27.9235 47.1294 27.7734C49.6975 28.5875 52.0042 30.0673 53.8147 32.0623C55.5475 30.0592 57.1697 28.1544 58.8287 26.225C55.9222 22.9644 52.0449 20.7241 47.7684 19.8345C47.154 19.6994 46.9573 19.4782 46.9819 18.8514C46.9819 17.6225 46.9819 16.3936 46.9819 15.0049H40.5915V19.3676C38.9217 19.8475 37.2805 20.4219 35.6758 21.0881C31.1534 23.3247 28.3023 26.8271 28.0688 32.0623C27.8353 37.2975 30.3177 40.8245 34.619 43.307C36.3714 44.2527 38.1722 45.1059 40.0139 45.8631C40.2196 45.9178 40.3987 46.0449 40.5184 46.2209C40.638 46.397 40.6902 46.6103 40.6653 46.8217C40.6653 49.7465 40.6653 52.6468 40.6653 55.5593V59.3075C37.2803 58.644 34.1748 56.9735 31.7556 54.5147L26.25 60.5365C30.1045 64.3881 35.1794 66.7778 40.6038 67.2955V70.9823H47.0557V67.062L47.9774 66.8286C49.9213 66.3731 51.78 65.6097 53.4829 64.5673C61.5815 59.6025 62.0239 47.5836 53.7164 42.6311ZM40.5547 36.4865C39.5025 36.2375 38.5597 35.6534 37.8682 34.8223C37.1767 33.9911 36.7739 32.9579 36.7204 31.878C36.7489 30.8352 37.1521 29.8376 37.8563 29.0679C38.5605 28.2983 39.5185 27.8081 40.5547 27.6874V36.4865ZM47.1171 58.7545C47.1171 58.5825 47.0557 58.4104 47.0557 58.2384V49.0583C48.1636 49.3137 49.1507 49.9407 49.8527 50.835C50.5548 51.7294 50.9295 52.8371 50.9145 53.974C50.9214 55.0886 50.5494 56.1724 49.8594 57.0477C49.1694 57.923 48.2025 58.5378 47.1171 58.7914V58.7545Z" fill="white"/>
    <path d="M42.9994 79.9907C35.6833 79.9907 28.5316 77.8212 22.4485 73.7567C16.3654 69.6921 11.6243 63.9149 8.82455 57.1558C6.02482 50.3967 5.29228 42.9591 6.71957 35.7836C8.14686 28.6081 11.6699 22.0171 16.8431 16.8438C22.0163 11.6706 28.6074 8.14759 35.7829 6.7203C42.9583 5.29301 50.3959 6.02555 57.1551 8.82528C63.9142 11.625 69.6913 16.3662 73.7559 22.4492C77.8205 28.5323 79.9899 35.6841 79.9899 43.0001C79.9769 52.8066 76.0756 62.2078 69.1413 69.142C62.207 76.0763 52.8059 79.9777 42.9994 79.9907ZM42.9994 7.23846C35.9264 7.23846 29.0122 9.33585 23.1313 13.2654C17.2503 17.1949 12.6666 22.7801 9.95992 29.3147C7.25321 35.8493 6.54501 43.0398 7.92488 49.9769C9.30475 56.9139 12.7107 63.2861 17.7121 68.2874C22.7134 73.2888 29.0855 76.6947 36.0226 78.0746C42.9597 79.4545 50.1502 78.7463 56.6848 76.0396C63.2193 73.3328 68.8046 68.7492 72.7341 62.8682C76.6636 56.9872 78.761 50.0731 78.761 43.0001C78.7513 33.5185 74.9804 24.4281 68.2759 17.7236C61.5714 11.0191 52.481 7.24822 42.9994 7.23846V7.23846Z" fill="white"/>
    </svg>
    