<svg width="74" height="86" viewBox="0 0 74 86" fill="none" xmlns="http://www.w3.org/2000/svg">
    <path d="M73.96 22.3595C71.2611 72.8127 37.4015 86 37.4015 86C-0.18872 63.6656 1.8656e-05 20.0508 1.8656e-05 20.0508C23.9697 13.614 37.672 0.43916 38.0999 0C47.0209 12.9866 73.96 22.3595 73.96 22.3595Z" fill="#43919B"/>
    <path d="M66.5439 26.3993C64.3805 66.8575 37.2397 77.4324 37.2397 77.4324C7.10849 59.5225 7.25978 24.5479 7.25978 24.5479C26.4732 19.3862 37.4566 8.8214 37.7995 8.46924C44.9503 18.8831 66.5439 26.3993 66.5439 26.3993Z" fill="white"/>
    <path d="M65.3337 27.2703C63.2806 65.5992 37.5246 75.6175 37.5246 75.6175C8.93066 58.6502 9.07423 25.5164 9.07423 25.5164C27.3073 20.6263 37.7304 10.6176 38.0558 10.2839C44.8418 20.1497 65.3337 27.2703 65.3337 27.2703Z" fill="#43919B"/>
    <path d="M33.8944 53.839C33.5002 53.8398 33.11 53.758 32.7484 53.5986C32.3868 53.4392 32.0616 53.2058 31.7933 52.9129L23.1147 43.2626C22.6099 42.6899 22.3482 41.9385 22.3865 41.1714C22.4248 40.4043 22.7598 39.6835 23.3191 39.1653C23.8783 38.6472 24.6165 38.3735 25.3735 38.4037C26.1305 38.4338 26.8453 38.7654 27.3626 39.3265L33.9721 46.6615L50.1006 29.3243C50.6264 28.7716 51.3459 28.4513 52.1031 28.433C52.8603 28.4146 53.5941 28.6996 54.1453 29.2261C54.6966 29.7527 55.0208 30.4783 55.0478 31.2457C55.0747 32.0131 54.8021 32.7602 54.2892 33.3252L36.0184 52.9499C35.744 53.2385 35.4136 53.4665 35.0481 53.6195C34.6826 53.7725 34.2898 53.8472 33.8944 53.839V53.839Z" fill="white"/>
    </svg>
    