<svg width="260" height="240" viewBox="0 0 260 240" fill="none" xmlns="http://www.w3.org/2000/svg">
    <circle cx="184" cy="76" r="76" fill="#43919B" fill-opacity="0.2"/>
    <circle cx="67" cy="173" r="67" fill="#43919B" fill-opacity="0.2"/>
    <circle cx="130" cy="122" r="106" fill="white"/>
    <g clip-path="url(#clip0_0_1)">
    <path d="M63.9266 121.204L55.0063 116.177C54.886 110.799 56.0797 105.473 58.4837 100.661C60.5403 110 71.3635 114.444 76.3571 122.598C77.8952 125.154 78.8387 128.022 79.118 130.992C79.3972 133.962 79.005 136.956 77.9703 139.754L78.557 146.995C73.9467 145.614 69.6906 143.248 66.0818 140.062C62.4731 136.877 59.5976 132.946 57.6534 128.541C56.5871 126.059 55.8375 123.453 55.4222 120.783C59.5812 121.226 63.9266 121.204 63.9266 121.204Z" fill="#F2F2F2"/>
    <path d="M224.283 212.659L224.556 206.505C227.408 204.98 230.588 204.175 233.821 204.159C229.371 207.799 229.928 214.816 226.911 219.711C225.958 221.23 224.676 222.516 223.159 223.472C221.643 224.428 219.93 225.031 218.149 225.235L214.425 227.516C213.914 224.666 214.027 221.739 214.756 218.937C215.484 216.134 216.811 213.523 218.645 211.283C219.687 210.037 220.881 208.927 222.199 207.979C223.091 210.332 224.283 212.659 224.283 212.659Z" fill="#F2F2F2"/>
    <path d="M214.688 224.349L211.316 224.349L209.712 211.336L214.689 211.337L214.688 224.349Z" fill="#FFB6B6"/>
    <path d="M215.548 227.619L204.676 227.619V227.481C204.676 226.358 205.122 225.281 205.915 224.487C206.709 223.693 207.785 223.247 208.908 223.247H208.908L210.894 221.74L214.599 223.247L215.548 223.247L215.548 227.619Z" fill="#2F2E41"/>
    <path d="M199.023 224.349L195.651 224.349L194.047 211.336L199.024 211.337L199.023 224.349Z" fill="#FFB6B6"/>
    <path d="M199.883 227.619L189.011 227.619V227.481C189.011 226.358 189.457 225.281 190.25 224.487C191.044 223.693 192.12 223.247 193.242 223.247H193.243L195.229 221.74L198.934 223.247L199.883 223.247L199.883 227.619Z" fill="#2F2E41"/>
    <path d="M197.564 153.208L219.495 153.756C223.661 156.02 223.724 160.919 222.359 166.736C222.359 166.736 222.82 170.193 221.899 171.115C220.977 172.037 220.516 172.037 220.977 173.651C221.438 175.264 219.004 177.899 219.299 178.195C219.595 178.491 220.286 180.105 220.286 180.105L217.982 193.243C217.982 193.243 216.37 216.061 215.909 216.522C215.448 216.983 214.988 216.522 215.448 217.675C215.909 218.827 216.37 218.366 215.909 218.827C215.501 219.267 215.116 219.729 214.757 220.21H209.188C209.188 220.21 208.768 217.905 208.768 217.675C208.768 217.444 208.307 216.061 208.307 215.831C208.307 215.6 208.714 215.193 208.714 215.193C208.855 214.724 208.95 214.243 208.998 213.756C208.998 213.295 210.38 195.547 210.38 195.547L207.616 172.498L200.935 195.086C200.935 195.086 200.935 214.909 200.474 215.37C200.014 215.831 200.014 215.6 200.244 216.522C200.474 217.444 201.396 217.214 200.705 217.905C200.014 218.597 199.783 217.444 200.014 218.597L200.244 219.749L193.333 219.848C193.333 219.848 192.412 217.905 192.872 217.214C193.333 216.522 193.305 216.711 192.743 215.579C192.181 214.448 191.951 214.217 192.181 213.987C192.412 213.756 192.412 212.53 192.412 212.53L193.563 190.477C193.563 190.477 193.794 167.197 193.794 166.505C193.811 166.15 193.746 165.795 193.602 165.469V164.53L194.485 161.204L197.564 153.208Z" fill="#2F2E41"/>
    <path d="M210.738 107.579C214.502 107.579 217.553 104.526 217.553 100.761C217.553 96.9954 214.502 93.9429 210.738 93.9429C206.975 93.9429 203.924 96.9954 203.924 100.761C203.924 104.526 206.975 107.579 210.738 107.579Z" fill="#FFB6B6"/>
    <path d="M207.331 112.085C205.863 112.959 204.985 114.563 204.481 116.196C203.547 119.218 202.986 122.344 202.808 125.502L202.275 134.959L195.681 155.094C201.396 159.933 222.879 156.194 222.879 156.194C222.879 156.194 223.538 155.974 222.879 155.314C222.219 154.655 221.577 155.239 222.237 154.579C222.896 153.919 222.442 154.655 222.222 153.995C222.002 153.335 222.222 153.775 222.442 153.555C222.661 153.335 220.74 151.355 220.74 151.355L222.498 139.797L224.697 116.484C222.059 113.185 216.754 111.24 216.754 111.24L215.383 108.771L208.529 109.32L207.331 112.085Z" fill="#E6E6E6"/>
    <path d="M206.396 96.7596C206.66 96.7617 206.923 96.7961 207.178 96.8622C207.681 96.9832 208.192 97.069 208.707 97.1188C210.285 97.2673 211.767 97.9404 212.917 99.0307C214.068 100.121 214.82 101.566 215.053 103.134C215.449 102.788 216.35 102.153 217.089 102.743C217.1 102.753 217.107 102.757 217.133 102.745C217.623 102.512 218.494 99.647 218.52 97.124C218.534 95.785 218.323 94.075 217.241 93.5335L217.184 93.505L217.169 93.443C217.097 93.1418 216.289 92.6276 214.884 92.2274C212.332 91.5001 208.528 90.0834 206.386 92.1684C206.224 92.8712 205.697 94.3754 205.164 94.5459C204.574 94.7346 204.065 94.8975 203.984 95.6216C203.917 96.6519 203.922 97.6857 203.999 98.7154C204.199 98.0854 204.591 97.5339 205.121 97.1386C205.497 96.885 205.943 96.7527 206.396 96.7596Z" fill="#2F2E41"/>
    <path d="M193.713 134.432L204.844 127.3L199.238 119.843L193.702 126.656L176.453 127.715C175.999 127.266 175.425 126.959 174.8 126.831C174.175 126.704 173.526 126.761 172.933 126.995C172.34 127.23 171.827 127.632 171.459 128.153C171.09 128.674 170.881 129.291 170.857 129.929C170.833 130.567 170.994 131.198 171.322 131.745C171.651 132.293 172.131 132.733 172.704 133.012C173.278 133.291 173.921 133.397 174.554 133.317C175.186 133.237 175.782 132.975 176.269 132.562L193.713 134.432Z" fill="#FFB6B6"/>
    <path d="M215.176 117.344C215.822 121.256 203.622 128.726 203.622 128.726C203.621 127.808 196.34 134.739 196.011 133.978C195.077 131.814 194.42 126.687 193.115 125.867C192.368 125.398 197.611 120.99 197.611 120.99C197.611 120.99 200.355 118.224 203.956 114.735C204.956 113.73 206.193 112.994 207.554 112.596C208.914 112.198 210.353 112.151 211.737 112.459C211.737 112.459 214.53 113.432 215.176 117.344Z" fill="#E6E6E6"/>
    <path d="M238.119 136.305L230.756 125.321L223.424 131.087L230.349 136.481L231.772 153.713C231.334 154.176 231.039 154.757 230.925 155.385C230.81 156.013 230.881 156.661 231.128 157.249C231.375 157.838 231.788 158.341 232.316 158.699C232.845 159.057 233.466 159.253 234.103 159.264C234.741 159.274 235.368 159.099 235.908 158.759C236.449 158.42 236.878 157.93 237.145 157.35C237.412 156.77 237.504 156.125 237.411 155.494C237.317 154.863 237.042 154.272 236.619 153.794L238.119 136.305Z" fill="#FFB6B6"/>
    <path d="M220.589 115.197C224.484 114.468 232.207 126.514 232.207 126.514C231.29 126.533 238.37 133.671 237.616 134.015C235.473 134.996 230.365 135.761 229.573 137.084C229.12 137.841 224.604 132.69 224.604 132.69C224.604 132.69 221.782 130.004 218.22 126.476C217.194 125.497 216.433 124.274 216.006 122.922C215.58 121.569 215.502 120.131 215.781 118.74C215.781 118.74 216.694 115.926 220.589 115.197Z" fill="#E6E6E6"/>
    <path d="M240 227.674C240 227.716 239.992 227.759 239.976 227.799C239.959 227.838 239.935 227.874 239.905 227.905C239.875 227.935 239.839 227.959 239.799 227.975C239.759 227.992 239.717 228 239.674 228H162.833C162.747 228 162.664 227.966 162.602 227.904C162.541 227.843 162.507 227.76 162.507 227.674C162.507 227.587 162.541 227.504 162.602 227.443C162.664 227.382 162.747 227.347 162.833 227.347H239.674C239.717 227.347 239.759 227.355 239.799 227.372C239.839 227.388 239.875 227.412 239.905 227.442C239.935 227.473 239.959 227.509 239.976 227.549C239.992 227.588 240 227.631 240 227.674Z" fill="#CCCCCC"/>
    <path d="M168.816 128.757H75.559C74.102 128.759 72.7051 129.339 71.6749 130.37C70.6446 131.4 70.0651 132.798 70.0635 134.256V192.349C70.0651 193.807 70.6446 195.204 71.6749 196.235C72.7051 197.266 74.102 197.846 75.559 197.847H168.816C170.273 197.846 171.67 197.266 172.7 196.235C173.73 195.204 174.31 193.807 174.311 192.349V134.256C174.31 132.798 173.73 131.4 172.7 130.37C171.67 129.339 170.273 128.759 168.816 128.757Z" fill="#FAC213"/>
    <path d="M168.816 128.757H75.559C74.102 128.759 72.7051 129.339 71.6749 130.37C70.6446 131.4 70.0651 132.798 70.0635 134.256V192.349C70.0651 193.807 70.6446 195.204 71.6749 196.235C72.7051 197.266 74.102 197.846 75.559 197.847H168.816C170.273 197.846 171.67 197.266 172.7 196.235C173.73 195.204 174.31 193.807 174.311 192.349V134.256C174.31 132.798 173.73 131.4 172.7 130.37C171.67 129.339 170.273 128.759 168.816 128.757ZM170.619 170.486C170.597 176.401 168.259 182.07 164.107 186.28C159.954 190.489 154.319 192.902 148.408 193.002C138.946 193.125 153.644 193.173 142.231 193.173C116.134 193.173 88.9226 192.923 78.7696 192.762C77.4338 192.734 76.1616 192.185 75.2248 191.232C74.288 190.279 73.7607 188.997 73.7555 187.66V134.26C73.756 133.781 73.946 133.322 74.2839 132.983C74.6219 132.645 75.0802 132.453 75.5586 132.452H168.812C169.29 132.452 169.749 132.642 170.088 132.98C170.427 133.318 170.618 133.777 170.619 134.255V170.486Z" fill="#3F3D56"/>
    <path d="M157.336 95.3052H86.2841C85.6555 95.3061 85.0424 95.5011 84.5287 95.8636C84.0149 96.2261 83.6255 96.7384 83.4135 97.3305L72.4401 128.134C72.2763 128.594 72.2252 129.086 72.2911 129.57C72.3571 130.054 72.5381 130.514 72.8189 130.913C73.0998 131.312 73.4723 131.638 73.9052 131.863C74.338 132.089 74.8185 132.206 75.3064 132.207L170.599 132.376H170.603C171.107 132.376 171.604 132.251 172.048 132.012C172.492 131.773 172.869 131.427 173.147 131.006C173.425 130.584 173.593 130.101 173.638 129.598C173.683 129.096 173.603 128.59 173.404 128.126L173.238 128.197L173.404 128.126L160.137 97.1532C159.903 96.6044 159.512 96.1367 159.014 95.8082C158.516 95.4796 157.933 95.3047 157.336 95.3052Z" fill="#3F3D56"/>
    <path d="M173.651 128.795C173.65 129.208 173.566 129.617 173.404 129.997L160.138 153.839C159.902 154.386 159.511 154.853 159.013 155.181C158.515 155.509 157.932 155.684 157.336 155.685H86.2852C85.6564 155.684 85.043 155.489 84.5288 155.127C84.0146 154.765 83.6247 154.253 83.4122 153.66L72.4408 129.988C72.3063 129.611 72.2474 129.211 72.2675 128.812C72.2876 128.412 72.3863 128.02 72.5579 127.658C72.7295 127.296 72.9706 126.972 73.2676 126.703C73.5646 126.435 73.9115 126.228 74.2885 126.093C74.6147 125.976 74.9588 125.915 75.3056 125.915L86.9459 125.893L91.6969 125.885L154.214 125.775L158.967 125.767L170.599 125.745H170.602C171.411 125.745 172.186 126.067 172.758 126.639C173.329 127.211 173.651 127.986 173.651 128.795Z" fill="#3F3D56"/>
    <path d="M82.5501 172.333C83.9591 172.333 103.307 173.517 103.307 174.926C103.307 176.336 83.9591 177.439 82.5501 177.439C81.8735 177.439 81.2246 177.17 80.7462 176.691C80.2678 176.212 79.999 175.563 79.999 174.886C79.999 174.209 80.2678 173.56 80.7462 173.081C81.2246 172.602 81.8735 172.333 82.5501 172.333Z" fill="#3F3D56"/>
    <path d="M152.911 76.5659H93.0017C91.3962 76.5678 89.8569 77.2068 88.7216 78.3427C87.5863 79.4786 86.9477 81.0187 86.9458 82.6252V155.684H157.336C157.914 155.686 158.48 155.521 158.967 155.21V82.6252C158.965 81.0187 158.327 79.4786 157.191 78.3427C156.056 77.2068 154.517 76.5678 152.911 76.5659Z" fill="#E6E6E6"/>
    <path d="M130.045 81.479H97.2126C95.7507 81.4804 94.3489 82.062 93.3149 83.0961C92.2808 84.1301 91.6989 85.5324 91.6968 86.9951V155.685H154.213V105.661C154.206 99.2499 151.657 93.1034 147.126 88.57C142.595 84.0365 136.452 81.4864 130.045 81.479Z" fill="white"/>
    <path d="M143.563 149.584H102.347C101.991 149.584 101.649 149.726 101.397 149.978C101.145 150.23 101.004 150.572 101.004 150.928C101.004 151.285 101.145 151.626 101.397 151.878C101.649 152.13 101.991 152.272 102.347 152.272H143.563C143.919 152.272 144.261 152.13 144.512 151.878C144.764 151.626 144.906 151.285 144.906 150.928C144.906 150.572 144.764 150.23 144.512 149.978C144.261 149.726 143.919 149.584 143.563 149.584Z" fill="#E4E4E4"/>
    <path d="M143.563 144.269H102.348C101.991 144.269 101.649 144.41 101.397 144.663C101.145 144.915 101.003 145.257 101.003 145.614C101.003 145.971 101.145 146.313 101.397 146.565C101.649 146.818 101.991 146.959 102.348 146.959H143.563C143.92 146.959 144.262 146.818 144.514 146.565C144.766 146.313 144.908 145.971 144.908 145.614C144.908 145.257 144.766 144.915 144.514 144.663C144.262 144.41 143.92 144.269 143.563 144.269Z" fill="#E4E4E4"/>
    <path d="M120.213 138.955H102.347C101.991 138.955 101.649 139.097 101.397 139.349C101.145 139.601 101.004 139.943 101.004 140.299C101.004 140.656 101.145 140.997 101.397 141.25C101.649 141.502 101.991 141.643 102.347 141.643H120.213C120.57 141.643 120.911 141.502 121.163 141.25C121.415 140.997 121.557 140.656 121.557 140.299C121.557 139.943 121.415 139.601 121.163 139.349C120.911 139.097 120.57 138.955 120.213 138.955Z" fill="#E4E4E4"/>
    <path d="M143.563 127.824H102.348C101.991 127.824 101.649 127.966 101.397 128.218C101.145 128.471 101.003 128.813 101.003 129.17C101.003 129.526 101.145 129.869 101.397 130.121C101.649 130.373 101.991 130.515 102.348 130.515H143.563C143.92 130.515 144.262 130.373 144.514 130.121C144.766 129.869 144.908 129.526 144.908 129.17C144.908 128.813 144.766 128.471 144.514 128.218C144.262 127.966 143.92 127.824 143.563 127.824Z" fill="#E4E4E4"/>
    <path d="M143.563 122.511H102.347C101.991 122.511 101.649 122.653 101.397 122.905C101.145 123.157 101.004 123.499 101.004 123.855C101.004 124.212 101.145 124.554 101.397 124.806C101.649 125.058 101.991 125.199 102.347 125.199H143.563C143.919 125.199 144.261 125.058 144.512 124.806C144.764 124.554 144.906 124.212 144.906 123.855C144.906 123.499 144.764 123.157 144.512 122.905C144.261 122.653 143.919 122.511 143.563 122.511Z" fill="#E4E4E4"/>
    <path d="M120.214 117.195H102.348C101.991 117.195 101.649 117.337 101.397 117.589C101.145 117.842 101.003 118.184 101.003 118.541C101.003 118.898 101.145 119.24 101.397 119.492C101.649 119.744 101.991 119.886 102.348 119.886H120.214C120.57 119.886 120.913 119.744 121.165 119.492C121.417 119.24 121.559 118.898 121.559 118.541C121.559 118.184 121.417 117.842 121.165 117.589C120.913 117.337 120.57 117.195 120.214 117.195Z" fill="#E4E4E4"/>
    <path d="M143.563 106.064H102.348C101.991 106.064 101.649 106.206 101.397 106.458C101.145 106.71 101.003 107.053 101.003 107.409C101.003 107.766 101.145 108.108 101.397 108.361C101.649 108.613 101.991 108.755 102.348 108.755H143.563C143.92 108.755 144.262 108.613 144.514 108.361C144.766 108.108 144.908 107.766 144.908 107.409C144.908 107.053 144.766 106.71 144.514 106.458C144.262 106.206 143.92 106.064 143.563 106.064Z" fill="#FAC213"/>
    <path d="M143.563 100.751H102.348C101.991 100.751 101.649 100.893 101.397 101.145C101.145 101.397 101.003 101.74 101.003 102.096C101.003 102.453 101.145 102.795 101.397 103.048C101.649 103.3 101.991 103.442 102.348 103.442H143.563C143.92 103.442 144.262 103.3 144.514 103.048C144.766 102.795 144.908 102.453 144.908 102.096C144.908 101.74 144.766 101.397 144.514 101.145C144.262 100.893 143.92 100.751 143.563 100.751Z" fill="#FAC213"/>
    <path d="M120.214 95.4351H102.348C101.991 95.4351 101.649 95.5768 101.397 95.8291C101.145 96.0814 101.003 96.4237 101.003 96.7805C101.003 97.1373 101.145 97.4795 101.397 97.7319C101.649 97.9842 101.991 98.1259 102.348 98.1259H120.214C120.57 98.1259 120.913 97.9842 121.165 97.7319C121.417 97.4795 121.559 97.1373 121.559 96.7805C121.559 96.4237 121.417 96.0814 121.165 95.8291C120.913 95.5768 120.57 95.4351 120.214 95.4351Z" fill="#FAC213"/>
    <path d="M156.721 86.936C162.499 86.936 167.183 82.2493 167.183 76.468C167.183 70.6867 162.499 66 156.721 66C150.943 66 146.259 70.6867 146.259 76.468C146.259 82.2493 150.943 86.936 156.721 86.936Z" fill="#FAC213"/>
    <path d="M155.294 81.9159C155.113 81.9159 154.935 81.8738 154.773 81.793C154.612 81.7121 154.471 81.5947 154.363 81.4501L151.509 77.6422C151.416 77.5199 151.349 77.3806 151.311 77.2323C151.273 77.084 151.264 76.9296 151.285 76.7779C151.307 76.6263 151.358 76.4803 151.436 76.3485C151.514 76.2166 151.617 76.1014 151.739 76.0095C151.862 75.9176 152.001 75.8508 152.15 75.8129C152.298 75.775 152.452 75.7667 152.604 75.7886C152.755 75.8105 152.901 75.8621 153.033 75.9404C153.164 76.0187 153.279 76.1222 153.371 76.245L155.238 78.736L160.034 71.5381C160.205 71.2811 160.471 71.1027 160.774 71.0421C161.077 70.9816 161.391 71.0438 161.648 71.2151C161.905 71.3864 162.083 71.6528 162.144 71.9556C162.204 72.2584 162.142 72.5729 161.971 72.8299L156.262 81.3974C156.159 81.5523 156.02 81.6802 155.857 81.7704C155.694 81.8606 155.512 81.9103 155.326 81.9155C155.315 81.9157 155.305 81.9159 155.294 81.9159Z" fill="white"/>
    </g>
    <defs>
    <clipPath id="clip0_0_1">
    <rect width="185" height="162" fill="white" transform="translate(55 66)"/>
    </clipPath>
    </defs>
    </svg>
    