<svg width="69" height="69" viewBox="0 0 69 69" fill="none" xmlns="http://www.w3.org/2000/svg">
    <path d="M49.3946 22.7083C48.1162 23.6129 46.7008 24.3047 45.2028 24.7572C44.3988 23.8299 43.3302 23.1726 42.1417 22.8742C40.9531 22.5759 39.7019 22.651 38.5573 23.0892C37.4127 23.5275 36.4298 24.3078 35.7417 25.3247C35.0536 26.3415 34.6933 27.5459 34.7098 28.7748V30.1139C32.3637 30.175 30.039 29.653 27.9427 28.5946C25.8464 27.5361 24.0436 25.9741 22.6949 24.0475C22.6949 24.0475 17.3549 36.1001 29.3698 41.4568C26.6204 43.3289 23.3452 44.2676 20.0249 44.1351C32.0398 50.831 46.7247 44.1351 46.7247 28.7346C46.7234 28.3616 46.6877 27.9895 46.6179 27.6231C47.9803 26.2752 48.9418 24.5734 49.3946 22.7083V22.7083Z" stroke="#43919B" stroke-width="4" stroke-linecap="round" stroke-linejoin="round"/>
    <circle cx="34.3759" cy="34.3759" r="32.3759" stroke="#43919B" stroke-width="4"/>
    </svg>
    